<svg width="1002" height="704" viewBox="0 0 1002 704" fill="none" xmlns="http://www.w3.org/2000/svg">
<rect width="1002" height="704" fill="white"/>
<path d="M467.536 654.479C468.322 654.671 469.148 654.773 470 654.773C475.247 654.773 479.5 650.906 479.5 646.136C479.5 641.367 475.247 637.5 470 637.5C464.753 637.5 460.5 641.367 460.5 646.136C460.5 648.638 461.67 650.891 463.539 652.468L463.091 656.5L467.536 654.479ZM470 635.5C476.311 635.5 481.5 640.217 481.5 646.136C481.5 652.055 476.311 656.773 470 656.773C469.244 656.773 468.497 656.705 467.766 656.572L463.919 658.321C462.506 658.963 460.932 657.821 461.103 656.279L461.441 653.243C459.572 651.32 458.5 648.811 458.5 646.136C458.5 640.217 463.689 635.5 470 635.5ZM473 647.5H467C466.448 647.5 466 647.948 466 648.5C466 649.052 466.448 649.5 467 649.5H473C473.552 649.5 474 649.052 474 648.5C474 647.948 473.552 647.5 473 647.5ZM475 643H465C464.448 643 464 643.448 464 644C464 644.552 464.448 645 465 645H475C475.552 645 476 644.552 476 644C476 643.448 475.552 643 475 643Z" fill="#757575"/>
<path d="M461.545 379.525C464.201 377.248 468.199 377.556 470.475 380.212C472.752 382.867 472.444 386.866 469.788 389.142L461 396.675L452.212 389.142C449.556 386.866 449.248 382.867 451.525 380.212C453.801 377.556 457.799 377.248 460.455 379.525L461 379.992L461.545 379.525Z" fill="#757575"/>
<path d="M439 226C440.105 226 441 226.895 441 228V247C441 247.87 439.967 248.325 439.325 247.738L433 241.954L426.675 247.738C426.033 248.325 425 247.87 425 247V228C425 226.895 425.895 226 427 226H439ZM439 228H427V244.731L432.325 239.861C432.707 239.512 433.293 239.512 433.675 239.861L439 244.731V228ZM433 230C433.552 230 434 230.448 434 231V233H436C436.513 233 436.936 233.386 436.993 233.883L437 234C437 234.552 436.552 235 436 235H434V237C434 237.513 433.614 237.936 433.117 237.993L433 238C432.448 238 432 237.552 432 237V235H430C429.487 235 429.064 234.614 429.007 234.117L429 234C429 233.448 429.448 233 430 233H432V231C432 230.487 432.386 230.064 432.883 230.007L433 230Z" fill="#757575"/>
<path d="M440 295H426C423.239 295 421 297.239 421 300V314C421 316.761 423.239 319 426 319H440C442.762 319 445 316.761 445 314V300C445 297.239 442.762 295 440 295ZM429 314H426V303H429V314ZM427.5 301.732C426.534 301.732 425.75 300.942 425.75 299.968C425.75 298.994 426.534 298.204 427.5 298.204C428.466 298.204 429.25 298.994 429.25 299.968C429.25 300.942 428.467 301.732 427.5 301.732ZM441 314H438V308.396C438 305.028 434 305.283 434 308.396V314H431V303H434V304.765C435.396 302.179 441 301.988 441 307.241V314Z" fill="#757575"/>
<path d="M472 107.5C472.552 107.5 473 107.948 473 108.5C473 109.052 472.552 109.5 472 109.5H468C467.448 109.5 467 109.052 467 108.5C467 107.948 467.448 107.5 468 107.5H472ZM470 84C471.644 84 473.001 85.2318 473.198 86.8229C473.354 86.8838 473.507 86.9489 473.658 87.0182C473.225 88.2888 472.976 88.9074 472.912 88.8768C472.6 88.7287 472.274 88.6032 471.937 88.5028L471.222 88.29V87.2222C471.222 86.5472 470.675 86 470 86C469.325 86 468.778 86.5472 468.778 87.2222V88.29L468.063 88.5028C465.214 89.3507 463.222 91.9811 463.222 95V100.667C463.222 101.96 462.404 102.778 461.111 102.778C461.05 102.778 461 102.828 461 102.889V104.111H479V102.889C479 102.828 478.95 102.778 478.889 102.778C477.596 102.778 476.778 101.96 476.778 100.667V95L478.778 94.999V100.667C478.778 100.855 478.7 100.778 478.889 100.778C480.055 100.778 481 101.723 481 102.889V104.111C481 105.216 480.105 106.111 479 106.111H461C459.895 106.111 459 105.216 459 104.111V102.889C459 101.723 459.945 100.778 461.111 100.778C461.3 100.778 461.222 100.855 461.222 100.667V95C461.222 91.3389 463.483 88.1197 466.802 86.8229C466.999 85.2318 468.356 84 470 84Z" fill="#757575"/>
<path d="M478 93.5C479.933 93.5 481.5 91.933 481.5 90C481.5 88.067 479.933 86.5 478 86.5C476.067 86.5 474.5 88.067 474.5 90C474.5 91.933 476.067 93.5 478 93.5Z" fill="#757575"/>
<path d="M470 145.5C476.311 145.5 481.5 150.217 481.5 156.136C481.5 162.055 476.311 166.773 470 166.773C469.244 166.773 468.497 166.705 467.766 166.572L463.919 168.321C462.506 168.963 460.932 167.821 461.103 166.279L461.441 163.243C459.572 161.32 458.5 158.811 458.5 156.136C458.5 150.217 463.689 145.5 470 145.5ZM470 151.5C469.448 151.5 469 151.948 469 152.5V155H466.5C465.987 155 465.564 155.386 465.507 155.883L465.5 156C465.5 156.552 465.948 157 466.5 157H469V159.5C469 160.013 469.386 160.436 469.883 160.493L470 160.5C470.552 160.5 471 160.052 471 159.5V157H473.5C474.013 157 474.436 156.614 474.493 156.117L474.5 156C474.5 155.448 474.052 155 473.5 155H471V152.5C471 151.987 470.614 151.564 470.117 151.507L470 151.5Z" fill="#757575"/>
<path d="M439.536 454.479C440.322 454.671 441.148 454.773 442 454.773C447.247 454.773 451.5 450.906 451.5 446.136C451.5 441.367 447.247 437.5 442 437.5C436.753 437.5 432.5 441.367 432.5 446.136C432.5 448.638 433.67 450.891 435.539 452.468L435.091 456.5L439.536 454.479ZM442 435.5C448.311 435.5 453.5 440.217 453.5 446.136C453.5 452.055 448.311 456.773 442 456.773C441.244 456.773 440.497 456.705 439.766 456.572L435.919 458.321C434.506 458.963 432.932 457.821 433.103 456.279L433.441 453.243C431.572 451.32 430.5 448.811 430.5 446.136C430.5 440.217 435.689 435.5 442 435.5ZM442 441.5C441.448 441.5 441 441.948 441 442.5V445H438.5C437.987 445 437.564 445.386 437.507 445.883L437.5 446C437.5 446.552 437.948 447 438.5 447H441V449.5C441 450.013 441.386 450.436 441.883 450.493L442 450.5C442.552 450.5 443 450.052 443 449.5V447H445.5C446.013 447 446.436 446.614 446.493 446.117L446.5 446C446.5 445.448 446.052 445 445.5 445H443V442.5C443 441.987 442.614 441.564 442.117 441.507L442 441.5Z" fill="#757575"/>
<path d="M922.589 546.475C921.856 546.861 920.998 546.238 921.138 545.421L922.172 539.394L917.793 535.126C917.2 534.547 917.527 533.539 918.348 533.42L924.399 532.541L927.105 527.057C927.472 526.314 928.532 526.314 928.899 527.057L931.605 532.541L937.656 533.42C938.476 533.539 938.804 534.547 938.21 535.126L933.832 539.394L934.865 545.421C935.005 546.238 934.148 546.861 933.414 546.475L928.002 543.63L922.589 546.475Z" fill="#757575"/>
<path d="M929 588C929.552 588 930 588.448 930 589C930 589.552 929.552 590 929 590H928C927.448 590 927 589.552 927 589C927 588.448 927.448 588 928 588H929ZM931 585C931.552 585 932 585.448 932 586C932 586.552 931.552 587 931 587H926C925.448 587 925 586.552 925 586C925 585.448 925.448 585 926 585H931ZM928.518 564C933.196 564 937 567.701 937 572.28C937 574.927 936.356 576.28 934.68 578.177C934.556 578.316 934.487 578.395 934.435 578.454C933.96 578.992 933.686 579.336 933.43 579.739C933.059 580.319 932.871 581.294 932.913 582.66C932.935 583.377 932.372 583.977 931.654 583.999C931.634 584 931.634 584 931.614 584H925.386C924.668 584 924.086 583.418 924.086 582.7L924.087 582.66C924.128 581.294 923.941 580.319 923.57 579.739C923.314 579.337 923.04 578.993 922.567 578.456C922.514 578.396 922.444 578.317 922.32 578.177C920.644 576.281 920 574.927 920 572.28C920 567.701 923.804 564 928.482 564H928.518ZM928.518 566H928.482C924.896 566 922 568.818 922 572.28C922 574.37 922.438 575.29 923.818 576.852C923.941 576.991 924.012 577.071 924.067 577.133C924.603 577.742 924.932 578.155 925.257 578.663C925.789 579.499 926.057 580.61 926.089 582H930.911C930.943 580.61 931.211 579.498 931.743 578.663C932.068 578.154 932.397 577.741 932.934 577.131C932.988 577.07 933.059 576.99 933.181 576.852C934.562 575.29 935 574.37 935 572.28C935 568.818 932.104 566 928.518 566ZM928.523 568.414C928.698 568.938 928.415 569.504 927.891 569.679C926.475 570.152 925.5 571.482 925.5 573C925.5 573.552 925.052 574 924.5 574C923.948 574 923.5 573.552 923.5 573C923.5 570.615 925.031 568.525 927.258 567.782C927.782 567.607 928.348 567.89 928.523 568.414Z" fill="#757575"/>
<path d="M936.731 653.938H937C938.657 653.938 940 655.281 940 656.938V657.062C940 658.719 938.657 660.062 937 660.062H936.731C936.618 660.385 936.487 660.7 936.339 661.008L936.529 661.198C937.701 662.37 937.701 664.27 936.529 665.441L936.441 665.529C935.27 666.701 933.37 666.701 932.198 665.529L932.008 665.339C931.7 665.487 931.385 665.618 931.062 665.731V666C931.062 667.657 929.719 669 928.062 669H927.938C926.281 669 924.938 667.657 924.938 666V665.731C924.615 665.618 924.3 665.487 923.992 665.339L923.802 665.529C922.63 666.701 920.73 666.701 919.559 665.529L919.471 665.441C918.299 664.27 918.299 662.37 919.471 661.198L919.661 661.008C919.513 660.7 919.382 660.385 919.269 660.062H919C917.343 660.062 916 658.719 916 657.062V656.938C916 655.281 917.343 653.938 919 653.938H919.269C919.382 653.615 919.513 653.3 919.661 652.992L919.471 652.802C918.299 651.63 918.299 649.73 919.471 648.559L919.559 648.471C920.73 647.299 922.63 647.299 923.802 648.471L923.992 648.661C924.3 648.513 924.615 648.382 924.938 648.269V648C924.938 646.343 926.281 645 927.938 645H928.062C929.719 645 931.062 646.343 931.062 648V648.269C931.385 648.382 931.7 648.513 932.008 648.661L932.198 648.471C933.37 647.299 935.27 647.299 936.441 648.471L936.529 648.559C937.701 649.73 937.701 651.63 936.529 652.802L936.339 652.992C936.487 653.3 936.618 653.615 936.731 653.938ZM934.401 652.102L935.115 651.387C935.506 650.997 935.506 650.364 935.115 649.973L935.027 649.885C934.636 649.494 934.003 649.494 933.613 649.885L932.898 650.599C932.575 650.922 932.075 650.985 931.682 650.753C931.1 650.409 930.471 650.148 929.813 649.978C929.371 649.865 929.062 649.466 929.062 649.01V648C929.062 647.448 928.615 647 928.062 647H927.938C927.385 647 926.938 647.448 926.938 648V649.01C926.938 649.466 926.629 649.865 926.187 649.978C925.529 650.148 924.9 650.409 924.318 650.753C923.925 650.985 923.425 650.922 923.102 650.599L922.387 649.885C921.997 649.494 921.364 649.494 920.973 649.885L920.885 649.973C920.494 650.364 920.494 650.997 920.885 651.387L921.599 652.102C921.922 652.425 921.985 652.925 921.753 653.318C921.409 653.9 921.148 654.529 920.978 655.187C920.865 655.629 920.466 655.938 920.01 655.938H919C918.448 655.938 918 656.385 918 656.938V657.062C918 657.615 918.448 658.062 919 658.062H920.01C920.466 658.062 920.865 658.371 920.978 658.813C921.148 659.471 921.409 660.1 921.753 660.682C921.985 661.075 921.922 661.575 921.599 661.898L920.885 662.613C920.494 663.003 920.494 663.636 920.885 664.027L920.973 664.115C921.364 664.506 921.997 664.506 922.387 664.115L923.102 663.401C923.425 663.078 923.925 663.015 924.318 663.247C924.9 663.591 925.529 663.852 926.187 664.022C926.629 664.135 926.938 664.534 926.938 664.99V666C926.938 666.552 927.385 667 927.938 667H928.062C928.615 667 929.062 666.552 929.062 666V664.99C929.062 664.534 929.371 664.135 929.813 664.022C930.471 663.852 931.1 663.591 931.682 663.247C932.075 663.015 932.575 663.078 932.898 663.401L933.613 664.115C934.003 664.506 934.636 664.506 935.027 664.115L935.115 664.027C935.506 663.636 935.506 663.003 935.115 662.613L934.401 661.898C934.078 661.575 934.015 661.075 934.247 660.682C934.591 660.1 934.852 659.471 935.022 658.813C935.135 658.371 935.534 658.062 935.99 658.062H937C937.552 658.062 938 657.615 938 657.062V656.938C938 656.385 937.552 655.938 937 655.938H935.99C935.534 655.938 935.135 655.629 935.022 655.187C934.852 654.529 934.591 653.9 934.247 653.318C934.015 652.925 934.078 652.425 934.401 652.102ZM928 662.354C925.043 662.354 922.646 659.957 922.646 657C922.646 654.043 925.043 651.646 928 651.646C930.957 651.646 933.354 654.043 933.354 657C933.354 659.957 930.957 662.354 928 662.354ZM928 660.354C929.852 660.354 931.354 658.852 931.354 657C931.354 655.148 929.852 653.646 928 653.646C926.148 653.646 924.646 655.148 924.646 657C924.646 658.852 926.148 660.354 928 660.354Z" fill="#757575"/>
<path d="M919 384C924.247 384 928.5 388.253 928.5 393.5C928.5 398.25 925.333 403.792 919 410.125C912.667 403.792 909.5 398.25 909.5 393.5C909.5 388.253 913.753 384 919 384ZM919 390.5C917.343 390.5 916 391.843 916 393.5C916 395.157 917.343 396.5 919 396.5C920.657 396.5 922 395.157 922 393.5C922 391.843 920.657 390.5 919 390.5Z" fill="#757575"/>
<path d="M891 234C896.247 234 900.5 238.253 900.5 243.5C900.5 248.25 897.333 253.792 891 260.125C884.667 253.792 881.5 248.25 881.5 243.5C881.5 238.253 885.753 234 891 234ZM891.266 238.801C891.033 238.972 890.838 239.183 890.585 239.331C890.36 239.463 890.133 239.501 889.883 239.376C889.645 239.258 889.399 239.154 889.153 239.05C888.904 238.945 888.663 238.815 888.383 238.793C887.497 238.722 886.57 239.214 886.179 239.961C886.005 240.292 885.864 240.636 885.73 240.982C885.11 242.58 884.605 244.213 884.082 245.84C883.848 246.568 884.124 247.285 884.785 247.678C885.3 247.985 885.864 248.061 886.448 247.897C886.921 247.764 887.18 247.408 887.362 247.009C887.963 245.683 888.505 244.335 889.079 242.999C889.237 242.632 889.39 242.263 889.557 241.899C889.727 241.532 890.213 241.407 890.501 241.65C890.677 241.799 890.723 241.997 890.706 242.208C890.687 242.434 890.593 242.643 890.505 242.851C890.132 243.732 889.752 244.61 889.377 245.491C889.301 245.669 889.219 245.846 889.185 246.037C889.128 246.365 889.267 246.656 889.555 246.772C889.848 246.89 890.152 246.91 890.456 246.807C890.81 246.687 891.022 246.428 891.184 246.129C891.744 245.103 892.3 244.074 892.859 243.048C893.117 242.574 893.38 242.102 893.644 241.631C893.742 241.456 893.857 241.291 894.04 241.182C894.205 241.084 894.384 241.077 894.553 241.166C894.718 241.252 894.73 241.41 894.723 241.566C894.719 241.65 894.694 241.732 894.659 241.81C894.587 241.972 894.519 242.137 894.439 242.296C893.973 243.21 893.501 244.12 893.04 245.036C892.846 245.422 892.643 245.811 892.667 246.217C892.668 247.156 893.314 247.986 894.229 248.268C894.688 248.41 895.161 248.477 895.642 248.497C895.985 248.51 896.327 248.488 896.644 248.341C896.893 248.224 897.011 248.032 896.999 247.777C896.988 247.519 896.865 247.327 896.601 247.225C896.509 247.189 896.416 247.16 896.319 247.144C896.028 247.096 895.736 247.055 895.447 247.001C894.969 246.913 894.769 246.677 894.763 246.226C894.757 245.827 894.873 245.451 895.005 245.079C895.245 244.398 895.569 243.748 895.88 243.094C896.18 242.462 896.494 241.835 896.706 241.169C896.822 240.803 896.878 240.437 896.772 240.059C896.611 239.485 896.242 239.1 895.607 238.99C895.026 238.889 894.447 238.877 893.921 239.201C893.746 239.308 893.578 239.282 893.426 239.157C893.311 239.062 893.2 238.962 893.087 238.864C892.55 238.402 891.841 238.379 891.266 238.801Z" fill="#757575"/>
<path d="M887.63 326.6V319.55C887.63 318.998 888.077 318.55 888.63 318.55H893.423C893.975 318.55 894.423 318.998 894.423 319.55V326.6H898.05V316.1C898.05 315.548 898.498 315.1 899.05 315.1H899.894L891 307.095L882.106 315.1H882.95C883.502 315.1 883.95 315.548 883.95 316.1V326.6H887.63ZM889.63 320.55V327.6C889.63 328.152 889.182 328.6 888.63 328.6H882.95C882.398 328.6 881.95 328.152 881.95 327.6V317.1H879.5C878.584 317.1 878.15 315.97 878.831 315.357L890.331 305.007C890.711 304.664 891.289 304.664 891.669 305.007L903.169 315.357C903.85 315.97 903.417 317.1 902.5 317.1H900.05V327.6C900.05 328.152 899.602 328.6 899.05 328.6H893.423C892.87 328.6 892.423 328.152 892.423 327.6V320.55H889.63Z" fill="#757575"/>
<path d="M922 108C924.761 108 927 110.239 927 113C927 115.761 924.761 118 922 118C919.239 118 917 115.761 917 113C917 110.239 919.239 108 922 108ZM934 108C936.761 108 939 110.239 939 113C939 115.761 936.761 118 934 118C931.239 118 929 115.761 929 113C929 110.239 931.239 108 934 108ZM922 96C924.761 96 927 98.2386 927 101C927 103.761 924.761 106 922 106C919.239 106 917 103.761 917 101C917 98.2386 919.239 96 922 96ZM934 96C936.761 96 939 98.2386 939 101C939 103.761 936.761 106 934 106C931.239 106 929 103.761 929 101C929 98.2386 931.239 96 934 96Z" fill="#757575"/>
<path d="M925 172C925.552 172 926 172.448 926 173C926 173.552 925.552 174 925 174H919C918.448 174 918 173.552 918 173C918 172.448 918.448 172 919 172H925ZM931 166C931.552 166 932 166.448 932 167C932 167.552 931.552 168 931 168H919C918.448 168 918 167.552 918 167C918 166.448 918.448 166 919 166H931ZM937 160C937.552 160 938 160.448 938 161C938 161.552 937.552 162 937 162H919C918.448 162 918 161.552 918 161C918 160.448 918.448 160 919 160H937Z" fill="#757575"/>
<path d="M912.5 457C912.5 450.096 906.904 444.5 900 444.5C893.096 444.5 887.5 450.096 887.5 457C887.5 463.239 892.071 468.41 898.047 469.348V460.613H894.873V457H898.047V454.246C898.047 451.113 899.913 449.383 902.768 449.383C904.136 449.383 905.566 449.627 905.566 449.627V452.703H903.99C902.437 452.703 901.953 453.667 901.953 454.655V457H905.42L904.866 460.613H901.953V469.348C907.929 468.41 912.5 463.239 912.5 457Z" fill="#757575"/>
<path d="M894 494C894.552 494 895 494.448 895 495C895 495.552 894.552 496 894 496H893.5C892.948 496 892.5 496.448 892.5 497V505C892.5 505.552 892.948 506 893.5 506H906.5C907.052 506 907.5 505.552 907.5 505V497C907.5 496.448 907.052 496 906.5 496H906C905.448 496 905 495.552 905 495C905 494.448 905.448 494 906 494H906.5C908.157 494 909.5 495.343 909.5 497V505C909.5 506.657 908.157 508 906.5 508H893.5C891.843 508 890.5 506.657 890.5 505V497C890.5 495.343 891.843 494 893.5 494H894ZM900 486C900.006 486 900.013 486 900.019 486C900.043 486.001 900.066 486.002 900.089 486.004C900.11 486.006 900.129 486.008 900.149 486.011C900.166 486.014 900.183 486.017 900.201 486.02C900.223 486.025 900.244 486.03 900.266 486.036C900.281 486.04 900.297 486.045 900.312 486.05C900.332 486.056 900.352 486.063 900.371 486.071C900.389 486.078 900.406 486.086 900.423 486.094C900.444 486.103 900.464 486.114 900.484 486.125C900.496 486.131 900.509 486.139 900.521 486.146C900.546 486.162 900.571 486.178 900.595 486.196C900.634 486.225 900.672 486.257 900.707 486.293L900.617 486.213C900.62 486.215 900.623 486.217 900.625 486.22L900.707 486.293L904.707 490.293C905.098 490.683 905.098 491.317 904.707 491.707C904.317 492.098 903.683 492.098 903.293 491.707L901 489.414V500C901 500.513 900.614 500.936 900.117 500.993L900 501C899.448 501 899 500.552 899 500V489.414L896.707 491.707C896.347 492.068 895.779 492.095 895.387 491.79L895.293 491.707C894.902 491.317 894.902 490.683 895.293 490.293L899.293 486.293L899.375 486.22C899.377 486.217 899.38 486.215 899.383 486.213C899.39 486.207 899.397 486.202 899.405 486.196C899.429 486.178 899.454 486.162 899.479 486.146C899.491 486.139 899.504 486.131 899.516 486.125C899.536 486.114 899.556 486.103 899.577 486.094C899.594 486.086 899.611 486.078 899.629 486.071C899.648 486.063 899.668 486.056 899.688 486.05C899.703 486.045 899.719 486.04 899.734 486.036C899.756 486.03 899.777 486.025 899.799 486.02C899.817 486.017 899.834 486.014 899.852 486.011C899.9 486.004 899.949 486 900 486L899.911 486.004C899.934 486.002 899.958 486.001 899.982 486L900 486Z" fill="#757575"/>
<path d="M897.536 524.479C898.322 524.671 899.148 524.773 900 524.773C905.247 524.773 909.5 520.906 909.5 516.136C909.5 511.367 905.247 507.5 900 507.5C894.753 507.5 890.5 511.367 890.5 516.136C890.5 518.638 891.67 520.891 893.539 522.468L893.091 526.5L897.536 524.479ZM893.919 528.321C892.506 528.963 890.932 527.821 891.103 526.279L891.441 523.243C889.572 521.32 888.5 518.811 888.5 516.136C888.5 510.217 893.689 505.5 900 505.5C906.311 505.5 911.5 510.217 911.5 516.136C911.5 522.055 906.311 526.773 900 526.773C899.244 526.773 898.497 526.705 897.766 526.572L893.919 528.321Z" fill="#757575"/>
<path d="M378.5 615C383.747 615 388 619.253 388 624.5C388 626.582 387.33 628.507 386.195 630.073L391.561 635.439C392.146 636.025 392.146 636.975 391.561 637.561C390.975 638.146 390.025 638.146 389.439 637.561L384.073 632.195C382.507 633.33 380.582 634 378.5 634C373.253 634 369 629.747 369 624.5C369 619.253 373.253 615 378.5 615ZM378.5 618C374.91 618 372 620.91 372 624.5C372 628.09 374.91 631 378.5 631C382.09 631 385 628.09 385 624.5C385 620.91 382.09 618 378.5 618Z" fill="#757575"/>
<g clip-path="url(#clip0)">
<path d="M369.085 368.441L361.182 366.465C360.23 366.227 360.155 364.903 361.074 364.558L378.044 358.194C378.848 357.893 379.633 358.678 379.332 359.482L372.968 376.452C372.623 377.371 371.299 377.296 371.061 376.344L369.085 368.441Z" fill="#757575"/>
</g>
<path d="M354.483 207.684L351.009 226.21C350.887 226.863 350.173 227.218 349.579 226.921L344.048 224.155L340.312 227.891C339.682 228.521 338.605 228.075 338.605 227.184L338.605 221.433L331.053 217.657C330.289 217.275 330.325 216.173 331.112 215.841L353.112 206.578C353.846 206.269 354.63 206.901 354.483 207.684ZM340.605 222.433L340.605 224.77L342.162 223.212L340.605 222.433ZM351.893 210.639L341.202 220.496L349.288 224.539L351.893 210.639ZM349.216 210.388L333.892 216.841L339.289 219.539L349.216 210.388Z" fill="#757575"/>
<path d="M343.339 278C344.9 278.008 351.379 278.066 353.158 278.543C354.277 278.842 355.158 279.723 355.457 280.841C356 282.869 356 287.1 356 287.1L356 287.11C356 287.339 355.984 291.388 355.457 293.358C355.158 294.476 354.277 295.358 353.158 295.656C351.337 296.144 344.596 296.194 343.239 296.199H342.761C341.404 296.194 334.662 296.144 332.842 295.656C331.723 295.358 330.842 294.476 330.543 293.358C330.062 291.562 330.007 288.038 330 287.256V286.943C330.007 286.161 330.062 282.637 330.543 280.841C330.842 279.723 331.723 278.842 332.842 278.543C334.621 278.066 341.1 278.008 342.66 278H343.339ZM340.4 283.199V291L347.155 287.1L340.4 283.199Z" fill="#757575"/>
<path d="M380 65.5C386.311 65.5 391.5 70.2173 391.5 76.1364C391.5 82.0554 386.311 86.7727 380 86.7727C379.244 86.7727 378.497 86.7051 377.766 86.572L373.919 88.3207C372.506 88.9629 370.932 87.8214 371.103 86.2791L371.441 83.2428C369.572 81.32 368.5 78.8113 368.5 76.1364C368.5 70.2173 373.689 65.5 380 65.5ZM383 77.5H377C376.448 77.5 376 77.9477 376 78.5C376 79.0523 376.448 79.5 377 79.5H383C383.552 79.5 384 79.0523 384 78.5C384 77.9477 383.552 77.5 383 77.5ZM385 73H375C374.448 73 374 73.4477 374 74C374 74.5523 374.448 75 375 75H385C385.552 75 386 74.5523 386 74C386 73.4477 385.552 73 385 73Z" fill="#757575"/>
<path d="M380.545 139.525C383.201 137.248 387.199 137.556 389.475 140.212C391.752 142.867 391.444 146.866 388.788 149.142L380 156.675L371.212 149.142C368.556 146.866 368.248 142.867 370.525 140.212C372.801 137.556 376.799 137.248 379.455 139.525L380 139.992L380.545 139.525ZM387.487 147.624C389.304 146.066 389.514 143.33 387.957 141.513C386.399 139.696 383.664 139.486 381.847 141.043L380 142.626L378.154 141.043C376.336 139.486 373.601 139.696 372.043 141.513C370.486 143.33 370.696 146.066 372.513 147.624L380 154.041L387.487 147.624Z" fill="#757575"/>
<path d="M361.5 426.5C362.605 426.5 363.5 427.395 363.5 428.5V431.5C363.5 432.433 362.862 433.216 361.998 433.438C362 433.457 362 433.479 362 433.5V444.5C362 445.605 361.105 446.5 360 446.5H344C342.895 446.5 342 445.605 342 444.5V433.5L342.002 433.438C341.138 433.216 340.5 432.433 340.5 431.5V428.5C340.5 427.395 341.395 426.5 342.5 426.5H361.5ZM360 433.5H344V444.5H360V433.5ZM357 435.5V437.5H347V435.5H357ZM361.5 428.5H342.5V431.5H361.5V428.5Z" fill="#757575"/>
<path d="M837.996 515C834.738 515 834.33 515.014 833.05 515.072C831.773 515.13 830.901 515.333 830.138 515.63C829.349 515.936 828.68 516.347 828.013 517.013C827.347 517.68 826.936 518.349 826.63 519.138C826.333 519.901 826.13 520.773 826.072 522.05C826.014 523.33 826 523.738 826 526.996C826 530.254 826.014 530.663 826.072 531.942C826.13 533.219 826.333 534.091 826.63 534.854C826.936 535.643 827.347 536.312 828.013 536.979C828.68 537.646 829.349 538.056 830.138 538.363C830.901 538.659 831.773 538.862 833.05 538.92C834.33 538.979 834.738 538.992 837.996 538.992C841.254 538.992 841.663 538.979 842.942 538.92C844.219 538.862 845.091 538.659 845.854 538.363C846.643 538.056 847.312 537.646 847.979 536.979C848.646 536.312 849.056 535.643 849.363 534.854C849.659 534.091 849.862 533.219 849.92 531.942C849.979 530.663 849.992 530.254 849.992 526.996C849.992 523.738 849.979 523.33 849.92 522.05C849.862 520.773 849.659 519.901 849.363 519.138C849.056 518.349 848.646 517.68 847.979 517.013C847.312 516.347 846.643 515.936 845.854 515.63C845.091 515.333 844.219 515.13 842.942 515.072C841.663 515.014 841.254 515 837.996 515ZM842.844 517.231C844.013 517.285 844.649 517.48 845.071 517.644C845.631 517.862 846.031 518.122 846.451 518.542C846.87 518.962 847.13 519.361 847.348 519.921C847.512 520.344 847.708 520.979 847.761 522.149C847.811 523.245 847.827 523.676 847.83 525.857V528.136C847.827 530.316 847.811 530.747 847.761 531.844C847.708 533.013 847.512 533.649 847.348 534.071C847.13 534.631 846.87 535.031 846.451 535.451C846.031 535.87 845.631 536.13 845.071 536.348C844.649 536.512 844.013 536.708 842.844 536.761C841.748 536.811 841.316 536.827 839.136 536.83H836.857C834.676 536.827 834.245 536.811 833.149 536.761C831.979 536.708 831.344 536.512 830.921 536.348C830.361 536.13 829.962 535.87 829.542 535.451C829.122 535.031 828.862 534.631 828.644 534.071C828.48 533.649 828.285 533.013 828.231 531.844C828.179 530.705 828.164 530.284 828.162 527.876V526.116C828.164 523.708 828.179 523.287 828.231 522.149C828.285 520.979 828.48 520.344 828.644 519.921C828.862 519.361 829.122 518.962 829.542 518.542C829.962 518.122 830.361 517.862 830.921 517.644C831.344 517.48 831.979 517.285 833.149 517.231C834.287 517.179 834.708 517.164 837.116 517.162H838.876C841.284 517.164 841.705 517.179 842.844 517.231ZM837.996 520.836C834.594 520.836 831.836 523.594 831.836 526.996C831.836 530.398 834.594 533.156 837.996 533.156C841.398 533.156 844.156 530.398 844.156 526.996C844.156 523.594 841.398 520.836 837.996 520.836ZM837.996 522.997C840.205 522.997 841.995 524.788 841.995 526.996C841.995 529.205 840.205 530.995 837.996 530.995C835.788 530.995 833.997 529.205 833.997 526.996C833.997 524.788 835.788 522.997 837.996 522.997ZM844.4 519.153C843.605 519.153 842.96 519.798 842.96 520.593C842.96 521.388 843.605 522.032 844.4 522.032C845.195 522.032 845.839 521.388 845.839 520.593C845.839 519.798 845.195 519.153 844.4 519.153Z" fill="#757575"/>
<path d="M839.727 576.5C840.28 576.5 840.727 576.948 840.727 577.5C840.727 578.052 840.28 578.5 839.727 578.5H836.273C835.72 578.5 835.273 578.052 835.273 577.5C835.273 576.948 835.72 576.5 836.273 576.5H839.727ZM838 555C839.495 555 840.728 556.12 840.907 557.568C843.924 558.747 845.98 561.675 845.98 565.005V570.159C845.98 570.331 845.909 570.26 846.081 570.26C847.141 570.26 848 571.12 848 572.18V573.292C848 574.297 847.186 575.111 846.182 575.111H829.818C828.814 575.111 828 574.297 828 573.292V572.18C828 571.12 828.859 570.26 829.919 570.26C830.091 570.26 830.02 570.331 830.02 570.159V565.005C830.02 561.675 832.076 558.747 835.093 557.568C835.272 556.12 836.505 555 838 555Z" fill="#757575"/>
<path d="M836.5 625C841.747 625 846 629.253 846 634.5C846 636.763 845.209 638.841 843.888 640.473L849.707 646.293C850.098 646.683 850.098 647.317 849.707 647.707C849.317 648.098 848.683 648.098 848.293 647.707L842.473 641.888C840.841 643.209 838.763 644 836.5 644C831.253 644 827 639.747 827 634.5C827 629.253 831.253 625 836.5 625ZM836.5 627C832.358 627 829 630.358 829 634.5C829 638.642 832.358 642 836.5 642C840.642 642 844 638.642 844 634.5C844 630.358 840.642 627 836.5 627Z" fill="#757575"/>
<path d="M823.587 386.475C822.854 386.861 821.996 386.238 822.136 385.421L823.17 379.394L818.791 375.126C818.198 374.547 818.525 373.539 819.346 373.42L825.397 372.541L828.103 367.057C828.47 366.314 829.53 366.314 829.897 367.057L832.603 372.541L838.654 373.42C839.475 373.539 839.802 374.547 839.209 375.126L834.83 379.394L835.863 385.421C836.004 386.238 835.146 386.861 834.412 386.475L829 383.63L823.587 386.475ZM828.535 381.615C828.826 381.462 829.174 381.462 829.465 381.615L833.55 383.762L832.77 379.214C832.714 378.89 832.822 378.559 833.057 378.329L836.362 375.108L831.795 374.445C831.469 374.397 831.188 374.193 831.042 373.897L829 369.76L826.958 373.897C826.812 374.193 826.531 374.397 826.205 374.445L821.638 375.108L824.943 378.329C825.178 378.559 825.286 378.89 825.23 379.214L824.45 383.762L828.535 381.615Z" fill="#757575"/>
<path d="M812.483 217.684L809.009 236.21C808.887 236.863 808.173 237.218 807.579 236.921L802.048 234.155L798.312 237.891C797.682 238.521 796.605 238.075 796.605 237.184L796.605 232.388L810 218.853L795.281 230.771L789.053 227.657C788.289 227.275 788.325 226.173 789.112 225.841L811.112 216.578C811.846 216.269 812.63 216.901 812.483 217.684Z" fill="#757575"/>
<path d="M812.5 285.5V308.5H789.5V285.5H812.5ZM797.831 290.69H793.351V290.949L794.794 292.687C794.936 292.815 795.008 293.002 794.989 293.192V300.021C795.031 300.268 794.953 300.519 794.779 300.699L793.156 302.668V302.928H797.759V302.668L796.136 300.699C795.961 300.52 795.878 300.27 795.912 300.021V294.115L799.952 302.928H800.42L803.89 294.115V301.139C803.89 301.327 803.89 301.363 803.767 301.485L802.52 302.697V302.956H808.579V302.697L807.374 301.514C807.268 301.433 807.215 301.3 807.237 301.168V292.478C807.215 292.346 807.268 292.213 807.374 292.132L808.608 290.949V290.69H804.337L801.293 298.283L797.831 290.69Z" fill="#757575"/>
<path d="M838 74C843.247 74 847.5 78.2533 847.5 83.5C847.5 88.25 844.333 93.7917 838 100.125C831.667 93.7917 828.5 88.25 828.5 83.5C828.5 78.2533 832.753 74 838 74ZM838 76C833.858 76 830.5 79.3579 830.5 83.5C830.5 87.2695 832.96 91.8842 838 97.2524C843.04 91.8842 845.5 87.2695 845.5 83.5C845.5 79.3579 842.142 76 838 76ZM838 79.5C840.209 79.5 842 81.2909 842 83.5C842 85.7091 840.209 87.5 838 87.5C835.791 87.5 834 85.7091 834 83.5C834 81.2909 835.791 79.5 838 79.5ZM838 81.5C836.895 81.5 836 82.3954 836 83.5C836 84.6046 836.895 85.5 838 85.5C839.105 85.5 840 84.6046 840 83.5C840 82.3954 839.105 81.5 838 81.5Z" fill="#757575"/>
<path d="M308 597.6C308 598.152 307.552 598.6 307 598.6H301.95C301.398 598.6 300.95 598.152 300.95 597.6V587.1H298.5C297.584 587.1 297.15 585.97 297.831 585.357L309.331 575.007C309.711 574.664 310.289 574.664 310.669 575.007L322.169 585.357C322.85 585.97 322.417 587.1 321.5 587.1H319.05V597.6C319.05 598.152 318.602 598.6 318.05 598.6H313C312.448 598.6 312 598.152 312 597.6V590.55H308V597.6Z" fill="#757575"/>
<path d="M295 328C297.761 328 300 330.239 300 333C300 335.761 297.761 338 295 338C292.239 338 290 335.761 290 333C290 330.239 292.239 328 295 328ZM307 328C309.761 328 312 330.239 312 333C312 335.761 309.761 338 307 338C304.239 338 302 335.761 302 333C302 330.239 304.239 328 307 328ZM295 330C293.343 330 292 331.343 292 333C292 334.657 293.343 336 295 336C296.657 336 298 334.657 298 333C298 331.343 296.657 330 295 330ZM307 330C305.343 330 304 331.343 304 333C304 334.657 305.343 336 307 336C308.657 336 310 334.657 310 333C310 331.343 308.657 330 307 330ZM295 316C297.761 316 300 318.239 300 321C300 323.761 297.761 326 295 326C292.239 326 290 323.761 290 321C290 318.239 292.239 316 295 316ZM307 316C309.761 316 312 318.239 312 321C312 323.761 309.761 326 307 326C304.239 326 302 323.761 302 321C302 318.239 304.239 316 307 316ZM295 318C293.343 318 292 319.343 292 321C292 322.657 293.343 324 295 324C296.657 324 298 322.657 298 321C298 319.343 296.657 318 295 318ZM307 318C305.343 318 304 319.343 304 321C304 322.657 305.343 324 307 324C308.657 324 310 322.657 310 321C310 319.343 308.657 318 307 318Z" fill="#757575"/>
<path d="M282 182C282.552 182 283 182.448 283 183C283 183.552 282.552 184 282 184H264C263.448 184 263 183.552 263 183C263 182.448 263.448 182 264 182H282ZM282 176C282.552 176 283 176.448 283 177C283 177.552 282.552 178 282 178H264C263.448 178 263 177.552 263 177C263 176.448 263.448 176 264 176H282ZM282 170C282.552 170 283 170.448 283 171C283 171.552 282.552 172 282 172H264C263.448 172 263 171.552 263 171C263 170.448 263.448 170 264 170H282Z" fill="#757575"/>
<path d="M276.668 261.56C276.669 263.149 277.762 264.553 279.311 265.031C280.088 265.27 280.889 265.384 281.701 265.417C282.282 265.441 282.861 265.403 283.398 265.153C283.819 264.957 284.018 264.632 283.999 264.199C283.98 263.764 283.771 263.438 283.325 263.265C283.17 263.205 283.012 263.156 282.848 263.129C282.356 263.047 281.861 262.978 281.372 262.887C280.564 262.737 280.225 262.337 280.214 261.575C280.205 260.9 280.401 260.263 280.623 259.633C281.03 258.48 281.579 257.382 282.104 256.274C282.611 255.204 283.143 254.143 283.502 253.017C283.699 252.398 283.793 251.778 283.614 251.138C283.341 250.167 282.718 249.516 281.643 249.329C280.659 249.158 279.68 249.138 278.79 249.686C278.494 249.868 278.209 249.824 277.953 249.613C277.756 249.452 277.57 249.281 277.378 249.116C276.47 248.333 275.27 248.295 274.296 249.009C273.903 249.298 273.572 249.655 273.144 249.906C272.763 250.13 272.378 250.193 271.955 249.983C271.553 249.782 271.136 249.606 270.72 249.43C270.299 249.252 269.891 249.033 269.417 248.996C267.918 248.876 266.349 249.708 265.687 250.973C265.394 251.533 265.154 252.114 264.927 252.699C263.878 255.405 263.023 258.168 262.139 260.922C261.743 262.154 262.21 263.367 263.328 264.033C264.2 264.552 265.155 264.68 266.143 264.403C266.944 264.178 267.382 263.576 267.689 262.899C268.707 260.656 269.625 258.375 270.596 256.114C270.863 255.492 271.122 254.867 271.405 254.252C271.691 253.631 272.514 253.419 273.001 253.831C273.299 254.083 273.378 254.418 273.349 254.776C273.316 255.158 273.158 255.511 273.009 255.863C272.377 257.354 271.733 258.841 271.099 260.331C270.971 260.632 270.832 260.931 270.775 261.255C270.678 261.81 270.913 262.302 271.4 262.498C271.896 262.698 272.412 262.732 272.926 262.558C273.525 262.355 273.883 261.917 274.158 261.411C275.105 259.674 276.045 257.934 276.992 256.197C277.429 255.394 277.874 254.596 278.321 253.798C278.486 253.503 278.681 253.222 278.991 253.039C279.271 252.873 279.572 252.861 279.859 253.011C280.139 253.158 280.158 253.425 280.146 253.689C280.139 253.831 280.097 253.97 280.039 254.102C279.916 254.376 279.801 254.655 279.665 254.924C278.878 256.47 278.079 258.011 277.299 259.56C276.97 260.215 276.627 260.872 276.668 261.56Z" fill="#757575"/>
<path d="M301.5 44.5C302.881 44.5 304 45.6193 304 47C304 48.3807 302.881 49.5 301.5 49.5C300.119 49.5 299 48.3807 299 47C299 45.6193 300.119 44.5 301.5 44.5ZM310 44.5C311.381 44.5 312.5 45.6193 312.5 47C312.5 48.3807 311.381 49.5 310 49.5C308.619 49.5 307.5 48.3807 307.5 47C307.5 45.6193 308.619 44.5 310 44.5ZM318.5 44.5C319.881 44.5 321 45.6193 321 47C321 48.3807 319.881 49.5 318.5 49.5C317.119 49.5 316 48.3807 316 47C316 45.6193 317.119 44.5 318.5 44.5Z" fill="#757575"/>
<path d="M303.919 128.321C302.506 128.963 300.932 127.821 301.103 126.279L301.441 123.243C299.572 121.32 298.5 118.811 298.5 116.136C298.5 110.217 303.689 105.5 310 105.5C316.311 105.5 321.5 110.217 321.5 116.136C321.5 122.055 316.311 126.773 310 126.773C309.244 126.773 308.497 126.705 307.766 126.572L303.919 128.321Z" fill="#757575"/>
<path d="M284 417.5C284.552 417.5 285 417.948 285 418.5C285 419.052 284.552 419.5 284 419.5H280C279.448 419.5 279 419.052 279 418.5C279 417.948 279.448 417.5 280 417.5H284ZM282 394C283.644 394 285.001 395.232 285.198 396.823C288.517 398.12 290.778 401.339 290.778 405V410.667C290.778 410.855 290.7 410.778 290.889 410.778C292.055 410.778 293 411.723 293 412.889V414.111C293 415.216 292.105 416.111 291 416.111H273C271.895 416.111 271 415.216 271 414.111V412.889C271 411.723 271.945 410.778 273.111 410.778C273.3 410.778 273.222 410.855 273.222 410.667V405C273.222 401.339 275.483 398.12 278.802 396.823C278.999 395.232 280.356 394 282 394ZM282 396C281.325 396 280.778 396.547 280.778 397.222V398.29L280.063 398.503C277.214 399.351 275.222 401.981 275.222 405V410.667C275.222 411.96 274.404 412.778 273.111 412.778C273.05 412.778 273 412.828 273 412.889V414.111H291V412.889C291 412.828 290.95 412.778 290.889 412.778C289.596 412.778 288.778 411.96 288.778 410.667V405C288.778 401.981 286.786 399.351 283.937 398.503L283.222 398.29V397.222C283.222 396.547 282.675 396 282 396Z" fill="#757575"/>
<g clip-path="url(#clip1)">
<path d="M280.081 468.531L272.178 466.555C271.226 466.317 271.151 464.993 272.07 464.648L289.04 458.284C289.844 457.983 290.629 458.768 290.328 459.572L283.964 476.542C283.619 477.461 282.295 477.386 282.057 476.434L280.081 468.531ZM275.779 465.393L281.149 466.736C281.507 466.825 281.787 467.105 281.876 467.463L283.219 472.833L287.683 460.929L275.779 465.393Z" fill="#757575"/>
</g>
<path d="M774 536C775.105 536 776 536.895 776 538V557C776 557.87 774.967 558.325 774.325 557.738L768 551.954L761.675 557.738C761.033 558.325 760 557.87 760 557V538C760 536.895 760.895 536 762 536H774ZM768 540L767.883 540.007C767.386 540.064 767 540.487 767 541V543H765L764.883 543.007C764.386 543.064 764 543.487 764 544L764.007 544.117C764.064 544.614 764.487 545 765 545H767V547L767.007 547.117C767.064 547.614 767.487 548 768 548L768.117 547.993C768.614 547.936 769 547.513 769 547V545H771L771.117 544.993C771.614 544.936 772 544.513 772 544L771.993 543.883C771.936 543.386 771.513 543 771 543H769V541L768.993 540.883C768.936 540.386 768.513 540 768 540Z" fill="#757575"/>
<path d="M769 608C769.552 608 770 608.448 770 609C770 609.552 769.552 610 769 610H768C767.448 610 767 609.552 767 609C767 608.448 767.448 608 768 608H769ZM771 605C771.552 605 772 605.448 772 606C772 606.552 771.552 607 771 607H766C765.448 607 765 606.552 765 606C765 605.448 765.448 605 766 605H771ZM768.518 584C773.196 584 777 587.701 777 592.28C777 594.927 776.356 596.28 774.68 598.177C774.556 598.316 774.487 598.395 774.435 598.454C773.96 598.992 773.686 599.336 773.43 599.739C773.059 600.319 772.871 601.294 772.913 602.66C772.935 603.377 772.372 603.977 771.654 603.999C771.634 604 771.634 604 771.614 604H765.386C764.668 604 764.086 603.418 764.086 602.7L764.087 602.66C764.128 601.294 763.941 600.319 763.57 599.739C763.314 599.337 763.04 598.993 762.567 598.456C762.514 598.396 762.444 598.317 762.32 598.177C760.644 596.281 760 594.927 760 592.28C760 587.701 763.804 584 768.482 584H768.518ZM768.523 588.414C768.348 587.89 767.782 587.607 767.258 587.782C765.031 588.525 763.5 590.615 763.5 593C763.5 593.552 763.948 594 764.5 594C765.052 594 765.5 593.552 765.5 593C765.5 591.482 766.475 590.152 767.891 589.679C768.415 589.504 768.698 588.938 768.523 588.414Z" fill="#757575"/>
<path d="M754.167 347.641C763.978 347.641 769.347 339.505 769.347 332.462C769.347 332.233 769.347 332.004 769.337 331.775C770.377 331.026 771.282 330.079 772 329.007C771.043 329.434 770.013 329.715 768.931 329.85C770.034 329.195 770.876 328.144 771.282 326.895C770.252 327.509 769.108 327.946 767.89 328.185C766.912 327.145 765.529 326.5 763.999 326.5C761.055 326.5 758.662 328.893 758.662 331.837C758.662 332.254 758.714 332.659 758.797 333.055C754.365 332.836 750.432 330.703 747.8 327.478C747.342 328.269 747.082 329.184 747.082 330.162C747.082 332.014 748.029 333.648 749.454 334.605C748.58 334.574 747.758 334.334 747.04 333.939C747.04 333.96 747.04 333.981 747.04 334.012C747.04 336.592 748.882 338.756 751.317 339.245C750.869 339.37 750.401 339.432 749.912 339.432C749.569 339.432 749.236 339.401 748.913 339.339C749.589 341.461 751.566 343.001 753.897 343.043C752.066 344.478 749.766 345.332 747.269 345.332C746.843 345.332 746.416 345.311 746 345.259C748.351 346.757 751.16 347.641 754.167 347.641Z" fill="#757575"/>
<path d="M731 176C737.075 176 742 180.925 742 187C742 193.075 737.075 198 731 198C724.925 198 720 193.075 720 187C720 180.925 724.925 176 731 176ZM722 187C722 191.971 726.029 196 731 196C733.106 196 735.043 195.277 736.577 194.065L723.966 181.385C722.736 182.924 722 184.876 722 187ZM731 178C728.874 178 726.921 178.737 725.381 179.969L738 192.657C739.251 191.112 740 189.143 740 187C740 182.029 735.971 178 731 178Z" fill="#757575"/>
<path d="M731 256C737.075 256 742 260.925 742 267C742 273.075 737.075 278 731 278C724.925 278 720 273.075 720 267C720 260.925 724.925 256 731 256ZM736.151 262.741C735.731 262.381 735.1 262.43 734.741 262.849L729.444 269.029L727.207 266.793C726.817 266.402 726.183 266.402 725.793 266.793C725.402 267.183 725.402 267.817 725.793 268.207L728.793 271.207C729.205 271.619 729.88 271.593 730.259 271.151L736.259 264.151C736.619 263.731 736.57 263.1 736.151 262.741Z" fill="#757575"/>
<path d="M768 46C774.075 46 779 50.9249 779 57C779 63.0751 774.075 68 768 68C761.925 68 757 63.0751 757 57C757 50.9249 761.925 46 768 46ZM768 48C763.029 48 759 52.0294 759 57C759 61.9706 763.029 66 768 66C772.971 66 777 61.9706 777 57C777 52.0294 772.971 48 768 48ZM773.151 52.7407C773.57 53.1002 773.619 53.7315 773.259 54.1508L767.259 61.1508C766.88 61.5931 766.205 61.619 765.793 61.2071L762.793 58.2071C762.402 57.8166 762.402 57.1834 762.793 56.7929C763.183 56.4024 763.817 56.4024 764.207 56.7929L766.444 59.0293L771.741 52.8492C772.1 52.4299 772.731 52.3813 773.151 52.7407Z" fill="#757575"/>
<path d="M768 116C774.075 116 779 120.925 779 127C779 133.075 774.075 138 768 138C761.925 138 757 133.075 757 127C757 120.925 761.925 116 768 116ZM765.525 123.111C765.135 122.72 764.501 122.72 764.111 123.111C763.72 123.501 763.72 124.135 764.111 124.525L766.586 127L764.111 129.475C763.72 129.865 763.72 130.499 764.111 130.889C764.501 131.28 765.135 131.28 765.525 130.889L768 128.414L770.475 130.889C770.865 131.28 771.499 131.28 771.889 130.889C772.28 130.499 772.28 129.865 771.889 129.475L769.414 127L771.889 124.525C772.28 124.135 772.28 123.501 771.889 123.111C771.499 122.72 770.865 122.72 770.475 123.111L768 125.586L765.525 123.111Z" fill="#757575"/>
<path d="M740 426C744.971 426 749 421.971 749 417C749 412.029 744.971 408 740 408C735.029 408 731 412.029 731 417C731 421.971 735.029 426 740 426ZM740 406C746.075 406 751 410.925 751 417C751 423.075 746.075 428 740 428C733.925 428 729 423.075 729 417C729 410.925 733.925 406 740 406ZM737.525 413.111C737.135 412.72 736.501 412.72 736.111 413.111C735.72 413.501 735.72 414.135 736.111 414.525L738.586 417L736.111 419.475C735.72 419.865 735.72 420.499 736.111 420.889C736.501 421.28 737.135 421.28 737.525 420.889L740 418.414L742.475 420.889C742.865 421.28 743.499 421.28 743.889 420.889C744.28 420.499 744.28 419.865 743.889 419.475L741.414 417L743.889 414.525C744.28 414.135 744.28 413.501 743.889 413.111C743.499 412.72 742.865 412.72 742.475 413.111L740 415.586L737.525 413.111Z" fill="#757575"/>
<path d="M740 466C746.075 466 751 470.925 751 477C751 483.075 746.075 488 740 488C733.925 488 729 483.075 729 477C729 470.925 733.925 466 740 466ZM744.5 476H735.5C734.948 476 734.5 476.448 734.5 477C734.5 477.552 734.948 478 735.5 478H744.5C745.052 478 745.5 477.552 745.5 477C745.5 476.448 745.052 476 744.5 476Z" fill="#757575"/>
<path d="M740 516C744.971 516 749 511.971 749 507C749 502.029 744.971 498 740 498C735.029 498 731 502.029 731 507C731 511.971 735.029 516 740 516ZM740 518C733.925 518 729 513.075 729 507C729 500.925 733.925 496 740 496C746.075 496 751 500.925 751 507C751 513.075 746.075 518 740 518ZM735.5 508C734.948 508 734.5 507.552 734.5 507C734.5 506.448 734.948 506 735.5 506H744.5C745.052 506 745.5 506.448 745.5 507C745.5 507.552 745.052 508 744.5 508H735.5Z" fill="#757575"/>
<path d="M240 596C246.075 596 251 600.925 251 607C251 613.075 246.075 618 240 618C233.925 618 229 613.075 229 607C229 600.925 233.925 596 240 596ZM240.056 610.216C239.256 610.216 238.6 610.824 238.6 611.608C238.6 612.376 239.256 612.984 240.056 612.984C240.856 612.984 241.512 612.376 241.512 611.608C241.512 610.824 240.856 610.216 240.056 610.216ZM241.368 601.4H238.776L239.128 608.4H241.016L241.368 601.4Z" fill="#757575"/>
<path d="M231 336C237.075 336 242 340.925 242 347C242 353.075 237.075 358 231 358C224.925 358 220 353.075 220 347C220 340.925 224.925 336 231 336ZM231 341.5C230.448 341.5 230 341.948 230 342.5V346H226.5C225.948 346 225.5 346.448 225.5 347C225.5 347.552 225.948 348 226.5 348H230V351.5C230 352.052 230.448 352.5 231 352.5C231.552 352.5 232 352.052 232 351.5V348H235.5C236.052 348 236.5 347.552 236.5 347C236.5 346.448 236.052 346 235.5 346H232V342.5C232 341.948 231.552 341.5 231 341.5Z" fill="#757575"/>
<path d="M203 186C209.075 186 214 190.925 214 197C214 203.075 209.075 208 203 208C196.925 208 192 203.075 192 197C192 190.925 196.925 186 203 186ZM203 188C198.029 188 194 192.029 194 197C194 201.971 198.029 206 203 206C207.971 206 212 201.971 212 197C212 192.029 207.971 188 203 188ZM203.056 200.216C203.856 200.216 204.512 200.824 204.512 201.608C204.512 202.376 203.856 202.984 203.056 202.984C202.256 202.984 201.6 202.376 201.6 201.608C201.6 200.824 202.256 200.216 203.056 200.216ZM204.368 191.4L204.016 198.4H202.128L201.776 191.4H204.368Z" fill="#757575"/>
<path d="M203 286C207.971 286 212 281.971 212 277C212 272.029 207.971 268 203 268C198.029 268 194 272.029 194 277C194 281.971 198.029 286 203 286ZM203 266C209.075 266 214 270.925 214 277C214 283.075 209.075 288 203 288C196.925 288 192 283.075 192 277C192 270.925 196.925 266 203 266ZM203 271.5C202.448 271.5 202 271.948 202 272.5V276H198.5C197.948 276 197.5 276.448 197.5 277C197.5 277.552 197.948 278 198.5 278H202V281.5C202 282.052 202.448 282.5 203 282.5C203.552 282.5 204 282.052 204 281.5V278H207.5C208.052 278 208.5 277.552 208.5 277C208.5 276.448 208.052 276 207.5 276H204V272.5C204 271.948 203.552 271.5 203 271.5Z" fill="#757575"/>
<path d="M231.293 58.2929C231.683 57.9024 232.317 57.9024 232.707 58.2929L240 65.585L247.293 58.2929C247.683 57.9024 248.317 57.9024 248.707 58.2929C249.098 58.6834 249.098 59.3166 248.707 59.7071L241.415 67L248.707 74.2929C249.068 74.6534 249.095 75.2206 248.79 75.6129L248.707 75.7071C248.317 76.0976 247.683 76.0976 247.293 75.7071L240 68.415L232.707 75.7071C232.317 76.0976 231.683 76.0976 231.293 75.7071C230.902 75.3166 230.902 74.6834 231.293 74.2929L238.585 67L231.293 59.7071C230.932 59.3466 230.905 58.7794 231.21 58.3871L231.293 58.2929Z" fill="#757575"/>
<path d="M239.293 145.707C238.902 145.317 238.902 144.683 239.293 144.293L245.586 138H232C231.448 138 231 137.552 231 137C231 136.448 231.448 136 232 136H245.586L239.293 129.707C238.902 129.317 238.902 128.683 239.293 128.293C239.683 127.902 240.317 127.902 240.707 128.293L248.707 136.293L248.78 136.375C248.783 136.377 248.785 136.38 248.787 136.383L248.707 136.293C248.743 136.328 248.775 136.366 248.804 136.405C248.822 136.429 248.838 136.454 248.854 136.479C248.861 136.491 248.869 136.504 248.875 136.516C248.886 136.536 248.897 136.556 248.906 136.577C248.914 136.594 248.922 136.611 248.929 136.629C248.937 136.648 248.944 136.668 248.95 136.688C248.955 136.703 248.96 136.719 248.964 136.734C248.97 136.756 248.975 136.777 248.98 136.799C248.983 136.817 248.986 136.834 248.989 136.852C248.992 136.871 248.994 136.89 248.996 136.91C248.998 136.934 248.999 136.957 249 136.981C249 136.987 249 136.994 249 137L249 137.018C248.999 137.042 248.998 137.066 248.996 137.089L249 137C249 137.051 248.996 137.1 248.989 137.149C248.986 137.166 248.983 137.183 248.98 137.201C248.975 137.223 248.97 137.244 248.964 137.266C248.96 137.281 248.955 137.297 248.95 137.312C248.944 137.332 248.937 137.352 248.929 137.371C248.922 137.389 248.914 137.406 248.906 137.423C248.897 137.444 248.886 137.464 248.875 137.484C248.869 137.496 248.861 137.509 248.854 137.521C248.838 137.546 248.822 137.571 248.804 137.595C248.798 137.603 248.793 137.61 248.787 137.617C248.762 137.648 248.736 137.679 248.707 137.707L240.707 145.707C240.317 146.098 239.683 146.098 239.293 145.707Z" fill="#757575"/>
<path d="M203 428.248C202.448 428.248 202 427.8 202 427.248C202 426.696 202.448 426.248 203 426.248H221C221.552 426.248 222 426.696 222 427.248C222 427.8 221.552 428.248 221 428.248H203Z" fill="#757575"/>
<path d="M203.293 486.293C203.683 485.902 204.317 485.902 204.707 486.293L211 492.586V479C211 478.448 211.448 478 212 478C212.552 478 213 478.448 213 479V492.586L219.293 486.293C219.683 485.902 220.317 485.902 220.707 486.293C221.098 486.683 221.098 487.317 220.707 487.707L212.707 495.707L212.625 495.78C212.623 495.783 212.62 495.785 212.617 495.787L212.707 495.707C212.672 495.743 212.634 495.775 212.595 495.804C212.571 495.822 212.546 495.838 212.521 495.854C212.509 495.861 212.496 495.869 212.484 495.875C212.464 495.886 212.444 495.897 212.423 495.906C212.406 495.914 212.389 495.922 212.371 495.929C212.352 495.937 212.332 495.944 212.312 495.95C212.297 495.955 212.281 495.96 212.266 495.964C212.244 495.97 212.223 495.975 212.201 495.98C212.183 495.983 212.166 495.986 212.148 495.989C212.129 495.992 212.11 495.994 212.09 495.996C212.066 495.998 212.043 495.999 212.019 496C212.013 496 212.006 496 212 496L211.982 496C211.958 495.999 211.934 495.998 211.911 495.996L212 496C211.949 496 211.9 495.996 211.851 495.989C211.834 495.986 211.817 495.983 211.799 495.98C211.777 495.975 211.756 495.97 211.734 495.964C211.719 495.96 211.703 495.955 211.688 495.95C211.668 495.944 211.648 495.937 211.629 495.929C211.611 495.922 211.594 495.914 211.577 495.906C211.556 495.897 211.536 495.886 211.516 495.875C211.504 495.869 211.491 495.861 211.479 495.854C211.454 495.838 211.429 495.822 211.405 495.804C211.397 495.798 211.39 495.793 211.383 495.787C211.352 495.762 211.321 495.736 211.293 495.707L203.293 487.707C202.902 487.317 202.902 486.683 203.293 486.293Z" fill="#757575"/>
<path d="M707.244 549.345C707.606 548.928 708.238 548.883 708.655 549.244C709.072 549.606 709.117 550.238 708.756 550.655L695.756 565.655C695.376 566.094 694.703 566.117 694.293 565.707L687.293 558.707C686.902 558.317 686.902 557.683 687.293 557.293C687.683 556.902 688.317 556.902 688.707 557.293L694.948 563.533L707.244 549.345Z" fill="#757575"/>
<path d="M698.707 608.293C699.098 608.683 699.098 609.317 698.707 609.707L692.414 616H706C706.552 616 707 616.448 707 617C707 617.552 706.552 618 706 618H692.414L698.707 624.293C699.098 624.683 699.098 625.317 698.707 625.707C698.317 626.098 697.683 626.098 697.293 625.707L689.293 617.707L689.22 617.625C689.217 617.623 689.215 617.62 689.213 617.617L689.293 617.707C689.257 617.672 689.225 617.634 689.196 617.595C689.178 617.571 689.162 617.546 689.146 617.521C689.139 617.509 689.131 617.496 689.125 617.484C689.114 617.464 689.103 617.444 689.094 617.423C689.086 617.406 689.078 617.389 689.071 617.371C689.063 617.352 689.056 617.332 689.05 617.312C689.045 617.297 689.04 617.281 689.036 617.266C689.03 617.244 689.025 617.223 689.02 617.201C689.017 617.183 689.014 617.166 689.011 617.148C689.008 617.129 689.006 617.11 689.004 617.09C689.002 617.066 689.001 617.043 689 617.019C689 617.013 689 617.006 689 617L689 616.982C689.001 616.958 689.002 616.934 689.004 616.911L689 617C689 616.949 689.004 616.9 689.011 616.851C689.014 616.834 689.017 616.817 689.02 616.799C689.025 616.777 689.03 616.756 689.036 616.734C689.04 616.719 689.045 616.703 689.05 616.688C689.056 616.668 689.063 616.648 689.071 616.629C689.078 616.611 689.086 616.594 689.094 616.577C689.103 616.556 689.114 616.536 689.125 616.516C689.131 616.504 689.139 616.491 689.146 616.479C689.162 616.454 689.178 616.429 689.196 616.405C689.202 616.397 689.207 616.39 689.213 616.383C689.238 616.352 689.264 616.321 689.293 616.293L697.293 608.293C697.683 607.902 698.317 607.902 698.707 608.293Z" fill="#757575"/>
<path d="M689 347C689.552 347 690 347.448 690 348V356.248L698 356.248C698.552 356.248 699 356.696 699 357.248C699 357.801 698.552 358.248 698 358.248L690 358.248V366C690 366.552 689.552 367 689 367C688.448 367 688 366.552 688 366V358.248L680 358.248C679.448 358.248 679 357.801 679 357.248C679 356.696 679.448 356.248 680 356.248L688 356.248V348C688 347.448 688.448 347 689 347Z" fill="#757575"/>
<path d="M669.707 207.707C669.317 208.098 668.683 208.098 668.293 207.707L662 201.414V215C662 215.552 661.552 216 661 216C660.448 216 660 215.552 660 215V201.414L653.707 207.707C653.317 208.098 652.683 208.098 652.293 207.707C651.902 207.317 651.902 206.683 652.293 206.293L660.293 198.293L660.375 198.22C660.377 198.217 660.38 198.215 660.383 198.213L660.293 198.293C660.328 198.257 660.366 198.225 660.405 198.196C660.429 198.178 660.454 198.162 660.479 198.146C660.491 198.139 660.504 198.131 660.516 198.125C660.536 198.114 660.556 198.103 660.577 198.094C660.594 198.086 660.611 198.078 660.629 198.071C660.648 198.063 660.668 198.056 660.688 198.05C660.703 198.045 660.719 198.04 660.734 198.036C660.756 198.03 660.777 198.025 660.799 198.02C660.817 198.017 660.834 198.014 660.852 198.011C660.871 198.008 660.89 198.006 660.91 198.004C660.934 198.002 660.957 198.001 660.981 198C660.987 198 660.994 198 661 198L661.018 198C661.042 198.001 661.066 198.002 661.089 198.004L661 198C661.051 198 661.1 198.004 661.149 198.011C661.166 198.014 661.183 198.017 661.201 198.02C661.223 198.025 661.244 198.03 661.266 198.036C661.281 198.04 661.297 198.045 661.312 198.05C661.332 198.056 661.352 198.063 661.371 198.071C661.389 198.078 661.406 198.086 661.423 198.094C661.444 198.103 661.464 198.114 661.484 198.125C661.496 198.131 661.509 198.139 661.521 198.146C661.546 198.162 661.571 198.178 661.595 198.196C661.603 198.202 661.61 198.207 661.617 198.213C661.648 198.238 661.679 198.264 661.707 198.293L669.707 206.293C670.098 206.683 670.098 207.317 669.707 207.707Z" fill="#757575"/>
<path d="M656 245C659.866 245 663 248.134 663 252C663 255.866 659.866 259 656 259C652.134 259 649 255.866 649 252C649 248.134 652.134 245 656 245ZM660.73 249.316C660.352 248.913 659.719 248.893 659.316 249.27L654.667 253.629L652.684 251.77C652.281 251.393 651.648 251.413 651.27 251.816C650.893 252.219 650.913 252.852 651.316 253.23L653.983 255.73C654.367 256.09 654.966 256.09 655.351 255.73L660.684 250.73C661.087 250.352 661.107 249.719 660.73 249.316Z" fill="#757575"/>
<path d="M693 35C696.866 35 700 38.134 700 42C700 45.866 696.866 49 693 49C689.134 49 686 45.866 686 42C686 38.134 689.134 35 693 35ZM691.586 39.1716C691.195 38.781 690.562 38.781 690.172 39.1716C689.781 39.5621 689.781 40.1953 690.172 40.5858L691.586 42L690.172 43.4142C689.781 43.8047 689.781 44.4379 690.172 44.8284C690.562 45.219 691.195 45.219 691.586 44.8284L693 43.4142L694.414 44.8284C694.805 45.219 695.438 45.219 695.828 44.8284C696.219 44.4379 696.219 43.8047 695.828 43.4142L694.414 42L695.828 40.5858C696.219 40.1953 696.219 39.5621 695.828 39.1716C695.438 38.781 694.805 38.781 694.414 39.1716L693 40.5858L691.586 39.1716Z" fill="#757575"/>
<path d="M691.026 114.511L697.77 107.316C698.148 106.913 698.781 106.893 699.184 107.27C699.587 107.648 699.607 108.281 699.23 108.684L691.73 116.684C691.325 117.115 690.637 117.103 690.247 116.659L686.747 112.659C686.384 112.243 686.426 111.611 686.842 111.247C687.257 110.884 687.889 110.926 688.253 111.341L691.026 114.511Z" fill="#757575"/>
<path d="M691.667 148.75H687.75V141.25H685.5L693 134.5L700.5 141.25H698.25V148.75H694.333V144H691.667V148.75Z" fill="#757575"/>
<path d="M663 394C666.314 394 669 396.686 669 400C669 401.295 668.589 402.495 667.891 403.476L672.414 408L671 409.414L666.476 404.891C665.495 405.589 664.295 406 663 406C659.686 406 657 403.314 657 400C657 396.686 659.686 394 663 394ZM663 396C660.791 396 659 397.791 659 400C659 402.209 660.791 404 663 404C665.209 404 667 402.209 667 400C667 397.791 665.209 396 663 396Z" fill="#757575"/>
<path d="M661 463C662.657 463 664 464.343 664 466C664 467.657 662.657 469 661 469C659.343 469 658 467.657 658 466C658 464.343 659.343 463 661 463ZM669 463C670.657 463 672 464.343 672 466C672 467.657 670.657 469 669 469C667.343 469 666 467.657 666 466C666 464.343 667.343 463 669 463ZM661 455C662.657 455 664 456.343 664 458C664 459.657 662.657 461 661 461C659.343 461 658 459.657 658 458C658 456.343 659.343 455 661 455ZM669 455C670.657 455 672 456.343 672 458C672 459.657 670.657 461 669 461C667.343 461 666 459.657 666 458C666 456.343 667.343 455 669 455Z" fill="#757575"/>
<path d="M664.994 504C667.861 504 670.405 505.375 672 507.5V508.5C672 508.776 671.776 509 671.5 509H658.5C658.224 509 658 508.776 658 508.5V507.485C659.596 505.369 662.135 504 664.994 504ZM664.997 495C667.207 495 668.997 496.791 668.997 499C668.997 501.209 667.207 503 664.997 503C662.788 503 660.997 501.209 660.997 499C660.997 496.791 662.788 495 664.997 495Z" fill="#757575"/>
<path d="M665 505C668.866 505 672 508.134 672 512C672 515.866 668.866 519 665 519C661.134 519 658 515.866 658 512C658 508.134 661.134 505 665 505ZM665 508C664.448 508 664 508.448 664 509V511H662C661.448 511 661 511.448 661 512C661 512.552 661.448 513 662 513H664V515C664 515.552 664.448 516 665 516C665.552 516 666 515.552 666 515V513H668C668.552 513 669 512.552 669 512C669 511.448 668.552 511 668 511H666V509C666 508.448 665.552 508 665 508Z" fill="#757575"/>
<g clip-path="url(#clip2)">
<path d="M151.95 537.05C152.34 537.441 152.34 538.074 151.95 538.465L148.414 542L151.95 545.536C152.34 545.926 152.34 546.559 151.95 546.95C151.559 547.34 150.926 547.34 150.536 546.95L147 543.414L143.464 546.95C143.074 547.34 142.441 547.34 142.05 546.95C141.66 546.559 141.66 545.926 142.05 545.536L145.586 542L142.05 538.465C141.66 538.074 141.66 537.441 142.05 537.05C142.441 536.66 143.074 536.66 143.464 537.05L147 540.586L150.536 537.05C150.926 536.66 151.559 536.66 151.95 537.05Z" fill="#757575"/>
</g>
<path d="M166 587.5C166.552 587.5 167 587.948 167 588.5C167 589.052 166.552 589.5 166 589.5H164C163.448 589.5 163 589.052 163 588.5C163 587.948 163.448 587.5 164 587.5H166ZM165 575C165.693 575 166.263 575.529 166.327 576.205L166.333 576.333L166.334 576.527C168.192 577.08 169.566 578.76 169.661 580.775L169.667 581V583.667C169.667 584.071 169.85 584.291 170.218 584.328L170.333 584.333L170.432 584.341C170.721 584.383 170.95 584.612 170.993 584.901L171 585V585.333C171 585.846 170.614 586.269 170.117 586.327L170 586.333H160C159.487 586.333 159.064 585.947 159.007 585.45L159 585.333V585C159 584.665 159.247 584.388 159.568 584.341L159.667 584.333L159.782 584.328C160.113 584.295 160.295 584.113 160.328 583.782L160.333 583.667V581C160.333 578.886 161.739 577.101 163.666 576.527L163.667 576.333L163.673 576.205C163.737 575.529 164.307 575 165 575Z" fill="#757575"/>
<path d="M149 320C150.105 320 151 320.895 151 322C151 323.105 150.105 324 149 324C147.895 324 147 323.105 147 322C147 320.895 147.895 320 149 320ZM156 320C157.105 320 158 320.895 158 322C158 323.105 157.105 324 156 324C154.895 324 154 323.105 154 322C154 320.895 154.895 320 156 320ZM163 320C164.105 320 165 320.895 165 322C165 323.105 164.105 324 163 324C161.895 324 161 323.105 161 322C161 320.895 161.895 320 163 320Z" fill="#757575"/>
<path d="M161 405C161.552 405 162 405.448 162 406C162 406.552 161.552 407 161 407H151C150.448 407 150 406.552 150 406C150 405.448 150.448 405 151 405H161ZM161 401C161.552 401 162 401.448 162 402C162 402.552 161.552 403 161 403H151C150.448 403 150 402.552 150 402C150 401.448 150.448 401 151 401H161ZM161 397C161.552 397 162 397.448 162 398C162 398.552 161.552 399 161 399H151C150.448 399 150 398.552 150 398C150 397.448 150.448 397 151 397H161Z" fill="#757575"/>
<path d="M130.996 215C132.958 215 134.709 215.992 135.854 217.544L136 217.75V218.429C136 218.674 135.823 218.878 135.59 218.921L135.5 218.929H126.5C126.255 218.929 126.05 218.752 126.008 218.518L126 218.429V217.738C127.14 216.075 128.953 215 130.996 215ZM124.996 212C125.803 212 126.574 212.168 127.282 212.474C127.59 213.255 128.138 213.915 128.835 214.364C127.885 214.69 127.014 215.227 126.264 215.928L120.5 215.929C120.255 215.929 120.05 215.752 120.008 215.518L120 215.429V214.738C121.14 213.075 122.953 212 124.996 212ZM131 208C132.657 208 134 209.343 134 211C134 212.657 132.657 214 131 214C129.343 214 128 212.657 128 211C128 209.343 129.343 208 131 208ZM125 205C126.657 205 128 206.343 128 208C128 208.13 127.992 208.258 127.976 208.384C127.544 208.88 127.235 209.484 127.091 210.149C126.552 210.676 125.814 211 125 211C123.343 211 122 209.657 122 208C122 206.343 123.343 205 125 205Z" fill="#757575"/>
<path d="M128 245C131.866 245 135 248.134 135 252C135 255.866 131.866 259 128 259C124.134 259 121 255.866 121 252C121 248.134 124.134 245 128 245ZM131 251H125C124.448 251 124 251.448 124 252C124 252.552 124.448 253 125 253H131C131.552 253 132 252.552 132 252C132 251.448 131.552 251 131 251Z" fill="#757575"/>
<path d="M165 36C165.552 36 166 36.4477 166 37V41H170C170.552 41 171 41.4477 171 42C171 42.5523 170.552 43 170 43H166V47C166 47.5523 165.552 48 165 48C164.448 48 164 47.5523 164 47V43H160C159.448 43 159 42.5523 159 42C159 41.4477 159.448 41 160 41H164V37C164 36.4477 164.448 36 165 36Z" fill="#757575"/>
<path d="M166 117.5C166.552 117.5 167 117.948 167 118.5C167 119.052 166.552 119.5 166 119.5H164C163.448 119.5 163 119.052 163 118.5C163 117.948 163.448 117.5 164 117.5H166ZM171.849 104.707C172.21 105.067 172.237 105.635 171.932 106.027L171.849 106.121L159.121 118.849C158.731 119.24 158.097 119.24 157.707 118.849C157.346 118.489 157.319 117.921 157.624 117.529L157.707 117.435L170.435 104.707C170.825 104.316 171.459 104.316 171.849 104.707ZM169.526 109.86C169.595 110.134 169.64 110.417 169.657 110.707L169.667 111V113.667C169.667 114.071 169.85 114.291 170.217 114.328L170.333 114.333L170.432 114.34C170.721 114.383 170.95 114.612 170.993 114.901L171 115V115.333C171 115.846 170.614 116.269 170.116 116.326L170 116.333L163.051 116.333L169.526 109.86ZM165 105C165.693 105 166.262 105.529 166.327 106.205L166.333 106.333L166.334 106.527C166.55 106.591 166.76 106.671 166.963 106.765L160.333 113.394L160.333 111C160.333 108.886 161.739 107.1 163.666 106.527L163.667 106.333L163.673 106.205C163.737 105.529 164.307 105 165 105Z" fill="#757575"/>
<path d="M160 128V134C160 135.657 161.343 137 163 137H169C169 138.105 168.105 139 167 139H160C158.895 139 158 138.105 158 137V130C158 128.895 158.895 128 160 128ZM170 125C171.105 125 172 125.895 172 127V134C172 135.105 171.105 136 170 136H163C161.895 136 161 135.105 161 134V127C161 125.895 161.895 125 163 125H170Z" fill="#757575"/>
<path d="M136 405C136.552 405 137 405.448 137 406C137 406.552 136.552 407 136 407H132C131.448 407 131 406.552 131 406C131 405.448 131.448 405 132 405H136ZM139 401C139.552 401 140 401.448 140 402C140 402.552 139.552 403 139 403H132C131.448 403 131 402.552 131 402C131 401.448 131.448 401 132 401H139ZM142 397C142.552 397 143 397.448 143 398C143 398.552 142.552 399 142 399H132C131.448 399 131 398.552 131 398C131 397.448 131.448 397 132 397H142Z" fill="#757575"/>
<path d="M137 455.25C139.071 455.25 140.75 456.929 140.75 459V460.5H141C142.105 460.5 143 461.395 143 462.5V466.5C143 467.605 142.105 468.5 141 468.5H133C131.895 468.5 131 467.605 131 466.5V462.5C131 461.395 131.895 460.5 133 460.5H133.25V459C133.25 456.929 134.929 455.25 137 455.25ZM137 456.75C135.757 456.75 134.75 457.757 134.75 459V460.5H139.25V459C139.25 457.757 138.243 456.75 137 456.75Z" fill="#757575"/>
<path d="M137 485C140.866 485 144 488.134 144 492C144 495.866 140.866 499 137 499C133.134 499 130 495.866 130 492C130 488.134 133.134 485 137 485ZM132 492C132 494.761 134.239 497 137 497C138.014 497 138.957 496.698 139.746 496.179L132.725 489.406C132.265 490.162 132 491.05 132 492ZM137 487C135.912 487 134.905 487.348 134.084 487.938L141.164 494.769C141.692 493.976 142 493.024 142 492C142 489.239 139.761 487 137 487Z" fill="#757575"/>
<path d="M618 543C617.448 543 617 542.552 617 542C617 541.448 617.448 541 618 541H628C628.552 541 629 541.448 629 542C629 542.552 628.552 543 628 543H618Z" fill="#757575"/>
<path d="M623 574C626.314 574 629 576.686 629 580C629 583 627 586.5 623 590.5C619 586.5 617 583 617 580C617 576.686 619.686 574 623 574ZM623 577.5C621.619 577.5 620.5 578.619 620.5 580C620.5 581.381 621.619 582.5 623 582.5C624.381 582.5 625.5 581.381 625.5 580C625.5 578.619 624.381 577.5 623 577.5Z" fill="#757575"/>
<path d="M618 658V664C618 665.657 619.343 667 621 667H627C627 668.105 626.105 669 625 669H618C616.895 669 616 668.105 616 667V660C616 658.895 616.895 658 618 658ZM628 655C629.105 655 630 655.895 630 657V664C630 665.105 629.105 666 628 666H621C619.895 666 619 665.105 619 664V657C619 655.895 619.895 655 621 655H628ZM624.5 657.5C624.224 657.5 624 657.724 624 658V660H622C621.724 660 621.5 660.224 621.5 660.5C621.5 660.776 621.724 661 622 661H624V663C624 663.276 624.224 663.5 624.5 663.5C624.776 663.5 625 663.276 625 663V661H627C627.276 661 627.5 660.776 627.5 660.5C627.5 660.224 627.276 660 627 660H625V658C625 657.724 624.776 657.5 624.5 657.5Z" fill="#757575"/>
<path d="M609 336H610C610 335.448 610.448 335 611 335C611.552 335 612 335.448 612 336H616C616 335.448 616.448 335 617 335C617.552 335 618 335.448 618 336H619C620.054 336 620.918 336.816 620.995 337.851L621 338V347C621 348.105 620.105 349 619 349H609C607.895 349 607 348.105 607 347V338C607 336.895 607.895 336 609 336ZM619 340H609V347H619V340Z" fill="#757575"/>
<path d="M615.5 394L615.501 396.189C616.051 396.331 616.571 396.549 617.048 396.831L618.596 395.282L620.718 397.404L619.169 398.952C619.451 399.429 619.669 399.949 619.811 400.499L622 400.5V403.5L619.811 403.501C619.669 404.051 619.451 404.571 619.169 405.048L620.718 406.596L618.596 408.718L617.048 407.169C616.571 407.451 616.051 407.669 615.501 407.811L615.5 410H612.5L612.5 407.811C611.95 407.669 611.43 407.451 610.952 407.169L609.404 408.718L607.282 406.596L608.831 405.048C608.549 404.571 608.331 404.051 608.189 403.501L606 403.5V400.5L608.189 400.5C608.331 399.95 608.549 399.43 608.831 398.952L607.282 397.404L609.404 395.282L610.952 396.831C611.43 396.549 611.95 396.331 612.5 396.189L612.5 394H615.5ZM614 399.5C612.619 399.5 611.5 400.619 611.5 402C611.5 403.381 612.619 404.5 614 404.5C615.381 404.5 616.5 403.381 616.5 402C616.5 400.619 615.381 399.5 614 399.5Z" fill="#757575"/>
<path d="M586 245C589.866 245 593 248.134 593 252C593 255.866 589.866 259 586 259C582.134 259 579 255.866 579 252C579 248.134 582.134 245 586 245ZM586 250.441C585.448 250.441 585 250.889 585 251.441V256C585 256.552 585.448 257 586 257C586.552 257 587 256.552 587 256V251.441C587 250.889 586.552 250.441 586 250.441ZM586 247C585.448 247 585 247.448 585 248C585 248.552 585.448 249 586 249C586.552 249 587 248.552 587 248C587 247.448 586.552 247 586 247Z" fill="#757575"/>
<path d="M581.707 305.207C581.317 305.598 580.683 305.598 580.293 305.207C579.902 304.817 579.902 304.183 580.293 303.793L585.293 298.793C585.683 298.402 586.317 298.402 586.707 298.793L591.707 303.793C592.098 304.183 592.098 304.817 591.707 305.207C591.317 305.598 590.683 305.598 590.293 305.207L586 300.914L581.707 305.207Z" fill="#757575"/>
<g clip-path="url(#clip3)">
<path d="M615.951 39.8299L629.498 34.9038C629.705 34.8283 629.935 34.9354 630.01 35.143C630.043 35.2313 630.043 35.3281 630.01 35.4164L625.084 48.9632C625.009 49.1708 624.779 49.278 624.572 49.2025C624.448 49.1576 624.355 49.055 624.321 48.928L622.589 42.3247L615.986 40.5927C615.772 40.5367 615.645 40.318 615.701 40.1043C615.734 39.9773 615.828 39.8748 615.951 39.8299Z" fill="#757575"/>
</g>
<path d="M621 107C621.552 107 622 107.448 622 108C622 108.552 621.552 109 621 109H618V117H626V114C626 113.448 626.448 113 627 113C627.552 113 628 113.448 628 114V118C628 118.552 627.552 119 627 119H617C616.448 119 616 118.552 616 118V108C616 107.448 616.448 107 617 107H621ZM629.5 104.5L629.519 104.5C629.543 104.501 629.566 104.502 629.589 104.504L629.5 104.5C629.551 104.5 629.6 104.504 629.649 104.511C629.666 104.514 629.683 104.517 629.701 104.52C629.723 104.525 629.744 104.53 629.766 104.536C629.781 104.54 629.797 104.545 629.812 104.55C629.832 104.556 629.852 104.563 629.871 104.571C629.889 104.578 629.906 104.586 629.923 104.594C629.944 104.603 629.964 104.614 629.984 104.625C629.996 104.631 630.009 104.639 630.021 104.646C630.046 104.662 630.071 104.678 630.095 104.696C630.103 104.702 630.11 104.707 630.117 104.713C630.18 104.763 630.237 104.82 630.287 104.883L630.207 104.793C630.243 104.828 630.275 104.866 630.304 104.905C630.322 104.929 630.338 104.954 630.354 104.979C630.361 104.991 630.369 105.004 630.375 105.016C630.386 105.036 630.397 105.056 630.406 105.077C630.414 105.094 630.422 105.111 630.429 105.129C630.437 105.148 630.444 105.168 630.45 105.188C630.455 105.203 630.46 105.219 630.464 105.234C630.47 105.256 630.475 105.277 630.48 105.299C630.483 105.317 630.486 105.334 630.489 105.352C630.492 105.371 630.494 105.392 630.496 105.413C630.498 105.432 630.499 105.45 630.499 105.468C630.5 105.478 630.5 105.489 630.5 105.5V110.5C630.5 111.052 630.052 111.5 629.5 111.5C628.948 111.5 628.5 111.052 628.5 110.5V107.914L624.207 112.207C623.817 112.598 623.183 112.598 622.793 112.207C622.402 111.817 622.402 111.183 622.793 110.793L627.084 106.5H624.5C623.948 106.5 623.5 106.052 623.5 105.5C623.5 104.948 623.948 104.5 624.5 104.5H629.5Z" fill="#757575"/>
<path d="M620.943 177.333L616.994 178.65C616.603 178.78 616.231 178.408 616.361 178.018L617.678 174.068L620.943 177.333ZM630.234 168.239L621.748 176.724L618.285 173.261L626.735 164.74L630.234 168.239Z" fill="#757575"/>
<path d="M595 425C598.866 425 602 428.134 602 432C602 435.866 598.866 439 595 439C591.134 439 588 435.866 588 432C588 428.134 591.134 425 595 425ZM595 427.024L594.898 427.031C594.532 427.081 594.25 427.395 594.25 427.774L594.249 431.667L592.172 433.543L592.095 433.623C591.863 433.905 591.866 434.323 592.118 434.602C592.396 434.91 592.87 434.934 593.177 434.656L595.503 432.557L595.576 432.481C595.688 432.347 595.75 432.177 595.75 432V427.774L595.743 427.672C595.693 427.306 595.38 427.024 595 427.024Z" fill="#757575"/>
<path d="M595 456C597.946 456 600.612 458 603 462C600.612 466 597.946 468 595 468C592.054 468 589.388 466 587 462C589.388 458 592.054 456 595 456ZM595 458C593.097 458 591.219 459.259 589.367 462C591.219 464.741 593.097 466 595 466C596.903 466 598.781 464.741 600.633 462C598.781 459.259 596.903 458 595 458ZM595 459C596.657 459 598 460.343 598 462C598 463.657 596.657 465 595 465C593.343 465 592 463.657 592 462C592 460.343 593.343 459 595 459Z" fill="#757575"/>
<path d="M595 495C598.866 495 602 498.134 602 502C602 505.866 598.866 509 595 509C591.134 509 588 505.866 588 502C588 498.134 591.134 495 595 495ZM595 505C594.448 505 594 505.448 594 506C594 506.552 594.448 507 595 507C595.552 507 596 506.552 596 506C596 505.448 595.552 505 595 505ZM595 497.441C594.448 497.441 594 497.889 594 498.441V502.678C594 503.23 594.448 503.678 595 503.678C595.552 503.678 596 503.23 596 502.678V498.441C596 497.889 595.552 497.441 595 497.441Z" fill="#757575"/>
<path d="M595 515C598.866 515 602 518.134 602 522C602 525.866 598.866 529 595 529C591.134 529 588 525.866 588 522C588 518.134 591.134 515 595 515ZM594.955 524.669C594.343 524.669 593.851 525.125 593.851 525.713C593.851 526.289 594.343 526.745 594.955 526.745C595.555 526.745 596.047 526.289 596.047 525.713C596.047 525.125 595.555 524.669 594.955 524.669ZM595.351 517.539C593.647 517.539 592.459 518.523 592.387 520.191H594.055C594.139 519.435 594.583 518.955 595.243 518.955C595.879 518.955 596.167 519.291 596.167 519.843C596.167 520.323 595.783 520.707 595.351 521.127C594.787 521.679 594.163 522.267 594.163 523.203V523.563H595.771V523.263C595.843 522.627 596.455 522.135 597.031 521.583C597.547 521.079 598.015 520.527 598.015 519.699C598.015 518.427 597.115 517.539 595.351 517.539Z" fill="#757575"/>
<path d="M81.2929 539.293C81.6834 538.902 82.3166 538.902 82.7071 539.293C83.0976 539.683 83.0976 540.317 82.7071 540.707L77.7071 545.707C77.3166 546.098 76.6834 546.098 76.2929 545.707L71.2929 540.707C70.9024 540.317 70.9024 539.683 71.2929 539.293C71.6834 538.902 72.3166 538.902 72.7071 539.293L77 543.586L81.2929 539.293Z" fill="#757575"/>
<path d="M77.0001 577.732L77.8969 576.963C79.5742 575.525 82.0994 575.72 83.5371 577.397C84.9748 579.074 84.7805 581.599 83.1032 583.037L77.0001 588.268L70.8969 583.037C69.2196 581.599 69.0254 579.074 70.463 577.397C71.9007 575.72 74.4259 575.525 76.1032 576.963L77.0001 577.732Z" fill="#757575"/>
<path d="M72.5498 660.5C73.1021 660.5 73.5498 660.948 73.5498 661.5C73.5498 662.052 73.1021 662.5 72.5498 662.5H71.926L71.9885 668H81.9998V662.5H81.4998C80.9475 662.5 80.4998 662.052 80.4998 661.5C80.4998 660.948 80.9475 660.5 81.4998 660.5H82.9998C83.5521 660.5 83.9998 660.948 83.9998 661.5V669C83.9998 669.552 83.5521 670 82.9998 670H70.9998C70.4519 670 70.0061 669.559 69.9999 669.011L69.9146 661.511C69.9084 660.955 70.3579 660.5 70.9146 660.5H72.5498ZM77.7097 653.793L80.7072 656.793C81.0976 657.184 81.0973 657.817 80.7066 658.207C80.3159 658.598 79.6827 658.597 79.2924 658.207L77.9996 656.913L77.9998 662.5C77.9998 663.052 77.5521 663.5 76.9998 663.5C76.4475 663.5 75.9998 663.052 75.9998 662.5L75.9996 656.915L74.7066 658.207C74.3159 658.598 73.6827 658.597 73.2924 658.207C72.902 657.816 72.9023 657.183 73.293 656.793L76.2955 653.793C76.6862 653.402 77.3194 653.403 77.7097 653.793Z" fill="#757575"/>
<path d="M60.5232 338.658L67.6877 344.39C67.8703 344.537 68.1297 344.537 68.3123 344.39L75.4769 338.659C75.4921 338.771 75.5 338.884 75.5 339V345C75.5 346.381 74.3807 347.5 73 347.5H63C61.6193 347.5 60.5 346.381 60.5 345V339C60.5 338.884 60.5079 338.77 60.5232 338.658ZM73 336.5C73.8908 336.5 74.6727 336.966 75.1155 337.667L68 343.36L60.8845 337.667C61.3273 336.966 62.1092 336.5 63 336.5H73Z" fill="#757575"/>
<path d="M68 395C71.866 395 75 398.134 75 402C75 405.866 71.866 409 68 409C64.134 409 61 405.866 61 402C61 398.134 64.134 395 68 395ZM68 397C65.2386 397 63 399.239 63 402C63 404.761 65.2386 407 68 407C70.7614 407 73 404.761 73 402C73 399.239 70.7614 397 68 397ZM68 398.34C68.3797 398.34 68.6935 398.622 68.7432 398.988L68.75 399.09V402C68.75 402.174 68.6894 402.342 68.5805 402.475L68.5094 402.55L66.808 404.125C66.504 404.406 66.0295 404.388 65.7481 404.084C65.4924 403.808 65.4843 403.39 65.7134 403.105L65.7892 403.024L67.25 401.671V399.09C67.25 398.71 67.5322 398.396 67.8982 398.347L68 398.34Z" fill="#757575"/>
<path d="M45.935 244.957C46.3256 244.566 46.9587 244.566 47.3492 244.957C47.7398 245.347 47.7398 245.981 47.3492 246.371L45.2878 248.433C46.2286 249.358 47.1327 250.547 48 252C45.6122 256 42.9455 258 40 258C38.8406 258 37.7243 257.69 36.6513 257.07L34.6213 259.099C34.2308 259.49 33.5976 259.49 33.2071 259.099C32.8166 258.709 32.8166 258.075 33.2071 257.685L35.0273 255.866C33.9728 254.903 32.9637 253.614 32 252C34.3878 248 37.0545 246 40 246C41.297 246 42.5398 246.388 43.7287 247.163L45.935 244.957ZM43.8761 249.845L42.8 250.921C42.9292 251.255 43 251.619 43 252C43 253.657 41.6569 255 40 255C39.6199 255 39.2564 254.929 38.9217 254.8L38.1357 255.586C38.7544 255.864 39.3758 256 40 256C41.9032 256 43.7809 254.741 45.6328 252C45.0498 251.137 44.4642 250.421 43.8761 249.845ZM40 248C38.0968 248 36.2191 249.258 34.3672 252C35.055 253.018 35.7464 253.832 36.4414 254.452L37.3977 253.493C37.1447 253.054 37 252.544 37 252C37 250.343 38.3431 249 40 249C40.5442 249 41.0546 249.145 41.4947 249.398L42.2724 248.619C41.519 248.201 40.7615 248 40 248Z" fill="#757575"/>
<path d="M36 275H44C44.5523 275 45 275.448 45 276V289L40 284.52L35 289V276C35 275.448 35.4477 275 36 275Z" fill="#757575"/>
<path d="M80.2071 46.2929C80.5976 46.6834 80.5976 47.3166 80.2071 47.7071C79.8166 48.0976 79.1834 48.0976 78.7929 47.7071L73.7929 42.7071C73.4024 42.3166 73.4024 41.6834 73.7929 41.2929L78.7929 36.2929C79.1834 35.9024 79.8166 35.9024 80.2071 36.2929C80.5976 36.6834 80.5976 37.3166 80.2071 37.7071L75.9142 42L80.2071 46.2929Z" fill="#757575"/>
<path d="M73.7929 107.707C73.4024 107.317 73.4024 106.683 73.7929 106.293C74.1834 105.902 74.8166 105.902 75.2071 106.293L80.2071 111.293C80.5976 111.683 80.5976 112.317 80.2071 112.707L75.2071 117.707C74.8166 118.098 74.1834 118.098 73.7929 117.707C73.4024 117.317 73.4024 116.683 73.7929 116.293L78.0858 112L73.7929 107.707Z" fill="#757575"/>
<path d="M77.0001 176.25L72.5917 178.568L73.4336 173.659L69.8672 170.182L74.7959 169.466L77.0001 165L79.2043 169.466L84.133 170.182L80.5666 173.659L81.4085 178.568L77.0001 176.25Z" fill="#757575"/>
<path d="M55 426.5C55.5523 426.5 56 426.948 56 427.5C56 428.052 55.5523 428.5 55 428.5H43C42.4477 428.5 42 428.052 42 427.5C42 426.948 42.4477 426.5 43 426.5H55ZM49 415C49.5523 415 50 415.448 50 416V421.619L52.3815 419.286C52.776 418.899 53.4091 418.906 53.7957 419.3C54.1822 419.694 54.1759 420.328 53.7814 420.714L49.7137 424.7C49.6822 424.733 49.6485 424.763 49.6129 424.79L49.6999 424.714C49.6659 424.748 49.6302 424.778 49.5929 424.805C49.5679 424.824 49.5418 424.841 49.5148 424.857C49.502 424.865 49.4894 424.872 49.4767 424.879C49.4595 424.889 49.4415 424.898 49.4231 424.906C49.4024 424.916 49.3821 424.925 49.3616 424.933C49.3454 424.939 49.3287 424.945 49.3117 424.95C49.2944 424.956 49.2771 424.961 49.2596 424.966C49.2394 424.971 49.2187 424.976 49.1978 424.98C49.1808 424.984 49.1637 424.987 49.1467 424.989C49.1241 424.993 49.1011 424.995 49.0778 424.997C49.0641 424.998 49.0504 424.999 49.0367 424.999L49 425L48.9525 424.999C48.9425 424.998 48.9325 424.998 48.9225 424.997L49 425C48.9462 425 48.8935 424.996 48.842 424.988C48.8286 424.985 48.8146 424.983 48.8006 424.98C48.7765 424.975 48.7532 424.97 48.7301 424.963C48.7161 424.959 48.702 424.955 48.688 424.95C48.6672 424.944 48.6464 424.936 48.6259 424.928C48.6096 424.921 48.5936 424.914 48.5778 424.907C48.5502 424.894 48.5232 424.88 48.4969 424.864C48.4921 424.862 48.4872 424.859 48.4822 424.856C48.4521 424.837 48.4229 424.818 48.395 424.796C48.3917 424.794 48.3881 424.791 48.3846 424.788C48.349 424.76 48.3156 424.731 48.2844 424.699L44.2906 420.707C43.8999 420.317 43.8997 419.684 44.2901 419.293C44.6805 418.902 45.3137 418.902 45.7044 419.293L48 421.587V416C48 415.448 48.4477 415 49 415Z" fill="#757575"/>
<path d="M49 455.5C52.5899 455.5 55.5 458.13 55.5 461.374C55.5 464.618 52.5899 467.248 49 467.248C48.5817 467.248 48.1727 467.213 47.7764 467.144L44.0422 468.986C43.9275 469.042 43.7955 469.053 43.6733 469.015C43.4094 468.934 43.2617 468.654 43.3433 468.39L44.2666 465.4C43.1712 464.349 42.5 462.932 42.5 461.374C42.5 458.13 45.4101 455.5 49 455.5Z" fill="#757575"/>
<g clip-path="url(#clip4)">
<path d="M536.96 545.182C537.351 545.573 537.351 546.206 536.96 546.596L535.34 548.217C533.682 549.875 530.926 549.755 529.182 548.01C527.438 546.266 527.318 543.511 528.976 541.853L530.596 540.232C530.987 539.842 531.62 539.842 532.011 540.232C532.401 540.623 532.401 541.256 532.011 541.646L530.39 543.267C529.542 544.115 529.607 545.607 530.596 546.596C531.586 547.586 533.078 547.65 533.926 546.802L535.546 545.182C535.937 544.791 536.57 544.791 536.96 545.182ZM538.021 539.172C538.412 539.562 538.412 540.195 538.021 540.586L533.778 544.828C533.388 545.219 532.755 545.219 532.364 544.828C531.974 544.438 531.974 543.805 532.364 543.414L536.607 539.172C536.997 538.781 537.63 538.781 538.021 539.172ZM541.203 535.99C542.947 537.734 543.067 540.489 541.409 542.147L539.789 543.768C539.398 544.158 538.765 544.158 538.375 543.768C537.984 543.377 537.984 542.744 538.375 542.354L539.995 540.733C540.843 539.885 540.778 538.393 539.789 537.404C538.799 536.414 537.307 536.35 536.459 537.198L534.839 538.818C534.448 539.209 533.815 539.209 533.425 538.818C533.034 538.428 533.034 537.794 533.425 537.404L535.045 535.783C536.703 534.126 539.459 534.245 541.203 535.99Z" fill="#757575"/>
</g>
<path d="M531.308 585.001C531.664 586.638 532.315 587.983 533.189 588.763C531.191 588.23 529.545 586.835 528.674 585L531.308 585.001ZM541.326 585C540.455 586.835 538.809 588.23 536.811 588.764C537.685 587.983 538.336 586.638 538.692 585.001L541.326 585ZM537.662 585C537.162 587.08 536.157 588.5 535 588.5C533.843 588.5 532.838 587.08 532.338 585H537.662ZM531.132 580C531.045 580.639 531 581.31 531 582C531 582.69 531.045 583.361 531.132 584L528.29 584C528.101 583.367 528 582.695 528 582C528 581.305 528.101 580.634 528.29 580L531.132 580ZM537.855 580C537.949 580.63 538 581.302 538 582C538 582.698 537.949 583.371 537.855 584.001H532.145C532.051 583.371 532 582.698 532 582C532 581.302 532.051 580.63 532.145 580H537.855ZM541.71 580C541.899 580.634 542 581.305 542 582C542 582.695 541.899 583.367 541.71 584L538.868 584C538.955 583.361 539 582.69 539 582C539 581.31 538.955 580.639 538.868 580L541.71 580ZM533.191 575.235C532.316 576.016 531.664 577.361 531.308 578.999L528.674 579C529.538 577.181 531.164 575.794 533.139 575.25L533.191 575.235ZM535 575.5C536.157 575.5 537.161 576.92 537.662 578.999H532.338C532.839 576.92 533.843 575.5 535 575.5ZM536.809 575.236C538.808 575.769 540.454 577.165 541.326 579L538.692 578.999C538.349 577.422 537.732 576.117 536.906 575.325L536.809 575.236Z" fill="#757575"/>
<path d="M535.245 584.936C537.259 583.803 539.499 583.696 542 584.629L542 587C542 588.105 541.105 589 540 589H530C528.895 589 528 588.105 528 587L528.001 585.433C530.632 586.327 533.058 586.166 535.245 584.936ZM540 575C541.105 575 542 575.895 542 577L542 583.567C539.368 582.673 536.943 582.834 534.755 584.064C532.741 585.197 530.501 585.304 528 584.372L528 577C528 575.895 528.895 575 530 575H540ZM532.5 577.5C531.395 577.5 530.5 578.395 530.5 579.5C530.5 580.605 531.395 581.5 532.5 581.5C533.605 581.5 534.5 580.605 534.5 579.5C534.5 578.395 533.605 577.5 532.5 577.5Z" fill="#757575"/>
<path d="M527.111 315C527.78 315 528.405 315.334 528.776 315.891L529.339 316.737C529.525 317.015 529.837 317.182 530.172 317.182H532C533.105 317.182 534 318.077 534 319.182V326.091C534 327.195 533.105 328.091 532 328.091H520C518.895 328.091 518 327.195 518 326.091V319.182C518 318.077 518.895 317.182 520 317.182H521.828C522.163 317.182 522.475 317.015 522.661 316.737L523.224 315.891C523.595 315.334 524.22 315 524.889 315H527.111ZM526 318.5C523.791 318.5 522 320.291 522 322.5C522 324.709 523.791 326.5 526 326.5C528.209 326.5 530 324.709 530 322.5C530 320.291 528.209 318.5 526 318.5ZM526 319.5C527.657 319.5 529 320.843 529 322.5C529 324.157 527.657 325.5 526 325.5C524.343 325.5 523 324.157 523 322.5C523 320.843 524.343 319.5 526 319.5Z" fill="#757575"/>
<path d="M526.364 394.8V400.015H531L525.636 409.466V404.251H521L526.364 394.8Z" fill="#757575"/>
<path d="M498 205.5C501.59 205.5 504.5 208.13 504.5 211.374C504.5 214.618 501.59 217.248 498 217.248C497.582 217.248 497.173 217.213 496.776 217.144L493.042 218.986C492.927 219.042 492.795 219.053 492.673 219.015C492.409 218.934 492.262 218.654 492.343 218.39L493.267 215.4C492.171 214.349 491.5 212.932 491.5 211.374C491.5 208.13 494.41 205.5 498 205.5ZM498 208.5C497.448 208.5 497 208.948 497 209.5L496.999 210.5H496C495.448 210.5 495 210.948 495 211.5C495 212.052 495.448 212.5 496 212.5H496.999L497 213.5C497 214.052 497.448 214.5 498 214.5C498.552 214.5 499 214.052 499 213.5L498.999 212.5H500C500.552 212.5 501 212.052 501 211.5C501 210.948 500.552 210.5 500 210.5H498.999L499 209.5C499 208.948 498.552 208.5 498 208.5Z" fill="#757575"/>
<path d="M506 258.597L505.306 257.447C504.018 255.307 501.581 254.039 498.609 253.94V258.062L491 251.523L498.589 245.4V249.502C502.691 249.68 505.98 253.009 505.98 257.071V258.597H506Z" fill="#757575"/>
<path d="M541.99 36.1919L539.964 46.9991C539.893 47.3801 539.476 47.5867 539.13 47.4134L535.903 45.8L533.724 47.9796C533.357 48.3471 532.728 48.0868 532.728 47.5671L532.728 44.769L540.542 36.874L531.956 43.826L528.322 42.0098C527.877 41.7869 527.898 41.1438 528.357 40.9504L541.191 35.5467C541.619 35.3664 542.076 35.735 541.99 36.1919Z" fill="#757575"/>
<path d="M541 106C542.105 106 543 106.895 543 108V116C543 117.105 542.105 118 541 118H529C527.895 118 527 117.105 527 116V108C527 106.895 527.895 106 529 106H541ZM541 112H529V116H541V112ZM534.5 114C534.776 114 535 114.224 535 114.5C535 114.776 534.776 115 534.5 115H530.5C530.224 115 530 114.776 530 114.5C530 114.224 530.224 114 530.5 114H534.5ZM541 108H529V109.5H541V108Z" fill="#757575"/>
<path d="M537.334 134.811C537.335 135.822 538.03 136.716 539.016 137.02C539.51 137.172 540.02 137.244 540.537 137.265C540.907 137.28 541.275 137.256 541.617 137.097C541.885 136.972 542.011 136.766 541.999 136.49C541.987 136.213 541.854 136.006 541.57 135.896C541.472 135.857 541.371 135.826 541.267 135.809C540.954 135.757 540.639 135.713 540.327 135.655C539.813 135.56 539.598 135.306 539.591 134.82C539.585 134.391 539.71 133.986 539.851 133.585C540.11 132.851 540.459 132.152 540.793 131.447C541.116 130.766 541.455 130.091 541.683 129.374C541.809 128.981 541.869 128.586 541.754 128.179C541.581 127.561 541.184 127.146 540.5 127.027C539.874 126.918 539.251 126.906 538.684 127.255C538.496 127.37 538.315 127.343 538.152 127.208C538.027 127.106 537.908 126.997 537.786 126.892C537.208 126.394 536.445 126.37 535.824 126.824C535.574 127.008 535.364 127.235 535.092 127.395C534.849 127.537 534.604 127.578 534.335 127.444C534.079 127.316 533.814 127.204 533.549 127.092C533.281 126.979 533.022 126.839 532.72 126.815C531.766 126.74 530.767 127.269 530.346 128.074C530.16 128.43 530.007 128.8 529.863 129.172C529.195 130.894 528.651 132.652 528.088 134.405C527.836 135.189 528.134 135.961 528.845 136.384C529.4 136.715 530.008 136.796 530.636 136.62C531.146 136.477 531.425 136.094 531.62 135.663C532.268 134.236 532.852 132.784 533.47 131.345C533.64 130.95 533.805 130.552 533.985 130.16C534.167 129.765 534.69 129.63 535.001 129.892C535.19 130.053 535.24 130.266 535.222 130.494C535.201 130.737 535.1 130.962 535.005 131.185C534.604 132.134 534.194 133.081 533.79 134.029C533.709 134.221 533.62 134.411 533.584 134.617C533.522 134.97 533.672 135.283 533.982 135.408C534.298 135.535 534.626 135.557 534.953 135.446C535.334 135.317 535.562 135.038 535.737 134.716C536.34 133.611 536.938 132.503 537.54 131.398C537.818 130.887 538.102 130.379 538.386 129.872C538.491 129.683 538.615 129.505 538.812 129.388C538.99 129.283 539.182 129.275 539.365 129.371C539.543 129.464 539.555 129.634 539.548 129.802C539.543 129.892 539.516 129.981 539.479 130.065C539.401 130.239 539.328 130.417 539.242 130.588C538.741 131.572 538.232 132.552 537.736 133.538C537.526 133.955 537.308 134.373 537.334 134.811Z" fill="#757575"/>
<path d="M502.5 402V400H503.5V402C503.5 403.933 505.067 405.5 507 405.5C508.933 405.5 510.5 403.933 510.5 402V400H511.5V402C511.5 404.141 510.004 405.933 508.001 406.388L508 408.5H510.5V409.5H503.5V408.5H506L506 406.389C503.996 405.934 502.5 404.142 502.5 402ZM507 394.5C508.381 394.5 509.5 395.619 509.5 397V402C509.5 403.381 508.381 404.5 507 404.5C505.619 404.5 504.5 403.381 504.5 402V397C504.5 395.619 505.619 394.5 507 394.5Z" fill="#757575"/>
<path d="M505.476 468.479L507.665 461.703L509.679 467.728L511.991 464.214H513.251C513.804 464.214 514.251 463.766 514.251 463.214C514.251 462.662 513.804 462.214 513.251 462.214H510.913L510.271 463.19L507.633 455.297L505.17 462.92L503.878 460.044L502.293 462.412H500.7C500.147 462.412 499.7 462.859 499.7 463.412C499.7 463.964 500.147 464.412 500.7 464.412H503.361L503.533 464.156L505.476 468.479Z" fill="#757575"/>
<path d="M509 487C509.828 487 510.5 487.672 510.5 488.5V490.021L514 487.25V496.75L510.5 493.979V495.5C510.5 496.328 509.828 497 509 497H501.5C500.672 497 500 496.328 500 495.5V488.5C500 487.672 500.672 487 501.5 487H509Z" fill="#757575"/>
<path d="M514.5 496.5V500.5C513.582 500.5 513.123 501 513.123 502C513.123 503 513.582 503.5 514.5 503.5V507.5H499.5V503.5C500.418 503.5 500.877 503 500.877 502C500.877 501 500.418 500.5 499.5 500.5V496.5H514.5ZM511.5 498.5H502.5V505.5H511.5V498.5ZM510.5 499.5V504.5H503.5V499.5H510.5Z" fill="#757575"/>
<path d="M541.723 525.732C541.692 524.975 541.543 524.387 541.276 523.967C540.361 522.532 539 522.033 539 519.353C539 516.673 541.233 514.5 543.988 514.5H544.012C546.767 514.5 549 516.673 549 519.353C549 522.033 547.639 522.532 546.724 523.967C546.456 524.387 546.308 524.975 546.277 525.732C546.26 526.161 545.907 526.5 545.478 526.5H542.522C542.092 526.5 541.74 526.161 541.723 525.732ZM543 527.5H545C545.552 527.5 546 527.948 546 528.5C546 529.052 545.552 529.5 545 529.5H543C542.448 529.5 542 529.052 542 528.5C542 527.948 542.448 527.5 543 527.5Z" fill="#757575"/>
<path d="M550 519.5V528.5H538V519.5H550ZM547 521.5H541V523.5H547V521.5ZM551 515.5V518.5H537V515.5H551Z" fill="#757575"/>
<defs>
<clipPath id="clip0">
<rect width="28" height="28" fill="white" transform="translate(357 353)"/>
</clipPath>
<clipPath id="clip1">
<rect width="28" height="28" fill="white" transform="translate(268 453)"/>
</clipPath>
<clipPath id="clip2">
<rect width="18" height="18" fill="white" transform="translate(138 533)"/>
</clipPath>
<clipPath id="clip3">
<rect width="18" height="18" fill="white" transform="translate(614 33)"/>
</clipPath>
<clipPath id="clip4">
<rect width="18" height="18" fill="white" transform="translate(526 533)"/>
</clipPath>
</defs>
</svg>
