<svg width="512" height="296" viewBox="0 0 512 296" fill="none" xmlns="http://www.w3.org/2000/svg">
<g filter="url(#filter0_d)">
<rect x="7" y="7" width="192" height="280" rx="16" fill="white"/>
</g>
<g filter="url(#filter1_d)">
<rect x="311" y="7" width="192" height="280" rx="16" fill="white"/>
</g>
<path fill-rule="evenodd" clip-rule="evenodd" d="M112.333 37.6667H98.9999V44.3333V47V57.6667H101.667V52.3333C101.667 51.597 102.264 51 103 51H108.333C109.07 51 109.667 51.597 109.667 52.3333V57.6667H112.333V37.6667ZM109.667 60.3333H115H116.333C117.07 60.3333 117.667 59.7364 117.667 59C117.667 58.2636 117.07 57.6667 116.333 57.6667H115V37.5455C115 36.1396 113.806 35 112.333 35H98.9999C97.5272 35 96.3333 36.1396 96.3333 37.5455V44.3333V47V57.6667H94.9999H93.6666V47H94.9999V44.3333H93.6666C92.1938 44.3333 90.9999 45.5272 90.9999 47V57.6667H89.6666C88.9302 57.6667 88.3333 58.2636 88.3333 59C88.3333 59.7364 88.9302 60.3333 89.6666 60.3333H90.9999H93.6666H94.9999H96.3333H101.667H104.333H107H109.667ZM107 57.6667V53.6667H104.333V57.6667H107ZM101.667 41C101.667 40.6318 101.965 40.3333 102.333 40.3333H103.667C104.035 40.3333 104.333 40.6318 104.333 41V42.3333C104.333 42.7015 104.035 43 103.667 43H102.333C101.965 43 101.667 42.7015 101.667 42.3333V41ZM107.667 40.3333C107.298 40.3333 107 40.6318 107 41V42.3333C107 42.7015 107.298 43 107.667 43H109C109.368 43 109.667 42.7015 109.667 42.3333V41C109.667 40.6318 109.368 40.3333 109 40.3333H107.667ZM101.667 46.3333C101.667 45.9651 101.965 45.6667 102.333 45.6667H103.667C104.035 45.6667 104.333 45.9651 104.333 46.3333V47.6667C104.333 48.0349 104.035 48.3333 103.667 48.3333H102.333C101.965 48.3333 101.667 48.0349 101.667 47.6667V46.3333ZM107.667 45.6667C107.298 45.6667 107 45.9651 107 46.3333V47.6667C107 48.0349 107.298 48.3333 107.667 48.3333H109C109.368 48.3333 109.667 48.0349 109.667 47.6667V46.3333C109.667 45.9651 109.368 45.6667 109 45.6667H107.667Z" fill="#454545"/>
<path fill-rule="evenodd" clip-rule="evenodd" d="M411 39C411 41.2092 409.209 43 407 43C404.791 43 403 41.2092 403 39C403 36.7909 404.791 35 407 35C409.209 35 411 36.7909 411 39ZM413.667 39C413.667 42.6819 410.682 45.6667 407 45.6667C403.318 45.6667 400.333 42.6819 400.333 39C400.333 35.3181 403.318 32.3334 407 32.3334C410.682 32.3334 413.667 35.3181 413.667 39ZM407 59C403.628 59 400.582 57.6116 398.399 55.368C399.816 52.0165 403.136 49.6667 407 49.6667C410.864 49.6667 414.184 52.0165 415.601 55.368C413.418 57.6116 410.372 59 407 59ZM407 47C412.577 47 417.266 50.8051 418.612 55.961C415.929 59.4317 411.726 61.6667 407 61.6667C402.274 61.6667 398.07 59.4316 395.388 55.9609C396.734 50.8051 401.423 47 407 47Z" fill="#454545"/>
<rect x="31" y="103" width="144" height="16" rx="4" fill="#DBDBDB"/>
<rect x="335" y="103" width="144" height="16" rx="4" fill="#DBDBDB"/>
<rect x="31" y="135" width="144" height="16" rx="4" fill="#DBDBDB"/>
<rect x="335" y="135" width="144" height="16" rx="4" fill="#DBDBDB"/>
<rect x="31" y="167" width="120" height="16" rx="4" fill="#DBDBDB"/>
<rect x="335" y="167" width="120" height="16" rx="4" fill="#DBDBDB"/>
<rect x="31" y="231" width="40" height="16" rx="4" fill="#DBDBDB"/>
<rect x="335" y="231" width="40" height="16" rx="4" fill="#DBDBDB"/>
<rect x="83" y="231" width="40" height="16" rx="4" fill="#DBDBDB"/>
<rect x="387" y="231" width="40" height="16" rx="4" fill="#DBDBDB"/>
<rect x="135" y="231" width="40" height="16" rx="4" fill="#DBDBDB"/>
<rect x="439" y="231" width="40" height="16" rx="4" fill="#DBDBDB"/>
<path fill-rule="evenodd" clip-rule="evenodd" d="M251 102C257.075 102 262 97.0751 262 91C262 84.9249 257.075 80 251 80C244.925 80 240 84.9249 240 91C240 97.0751 244.925 102 251 102ZM257.707 88.7071C258.098 88.3166 258.098 87.6834 257.707 87.2929C257.317 86.9024 256.683 86.9024 256.293 87.2929L249 94.5858L245.707 91.2929C245.317 90.9024 244.683 90.9024 244.293 91.2929C243.902 91.6834 243.902 92.3166 244.293 92.7071L247.586 96C248.367 96.781 249.633 96.781 250.414 96L257.707 88.7071Z" fill="#4A9144"/>
<path fill-rule="evenodd" clip-rule="evenodd" d="M251 158C257.075 158 262 153.075 262 147C262 140.925 257.075 136 251 136C244.925 136 240 140.925 240 147C240 153.075 244.925 158 251 158ZM257.707 144.707C258.098 144.317 258.098 143.683 257.707 143.293C257.317 142.902 256.683 142.902 256.293 143.293L249 150.586L245.707 147.293C245.317 146.902 244.683 146.902 244.293 147.293C243.902 147.683 243.902 148.317 244.293 148.707L247.586 152C248.367 152.781 249.633 152.781 250.414 152L257.707 144.707Z" fill="#4A9144"/>
<path fill-rule="evenodd" clip-rule="evenodd" d="M262 203C262 209.075 257.075 214 251 214C244.925 214 240 209.075 240 203C240 196.925 244.925 192 251 192C257.075 192 262 196.925 262 203ZM252.5 209.5C252.5 210.328 251.828 211 251 211C250.172 211 249.5 210.328 249.5 209.5C249.5 208.672 250.172 208 251 208C251.828 208 252.5 208.672 252.5 209.5ZM249.852 197.228C250.4 197.001 251.003 196.942 251.585 197.058C252.167 197.173 252.702 197.459 253.121 197.879C253.541 198.298 253.827 198.833 253.942 199.415C254.058 199.997 253.999 200.6 253.772 201.148C253.545 201.696 253.16 202.165 252.667 202.494C252.592 202.544 252.516 202.59 252.438 202.633C251.885 202.935 251.297 203.351 250.836 203.889C250.371 204.432 250 205.144 250 206C250 206.552 250.448 207 251 207C251.552 207 252 206.552 252 206C252 205.752 252.103 205.484 252.355 205.19C252.611 204.892 252.981 204.615 253.397 204.388C253.527 204.317 253.654 204.24 253.778 204.157C254.6 203.608 255.241 202.827 255.619 201.913C255.998 201 256.097 199.994 255.904 199.025C255.711 198.055 255.235 197.164 254.536 196.464C253.836 195.765 252.945 195.289 251.975 195.096C251.006 194.903 250 195.002 249.087 195.381C248.173 195.759 247.392 196.4 246.843 197.222C246.293 198.044 246 199.011 246 200C246 200.552 246.448 201 247 201C247.552 201 248 200.552 248 200C248 199.407 248.176 198.827 248.506 198.333C248.835 197.84 249.304 197.455 249.852 197.228Z" fill="#767676"/>
<line x1="184.821" y1="110.533" x2="236.821" y2="90.5333" stroke="#C1D6E2"/>
<line x1="185.038" y1="142.501" x2="237.038" y2="146.501" stroke="#C1D6E2"/>
<line x1="76.9138" y1="230.507" x2="236.914" y2="202.507" stroke="#C1D6E2"/>
<line x1="266.123" y1="94.5154" x2="329.123" y2="110.515" stroke="#C1D6E2"/>
<line x1="266.226" y1="206.554" x2="329.226" y2="238.554" stroke="#C1D6E2"/>
<line x1="265.752" y1="146.566" x2="328.752" y2="110.566" stroke="#C1D6E2"/>
<defs>
<filter id="filter0_d" x="0" y="0" width="208" height="296" filterUnits="userSpaceOnUse" color-interpolation-filters="sRGB">
<feFlood flood-opacity="0" result="BackgroundImageFix"/>
<feColorMatrix in="SourceAlpha" type="matrix" values="0 0 0 0 0 0 0 0 0 0 0 0 0 0 0 0 0 0 127 0"/>
<feOffset dx="1" dy="1"/>
<feGaussianBlur stdDeviation="4"/>
<feColorMatrix type="matrix" values="0 0 0 0 0 0 0 0 0 0 0 0 0 0 0 0 0 0 0.1 0"/>
<feBlend mode="normal" in2="BackgroundImageFix" result="effect1_dropShadow"/>
<feBlend mode="normal" in="SourceGraphic" in2="effect1_dropShadow" result="shape"/>
</filter>
<filter id="filter1_d" x="304" y="0" width="208" height="296" filterUnits="userSpaceOnUse" color-interpolation-filters="sRGB">
<feFlood flood-opacity="0" result="BackgroundImageFix"/>
<feColorMatrix in="SourceAlpha" type="matrix" values="0 0 0 0 0 0 0 0 0 0 0 0 0 0 0 0 0 0 127 0"/>
<feOffset dx="1" dy="1"/>
<feGaussianBlur stdDeviation="4"/>
<feColorMatrix type="matrix" values="0 0 0 0 0 0 0 0 0 0 0 0 0 0 0 0 0 0 0.1 0"/>
<feBlend mode="normal" in2="BackgroundImageFix" result="effect1_dropShadow"/>
<feBlend mode="normal" in="SourceGraphic" in2="effect1_dropShadow" result="shape"/>
</filter>
</defs>
</svg>
