<?xml version="1.0" encoding="utf-8"?>
<!-- Generator: Adobe Illustrator 23.0.2, SVG Export Plug-In . SVG Version: 6.00 Build 0)  -->
<svg version="1.1" id="Layer_1" xmlns="http://www.w3.org/2000/svg" xmlns:xlink="http://www.w3.org/1999/xlink" x="0px" y="0px"
	 viewBox="0 0 100 31" style="enable-background:new 0 0 100 31;" xml:space="preserve">
<style type="text/css">
	.st0{fill:#0069C8;}
</style>
<g id="Artwork_1">
	<g>
		<g>
			<path class="st0" d="M18.34,26.27H2.63c-0.9,0-1.75-0.44-2.23-1.2c-0.58-0.92-0.53-2.09,0.11-2.94l12.21-16.4H3.12
				c-1.42,0-2.61-1.13-2.63-2.55C0.47,1.72,1.64,0.55,3.08,0.55h14.77c0.83,0,1.63,0.38,2.12,1.05c0.69,0.94,0.67,2.19-0.01,3.09
				L7.63,21.12l10.75-0.02c1.47,0,2.65,1.22,2.58,2.7C20.9,25.19,19.73,26.27,18.34,26.27"/>
			<path class="st0" d="M57.29,27.18c-1.02,0-1.85,0.83-1.85,1.86c0,1.03,0.83,1.86,1.85,1.86s1.85-0.83,1.85-1.86
				C59.15,28.01,58.32,27.18,57.29,27.18"/>
			<path class="st0" d="M57.29,21.55c-0.11-8.96-6.92-21.52-11.31-21.52c-0.78,0-1.29,0.55-1.33,1.53
				c-0.01,0.18,0.02,0.41,0.07,0.67C45.57,7.19,55.8,25.32,55.8,25.31c0.36,0.57,0.84,0.96,1.49,0.96c0.65,0,1.16-0.4,1.49-0.96
				c0,0,10.24-18.12,11.07-23.08c0.05-0.26,0.08-0.49,0.07-0.67c-0.04-0.99-0.54-1.53-1.33-1.53C64.21,0.03,57.41,12.59,57.29,21.55
				z"/>
			<path class="st0" d="M32.85,0.04c-7.19,0-12.6,5.77-12.6,13.42c0,7.8,5.47,13.24,13.3,13.24c5.12,0,8.18-2.4,9.78-4.24
				c0.89-1.02,0.7-2.59-0.4-3.37c-1.03-0.74-2.44-0.64-3.34,0.24c-1.14,1.11-3.07,2.36-5.98,2.36c-4.35,0-7.29-2.57-7.7-6.62h16.68
				c1.48,0,2.67-1.22,2.63-2.71C44.95,4.5,39.56,0.04,32.85,0.04 M26.14,10.54c0.59-3.17,3.37-5.57,6.71-5.57s6.12,2.4,6.71,5.57
				H26.14z"/>
			<path class="st0" d="M94.97,0.95h-0.64c-0.13,0-0.22-0.07-0.22-0.22s0.08-0.22,0.22-0.22h1.83c0.13,0,0.22,0.07,0.22,0.22
				s-0.08,0.22-0.22,0.22h-0.64v2.06c0,0.17-0.09,0.29-0.28,0.29s-0.28-0.12-0.28-0.29V0.95z M96.91,0.92
				c0-0.31,0.15-0.45,0.42-0.45c0.18,0,0.36,0.05,0.45,0.26l0.67,1.76l0.66-1.76c0.09-0.22,0.28-0.26,0.45-0.26
				c0.28,0,0.42,0.14,0.42,0.45v2.12c0,0.14-0.11,0.26-0.26,0.26c-0.14,0-0.26-0.11-0.26-0.26V1.1h-0.01l-0.73,1.95
				C98.68,3.23,98.6,3.3,98.46,3.3c-0.14,0-0.22-0.07-0.29-0.25L97.44,1.1h-0.01v1.94c0,0.14-0.11,0.26-0.26,0.26
				c-0.14,0-0.26-0.11-0.26-0.26V0.92z"/>
			<path class="st0" d="M82.18,0.05c-7.36,0-13.33,5.97-13.33,13.33s5.97,13.33,13.33,13.33c7.36,0,13.33-5.97,13.33-13.33
				S89.54,0.05,82.18,0.05 M82.18,21.69c-4.59,0-8.31-3.72-8.31-8.31s3.72-8.31,8.31-8.31c4.59,0,8.31,3.72,8.31,8.31
				S86.77,21.69,82.18,21.69"/>
		</g>
	</g>
</g>
</svg>
