<svg width="24" height="24" viewBox="0 0 24 24" fill="none" xmlns="http://www.w3.org/2000/svg">
<path fill-rule="evenodd" clip-rule="evenodd" d="M12 13C14.7614 13 17 10.7614 17 8C17 5.23858 14.7614 3 12 3C9.23858 3 7 5.23858 7 8C7 10.7614 9.23858 13 12 13ZM12 15C13.0736 15 14.0907 14.7583 15 14.3264V18.8387L13.8741 17.938C12.7784 17.0615 11.2216 17.0615 10.1259 17.938L9 18.8387V14.3264C9.90926 14.7583 10.9264 15 12 15ZM19 8C19 9.90966 18.2353 11.6407 16.9954 12.9037C16.9984 12.9354 17 12.9675 17 13V20.9193C17 21.7579 16.0301 22.224 15.3753 21.7002L12.6247 19.4997C12.2595 19.2076 11.7405 19.2076 11.3753 19.4997L8.6247 21.7002C7.96993 22.224 7 21.7579 7 20.9193V13C7 12.9675 7.00155 12.9354 7.00458 12.9037C5.7647 11.6407 5 9.90966 5 8C5 4.13401 8.13401 1 12 1C15.866 1 19 4.13401 19 8ZM15.7071 7.20711C16.0976 6.81658 16.0976 6.18342 15.7071 5.79289C15.3166 5.40237 14.6834 5.40237 14.2929 5.79289L11 9.08579L9.70711 7.79289C9.31658 7.40237 8.68342 7.40237 8.29289 7.79289C7.90237 8.18342 7.90237 8.81658 8.29289 9.20711L9.93934 10.8536C10.5251 11.4393 11.4749 11.4393 12.0607 10.8536L15.7071 7.20711Z" fill="#454545"/>
</svg>
