<svg width="24" height="24" viewBox="0 0 24 24" fill="none" xmlns="http://www.w3.org/2000/svg">
<path fill-rule="evenodd" clip-rule="evenodd" d="M18 9C18 10.6641 17.3252 12.1668 16.2294 13.2559C15.533 13.948 14.8021 14.8743 14.3744 16H9.62556C9.19789 14.8743 8.46705 13.948 7.77064 13.2559C6.67482 12.1668 6 10.6641 6 9C6 5.68629 8.68629 3 12 3C15.3137 3 18 5.68629 18 9ZM6.36081 14.6745C7.26959 15.5776 8 16.7188 8 18H10H14H16C16 16.7188 16.7304 15.5776 17.6392 14.6745C19.0973 13.2254 20 11.2181 20 9C20 4.58172 16.4183 1 12 1C7.58172 1 4 4.58172 4 9C4 11.2181 4.90272 13.2254 6.36081 14.6745ZM16 20V19H8V20C8 20.5523 8.44772 21 9 21H15C15.5523 21 16 20.5523 16 20ZM11 22C11 22.5523 11.4477 23 12 23C12.5523 23 13 22.5523 13 22H11ZM10 5.5359C10.2391 5.39783 10.3211 5.09203 10.183 4.85289C10.0449 4.61374 9.73915 4.5318 9.5 4.66987C8.7399 5.10871 8.10871 5.7399 7.66987 6.5C7.5318 6.73915 7.61374 7.04494 7.85289 7.18301C8.09203 7.32108 8.39783 7.23915 8.5359 7C8.88697 6.39192 9.39192 5.88697 10 5.5359Z" fill="#454545"/>
</svg>
