<svg width="124" height="146" viewBox="0 0 124 146" fill="none" xmlns="http://www.w3.org/2000/svg">
<path d="M24 124.5C24 126.665 23.3789 128.583 22.4257 129.934C21.4706 131.287 20.2448 132 19 132C17.7552 132 16.5294 131.287 15.5743 129.934C14.6211 128.583 14 126.665 14 124.5C14 122.335 14.6211 120.417 15.5743 119.066C16.5294 117.713 17.7552 117 19 117C20.2448 117 21.4706 117.713 22.4257 119.066C23.3789 120.417 24 122.335 24 124.5Z" stroke="#767676" stroke-width="2"/>
<mask id="path-2-inside-1" fill="white">
<path fill-rule="evenodd" clip-rule="evenodd" d="M116 70.7608C111.084 72.8464 105.677 74.0001 100 74.0001C96.5506 74.0001 93.2007 73.5741 90 72.7719V58.3408C93.9893 60.0524 98.384 61.0001 103 61.0001C107.616 61.0001 112.011 60.0524 116 58.3408V70.7608Z"/>
</mask>
<path d="M116 70.7608L116.781 72.6019L118 72.0848V70.7608H116ZM90 72.7719H88V74.3325L89.5138 74.7119L90 72.7719ZM90 58.3408L90.7886 56.5028L88 55.3065V58.3408H90ZM116 58.3408H118V55.3065L115.211 56.5028L116 58.3408ZM100 76.0001C105.95 76.0001 111.622 74.7905 116.781 72.6019L115.219 68.9196C110.545 70.9024 105.403 72.0001 100 72.0001V76.0001ZM89.5138 74.7119C92.8722 75.5537 96.3854 76.0001 100 76.0001V72.0001C96.7158 72.0001 93.5292 71.5946 90.4862 70.8319L89.5138 74.7119ZM92 72.7719V58.3408H88V72.7719H92ZM89.2114 60.1788C93.4453 61.9953 98.1079 63.0001 103 63.0001V59.0001C98.66 59.0001 94.5333 58.1095 90.7886 56.5028L89.2114 60.1788ZM103 63.0001C107.892 63.0001 112.555 61.9953 116.789 60.1788L115.211 56.5028C111.467 58.1095 107.34 59.0001 103 59.0001V63.0001ZM114 58.3408V70.7608H118V58.3408H114Z" fill="#767676" mask="url(#path-2-inside-1)"/>
<path d="M74.5001 11C81.5001 11 82.5001 11 87.5001 17.5C94.0385 26 110.5 50.5 89.5001 90.5C79.5001 105.5 83.5001 107 46.0001 103.5C44.5393 103.331 43.2995 103.112 42.2573 102.853C41.6046 104.962 41.0548 106.849 41.1081 107.721C41.4019 107.816 41.6993 107.909 42.0001 108C41.3998 108.409 41.1408 108.256 41.1081 107.721C25.2853 102.626 19.6095 92.4937 25.5001 76C28.5001 66.5 37.5001 62.5 47.5001 59.5C52.5001 58 69.5001 55 62.5001 32.5C59.5001 22 61.5001 11 74.5001 11Z" fill="white" stroke="#767676" stroke-width="2" stroke-linecap="round"/>
<circle cx="44.5" cy="85.5" r="22.5" fill="#767676"/>
<path d="M105.5 139C85 129 48.3334 110.667 37 106.5C33.5 103.5 31 100.9 35 88.4999C39 76.0999 47.5 87.4998 55 88.4998C66 103 103.569 127.366 105.5 129C112 134.5 115.5 139.5 105.5 139Z" stroke="#767676" stroke-width="2" stroke-linecap="round"/>
<path d="M76 22C76 21.4696 76.2107 20.9609 76.5858 20.5858C76.9609 20.2107 77.4696 20 78 20C78.5304 20 79.0391 20.2107 79.4142 20.5858C79.7893 20.9609 80 21.4696 80 22" stroke="#767676" stroke-width="2" stroke-linecap="round"/>
<path d="M88 22C88 21.4696 88.2107 20.9609 88.5858 20.5858C88.9609 20.2107 89.4696 20 90 20C90.5304 20 91.0391 20.2107 91.4142 20.5858C91.7893 20.9609 92 21.4696 92 22" stroke="#767676" stroke-width="2" stroke-linecap="round"/>
<path d="M60.3986 11.7433C59.4533 13.3469 60.0047 16.0865 60.3986 17.2558C57.6415 19.2604 59.6108 30.7867 60.7925 33.2924C61.7377 35.297 62.5 35.5 63.5 35C64 34.5 64.4453 33.6128 63.5 28C62.9105 24.5 64.2123 22 65 22C65.7877 22 67.8821 22.2673 68.6698 20.2627C69.4575 18.2581 69.3939 18.0034 69 16.5C68.6061 14.9966 71.3797 12.3144 76.5 11.5C80.0448 10.9362 83 13 84.5 13.5C84.8939 13.5 86 12.8458 86 11.2421C86 9.63849 84.6871 8.23527 84.0307 7.73411C84.4245 7.06597 84.7396 5.52921 82.8491 4.72725C80.9585 3.92529 78.6478 4.059 77.7288 4.22611C78.5165 3.7249 79.4618 2.42179 76.941 1.21904C74.4203 0.0163014 69.8514 4.0591 67.8821 6.23085C67.8821 5.89675 67.4094 5.32879 65.5189 5.7297C63.6283 6.13062 62.6305 9.5717 62.3679 11.2421C62.1053 10.741 61.3439 10.1396 60.3986 11.7433Z" fill="white" stroke="#767676" stroke-width="2" stroke-linecap="round"/>
<path d="M79 86C78.8022 86 78.6089 85.9414 78.4444 85.8315C78.28 85.7216 78.1518 85.5654 78.0761 85.3827C78.0004 85.2 77.9806 84.9989 78.0192 84.8049C78.0578 84.6109 78.153 84.4327 78.2929 84.2929C78.4327 84.153 78.6109 84.0578 78.8049 84.0192C78.9989 83.9806 79.2 84.0004 79.3827 84.0761C79.5654 84.1518 79.7216 84.28 79.8315 84.4444C79.9414 84.6089 80 84.8022 80 85" stroke="#F7CEB8" stroke-width="2" stroke-linecap="round"/>
<path d="M115.734 134.504C113.253 138.22 111.399 140.105 109.637 140.852C107.969 141.559 106.18 141.323 103.54 140.128C102.791 139.709 102.326 139.149 102.058 138.471C101.779 137.762 101.694 136.866 101.82 135.782C102.076 133.598 103.163 130.895 104.736 128.025C106.21 125.338 108.561 123.452 110.986 122.487C113.437 121.511 115.817 121.527 117.408 122.399C118.372 122.928 118.875 123.548 119.119 124.214C119.372 124.904 119.392 125.762 119.166 126.823C118.709 128.977 117.339 131.576 115.734 134.504Z" fill="white" stroke="#767676" stroke-width="2" stroke-linecap="round"/>
<path d="M115.786 134.41C113.588 137.846 111.924 139.542 110.488 140.291C109.164 140.981 107.915 140.924 106.282 140.41C105.574 139.973 105.22 139.003 105.609 137.061C105.998 135.117 107.07 132.65 108.519 130.006C109.894 127.499 111.864 125.642 113.776 124.596C115.746 123.517 117.407 123.416 118.337 123.926C118.902 124.236 119.17 124.631 119.282 125.124C119.407 125.671 119.353 126.412 119.083 127.378C118.54 129.316 117.26 131.721 115.786 134.41Z" stroke="#767676" stroke-width="2" stroke-linecap="round"/>
<path d="M78 45.5C67.5 37.5 53.5 33.5 49 33C48.6 33 48.1667 33.8333 48 34C48.8333 34.6667 50.5 37.1 50.5 41.5C50.5 45.9 48.5 48.1667 47.5 48.5C47.5 48.6667 47.8 49.796 49 50C50.5 50.255 55 49.5 58 50.5C57.5 55 50.5 63 41 75C48 88 69 102 78.5 104C103 83.5 100.5 50 99 43C100 49.5 97.6051 53 95 53C93.5 53 88.5 53.5 78 45.5Z" fill="white" stroke="#767676" stroke-width="2" stroke-linecap="round"/>
<path d="M24.5 113C29 111.5 38 109.5 42.5 107.5C48.1666 107.833 61 110 67 116C51 124 29.5 125.5 23 124.5C17.5 122.5 16.5 118 17 116.5C18.5 114.5 20 114.5 24.5 113Z" fill="white" stroke="#767676" stroke-width="2" stroke-linecap="round"/>
<path d="M76.5 107.5C77 107.167 78.4001 105.9 80 103.5L27.5001 70C13.0001 90.5 29.0001 102.5 39.0001 108.5C47.0001 113.3 82.6667 129.167 99.5001 136.5C100 136 99.1251 134.5 100 131C100.5 129 101.833 127 103 126.5L76.5 107.5Z" fill="white" stroke="#767676" stroke-width="2" stroke-linecap="round"/>
<rect x="20.366" y="36.366" width="99" height="38" rx="7" transform="rotate(30 20.366 36.366)" fill="white" stroke="#767676" stroke-width="2" stroke-linecap="round"/>
<rect x="50.641" y="61.9277" width="48" height="8" rx="4" transform="rotate(30 50.641 61.9277)" fill="#F0F0F0"/>
<rect x="43.641" y="74.0527" width="52" height="4" rx="2" transform="rotate(30 43.641 74.0527)" fill="#F0F0F0"/>
<rect x="40.641" y="79.249" width="40" height="4" rx="2" transform="rotate(30 40.641 79.249)" fill="#F0F0F0"/>
<circle cx="27.3205" cy="62.32" r="12" transform="rotate(30 27.3205 62.32)" fill="#F0F0F0"/>
<mask id="path-21-inside-2" fill="white">
<path fill-rule="evenodd" clip-rule="evenodd" d="M50.9225 47.6628C50.915 47.791 50.907 47.919 50.8985 48.047C50.4363 48.0158 49.97 48 49.5 48C38.1782 48 29 57.1782 29 68.5C29 73.1519 30.5495 77.442 33.1605 80.8822C30.1001 83.2024 26.7336 85.14 23.1323 86.6239C18.0782 81.0363 15 73.6276 15 65.5C15 48.103 29.103 34 46.5 34C47.4828 34 48.4551 34.045 49.4149 34.1331C49.6041 34.0458 49.7998 34 50 34C51.6569 34 53 37.134 53 41C53 44.115 52.128 46.7547 50.9225 47.6628Z"/>
</mask>
<path fill-rule="evenodd" clip-rule="evenodd" d="M50.9225 47.6628C50.915 47.791 50.907 47.919 50.8985 48.047C50.4363 48.0158 49.97 48 49.5 48C38.1782 48 29 57.1782 29 68.5C29 73.1519 30.5495 77.442 33.1605 80.8822C30.1001 83.2024 26.7336 85.14 23.1323 86.6239C18.0782 81.0363 15 73.6276 15 65.5C15 48.103 29.103 34 46.5 34C47.4828 34 48.4551 34.045 49.4149 34.1331C49.6041 34.0458 49.7998 34 50 34C51.6569 34 53 37.134 53 41C53 44.115 52.128 46.7547 50.9225 47.6628Z" fill="white"/>
<path d="M50.8985 48.047L50.764 50.0424L52.7605 50.1769L52.894 48.1804L50.8985 48.047ZM50.9225 47.6628L49.7192 46.0653L48.9798 46.6222L48.9259 47.5463L50.9225 47.6628ZM33.1605 80.8822L34.3688 82.4759L35.9634 81.267L34.7536 79.673L33.1605 80.8822ZM23.1323 86.6239L21.6491 87.9655L22.5931 89.0092L23.8943 88.473L23.1323 86.6239ZM49.4149 34.1331L49.2321 36.1247L49.7659 36.1737L50.2527 35.9492L49.4149 34.1331ZM52.894 48.1804C52.9029 48.0468 52.9113 47.9132 52.9191 47.7793L48.9259 47.5463C48.9188 47.6688 48.9111 47.7912 48.9029 47.9135L52.894 48.1804ZM49.5 50C49.9251 50 50.3466 50.0143 50.764 50.0424L51.0329 46.0515C50.5261 46.0173 50.0149 46 49.5 46V50ZM31 68.5C31 58.2827 39.2827 50 49.5 50V46C37.0736 46 27 56.0736 27 68.5H31ZM34.7536 79.673C32.3974 76.5686 31 72.7003 31 68.5H27C27 73.6035 28.7016 78.3154 31.5674 82.0913L34.7536 79.673ZM23.8943 88.473C27.6567 86.9228 31.1729 84.8988 34.3688 82.4759L31.9523 79.2884C29.0272 81.5059 25.8105 83.3572 22.3704 84.7747L23.8943 88.473ZM13 65.5C13 74.1425 16.2753 82.0246 21.6491 87.9655L24.6156 85.2822C19.881 80.048 17 73.1128 17 65.5H13ZM46.5 32C27.9985 32 13 46.9985 13 65.5H17C17 49.2076 30.2076 36 46.5 36V32ZM49.5976 32.1414C48.5771 32.0478 47.5439 32 46.5 32V36C47.4217 36 48.333 36.0422 49.2321 36.1247L49.5976 32.1414ZM50.2527 35.9492C50.2022 35.9724 50.1133 36 50 36V32C49.4862 32 49.0061 32.1191 48.5771 32.317L50.2527 35.9492ZM50 36C49.7379 36 49.6554 35.8676 49.7629 35.9736C49.8789 36.0881 50.0751 36.3529 50.283 36.8381C50.6958 37.8013 51 39.2714 51 41H55C55 38.8626 54.6326 36.8327 53.9596 35.2624C53.6246 34.4808 53.1744 33.7205 52.5726 33.1266C51.9622 32.5242 51.0905 32 50 32V36ZM51 41C51 42.3824 50.8051 43.6139 50.5069 44.5545C50.1866 45.5646 49.8322 45.9802 49.7192 46.0653L52.1259 49.2603C53.2184 48.4373 53.9027 47.079 54.3198 45.7635C54.7589 44.3785 55 42.7326 55 41H51Z" fill="#767676" mask="url(#path-21-inside-2)"/>
<path d="M47.4356 34.3519C47.9767 33.4214 48.5014 33.0808 48.8497 33.0144C49.1333 32.9604 49.5614 33.0456 50.0966 33.6781C50.6385 34.3185 51.1467 35.3748 51.5038 36.7812C51.8575 38.174 52.031 39.7851 51.9954 41.4188C51.9598 43.0533 51.7171 44.6116 51.3086 45.907C50.8944 47.2206 50.3553 48.121 49.8303 48.6006C49.3471 49.042 48.976 49.0592 48.6577 48.9271C48.2384 48.753 47.6863 48.2253 47.1747 47.1519" stroke="#767676" stroke-width="2" stroke-linecap="round"/>
<path d="M38.0052 82.1576C38.7554 84.9573 38.5087 86.6754 37.6506 87.8666C36.7524 89.1133 35.0077 90.0464 32.121 90.8199C29.2077 91.6005 26.5907 92.0095 24.5589 91.5984C23.5675 91.3978 22.744 91.0069 22.0867 90.3869C21.4287 89.7664 20.8791 88.8614 20.5249 87.5393C19.1323 82.3422 22.4033 77.8355 27.8701 76.3707C30.6426 75.6278 32.7971 75.8194 34.4055 76.7345C36.0112 77.648 37.264 79.3914 38.0052 82.1576Z" fill="white" stroke="#767676" stroke-width="2" stroke-linecap="round"/>
<path d="M123 65C123 67.3878 122.55 69.4067 121.6 70.8006C120.691 72.1334 119.255 73 116.969 73C114.665 73 112.96 72.1157 111.814 70.7272C110.649 69.3162 110 67.3082 110 65C110 62.6918 110.649 60.6838 111.814 59.2728C112.96 57.8843 114.665 57 116.969 57C119.255 57 120.691 57.8666 121.6 59.1994C122.55 60.5933 123 62.6122 123 65Z" fill="white" stroke="#767676" stroke-width="2" stroke-linecap="round"/>
</svg>
