<svg width="256" height="179" viewBox="0 0 256 179" fill="none" xmlns="http://www.w3.org/2000/svg">
<g clip-path="url(#clip0)">
<path d="M98 145C98 146.487 97.5964 147.788 96.9964 148.688C96.3917 149.595 95.6662 150 95 150C94.3338 150 93.6083 149.595 93.0036 148.688C92.4036 147.788 92 146.487 92 145C92 143.513 92.4036 142.212 93.0036 141.312C93.6083 140.405 94.3338 140 95 140C95.6662 140 96.3917 140.405 96.9964 141.312C97.5964 142.212 98 143.513 98 145Z" fill="white" stroke="#767676" stroke-width="2"/>
<mask id="path-2-inside-1" fill="white">
<path fill-rule="evenodd" clip-rule="evenodd" d="M158.71 109.575C155.459 110.954 151.883 111.717 148.129 111.717C145.848 111.717 143.633 111.435 141.516 110.905V101.361C144.154 102.493 147.06 103.12 150.113 103.12C153.165 103.12 156.072 102.493 158.71 101.361V109.575Z"/>
</mask>
<path fill-rule="evenodd" clip-rule="evenodd" d="M158.71 109.575C155.459 110.954 151.883 111.717 148.129 111.717C145.848 111.717 143.633 111.435 141.516 110.905V101.361C144.154 102.493 147.06 103.12 150.113 103.12C153.165 103.12 156.072 102.493 158.71 101.361V109.575Z" fill="white"/>
<path d="M158.71 109.575L159.491 111.416L160.71 110.899V109.575H158.71ZM141.516 110.905H139.516V112.465L141.03 112.845L141.516 110.905ZM141.516 101.361L142.305 99.5233L139.516 98.327V101.361H141.516ZM158.71 101.361H160.71V98.327L157.921 99.5234L158.71 101.361ZM148.129 113.717C152.156 113.717 155.997 112.898 159.491 111.416L157.929 107.734C154.92 109.01 151.61 109.717 148.129 109.717V113.717ZM141.03 112.845C143.304 113.415 145.683 113.717 148.129 113.717V109.717C146.013 109.717 143.961 109.456 142.002 108.965L141.03 112.845ZM143.516 110.905V101.361H139.516V110.905H143.516ZM140.728 103.199C143.61 104.436 146.784 105.12 150.113 105.12V101.12C147.336 101.12 144.698 100.55 142.305 99.5233L140.728 103.199ZM150.113 105.12C153.441 105.12 156.616 104.436 159.498 103.199L157.921 99.5234C155.528 100.55 152.889 101.12 150.113 101.12V105.12ZM156.71 101.361V109.575H160.71V101.361H156.71Z" fill="#767676" mask="url(#path-2-inside-1)"/>
<path d="M131.138 70C135.798 70 136.464 70 139.793 74.2784C144.146 79.8732 155.106 95.9994 141.125 122.328C134.467 132.201 137.13 133.189 112.163 130.885C111.19 130.774 110.365 130.63 109.671 130.459C109.236 131.847 108.87 133.089 108.906 133.663C109.101 133.726 109.299 133.787 109.5 133.847C109.1 134.116 108.927 134.015 108.906 133.663C98.371 130.309 94.5921 123.64 98.514 112.784C100.511 106.531 106.503 103.898 113.161 101.923C116.49 100.936 127.809 98.9614 123.148 84.1516C121.151 77.2404 122.482 70 131.138 70Z" fill="white"/>
<path d="M131.138 70C135.798 70 136.464 70 139.793 74.2784C144.146 79.8732 155.106 95.9994 141.125 122.328C134.467 132.201 137.13 133.189 112.163 130.885C103.507 129.897 106.503 126.277 110.165 124.632C113.095 123.315 107.058 135.492 109.5 133.847C98.514 130.556 94.5193 123.842 98.514 112.784C100.511 106.531 106.503 103.898 113.161 101.923C116.49 100.936 127.809 98.9614 123.148 84.1516C121.151 77.2404 122.482 70 131.138 70Z" stroke="#767676" stroke-width="2" stroke-linecap="round"/>
<ellipse cx="111.5" cy="119" rx="14.5" ry="15" fill="#767676"/>
<path d="M151.872 154.977C138.345 148.403 114.15 136.349 106.672 133.609C104.363 131.637 102.713 129.927 105.352 121.774C107.992 113.621 113.601 121.117 118.55 121.774C125.808 131.308 150.598 147.328 151.872 148.403C156.161 152.019 158.471 155.306 151.872 154.977Z" stroke="#767676" stroke-width="2" stroke-linecap="round"/>
<path d="M133 77C133 76.7348 133.105 76.4804 133.293 76.2929C133.48 76.1054 133.735 76 134 76C134.265 76 134.52 76.1054 134.707 76.2929C134.895 76.4804 135 76.7348 135 77" stroke="#767676" stroke-width="2" stroke-linecap="round"/>
<path d="M141 77C141 76.7348 141.105 76.4804 141.293 76.2929C141.48 76.1054 141.735 76 142 76C142.265 76 142.52 76.1054 142.707 76.2929C142.895 76.4804 143 76.7348 143 77" stroke="#767676" stroke-width="2" stroke-linecap="round"/>
<path d="M121.932 70.2185C121.302 71.296 121.67 73.1368 121.932 73.9224C120.094 75.2694 121.407 83.0139 122.195 84.6975C122.825 86.0444 123.333 86.1809 124 85.8449C124.333 85.5089 124.63 84.9128 124 81.1415C123.607 78.7899 124.475 77.1101 125 77.1101C125.525 77.1101 126.921 77.2897 127.447 75.9428C127.972 74.5959 127.929 74.4248 127.667 73.4146C127.404 72.4044 129.253 70.6022 132.667 70.055C135.03 69.6762 137 71.0629 138 71.3989C138.263 71.3989 139 70.9593 139 69.8818C139 68.8043 138.125 67.8614 137.687 67.5247C137.95 67.0758 138.16 66.0432 136.899 65.5044C135.639 64.9655 134.099 65.0554 133.486 65.1677C134.011 64.8309 134.641 63.9553 132.961 63.1472C131.28 62.339 128.234 65.0554 126.921 66.5147C126.921 66.2902 126.606 65.9086 125.346 66.1779C124.086 66.4473 123.42 68.7594 123.245 69.8818C123.07 69.5451 122.563 69.141 121.932 70.2185Z" fill="white" stroke="#767676" stroke-width="2" stroke-linecap="round"/>
<path d="M134.5 119C134.33 119 134.18 118.965 134.074 118.918C134.022 118.895 133.989 118.873 133.971 118.858C133.953 118.843 133.954 118.84 133.964 118.855C133.974 118.871 133.989 118.904 133.996 118.952C134.004 119.001 133.999 119.05 133.987 119.091C133.975 119.13 133.96 119.151 133.957 119.154C133.955 119.157 133.964 119.145 133.994 119.125C134.057 119.083 134.174 119.032 134.339 119.011C134.501 118.989 134.667 119.001 134.808 119.04C134.952 119.08 135.023 119.134 135.041 119.152C135.048 119.159 135.038 119.151 135.025 119.124C135.012 119.095 135 119.052 135 119" stroke="#F7CEB8" stroke-width="2" stroke-linecap="round"/>
<path d="M158.244 151.552C156.61 153.997 155.433 155.162 154.37 155.613C153.4 156.025 152.33 155.915 150.623 155.144C150.202 154.906 149.952 154.598 149.805 154.226C149.647 153.825 149.59 153.293 149.669 152.612C149.831 151.233 150.524 149.491 151.558 147.606C152.492 145.903 153.984 144.707 155.519 144.095C157.081 143.474 158.543 143.507 159.478 144.02C160.056 144.337 160.325 144.688 160.454 145.039C160.592 145.415 160.614 145.912 160.472 146.578C160.183 147.941 159.309 149.609 158.244 151.552Z" fill="white" stroke="#767676" stroke-width="2" stroke-linecap="round"/>
<path d="M158.277 151.491C156.833 153.747 155.774 154.802 154.908 155.253C154.154 155.646 153.44 155.635 152.43 155.323C152.163 155.136 151.929 154.686 152.17 153.484C152.418 152.25 153.106 150.655 154.06 148.915C154.938 147.313 156.195 146.132 157.401 145.472C158.666 144.78 159.629 144.775 160.092 145.029C160.383 145.188 160.498 145.37 160.55 145.599C160.614 145.882 160.594 146.309 160.422 146.924C160.077 148.158 159.254 149.708 158.277 151.491Z" stroke="#767676" stroke-width="2" stroke-linecap="round"/>
<path d="M133.506 93.2746C126.552 87.9789 117.279 85.331 114.299 85C114.034 85 113.747 85.5516 113.636 85.662C114.188 86.1033 115.292 87.7141 115.292 90.6268C115.292 93.5394 113.968 95.0399 113.305 95.2606C113.305 95.3709 113.504 96.1185 114.299 96.2535C115.292 96.4223 118.273 95.9225 120.26 96.5845C119.929 99.5634 115.292 104.859 109 112.803C113.636 121.408 127.545 130.676 133.838 132C150.065 118.43 148.409 96.2535 147.415 91.6197C148.078 95.9225 146.492 98.2394 144.766 98.2394C143.773 98.2394 140.461 98.5704 133.506 93.2746Z" fill="white" stroke="#767676" stroke-width="2" stroke-linecap="round"/>
<path d="M98.0137 137.502C100.977 136.547 106.903 135.274 109.867 134C113.598 134.212 122.049 135.592 126 139.413C115.464 144.507 101.306 145.462 97.0259 144.826C93.4042 143.552 92.7456 140.686 93.0749 139.731C94.0627 138.458 95.0504 138.458 98.0137 137.502Z" fill="white" stroke="#767676" stroke-width="2" stroke-linecap="round"/>
<path d="M132.401 133.812C132.733 133.591 133.663 132.753 134.725 131.165L99.8589 109C90.2292 122.564 100.855 130.504 107.496 134.474C112.809 137.65 136.496 148.148 147.676 153C148.008 152.669 147.427 151.677 148.008 149.361C148.34 148.038 149.225 146.714 150 146.383L132.401 133.812Z" fill="white" stroke="#767676" stroke-width="2" stroke-linecap="round"/>
<rect x="95.5919" y="87.2928" width="64.7903" height="24.4516" rx="7" transform="rotate(30 95.5919 87.2928)" fill="white" stroke="#767676" stroke-width="2" stroke-linecap="round"/>
<rect x="115.488" y="103.733" width="31.7419" height="5.29032" rx="2.64516" transform="rotate(30 115.488 103.733)" fill="#F0F0F0"/>
<rect x="110.859" y="111.752" width="34.3871" height="2.64516" rx="1.32258" transform="rotate(30 110.859 111.752)" fill="#F0F0F0"/>
<rect x="108.875" y="115.188" width="26.4516" height="2.64516" rx="1.32258" transform="rotate(30 108.875 115.188)" fill="#F0F0F0"/>
<circle cx="100.067" cy="103.992" r="7.93548" transform="rotate(30 100.067 103.992)" fill="#F0F0F0"/>
<mask id="path-22-inside-2" fill="white">
<path fill-rule="evenodd" clip-rule="evenodd" d="M115.675 94.2997C115.67 94.3846 115.664 94.4694 115.659 94.5541C115.353 94.5335 115.045 94.5231 114.734 94.5231C107.247 94.5231 101.177 100.592 101.177 108.08C101.177 111.156 102.202 113.993 103.929 116.268C101.905 117.802 99.6788 119.083 97.2974 120.065C93.955 116.37 91.9193 111.47 91.9193 106.095C91.9193 94.5908 101.246 85.2646 112.75 85.2646C113.4 85.2646 114.043 85.2944 114.678 85.3527C114.803 85.2949 114.932 85.2646 115.064 85.2646C116.16 85.2646 117.048 87.3371 117.048 89.8937C117.048 91.9535 116.472 93.6991 115.675 94.2997Z"/>
</mask>
<path fill-rule="evenodd" clip-rule="evenodd" d="M115.675 94.2997C115.67 94.3846 115.664 94.4694 115.659 94.5541C115.353 94.5335 115.045 94.5231 114.734 94.5231C107.247 94.5231 101.177 100.592 101.177 108.08C101.177 111.156 102.202 113.993 103.929 116.268C101.905 117.802 99.6788 119.083 97.2974 120.065C93.955 116.37 91.9193 111.47 91.9193 106.095C91.9193 94.5908 101.246 85.2646 112.75 85.2646C113.4 85.2646 114.043 85.2944 114.678 85.3527C114.803 85.2949 114.932 85.2646 115.064 85.2646C116.16 85.2646 117.048 87.3371 117.048 89.8937C117.048 91.9535 116.472 93.6991 115.675 94.2997Z" fill="white"/>
<path d="M115.659 94.5541L115.524 96.5496L117.521 96.6841L117.654 94.6875L115.659 94.5541ZM115.675 94.2997L114.471 92.7023L113.732 93.2592L113.678 94.1832L115.675 94.2997ZM103.929 116.268L105.137 117.861L106.732 116.653L105.522 115.059L103.929 116.268ZM97.2974 120.065L95.8142 121.406L96.7582 122.45L98.0593 121.914L97.2974 120.065ZM114.678 85.3527L114.495 87.3443L115.029 87.3933L115.515 87.1687L114.678 85.3527ZM117.654 94.6875C117.66 94.5972 117.666 94.5067 117.671 94.4162L113.678 94.1832C113.673 94.2625 113.668 94.3416 113.663 94.4207L117.654 94.6875ZM114.734 96.5231C115 96.5231 115.263 96.532 115.524 96.5496L115.793 92.5586C115.443 92.535 115.09 92.5231 114.734 92.5231V96.5231ZM103.177 108.08C103.177 101.697 108.351 96.5231 114.734 96.5231V92.5231C106.142 92.5231 99.1774 99.4879 99.1774 108.08H103.177ZM105.522 115.059C104.05 113.119 103.177 110.704 103.177 108.08H99.1774C99.1774 111.607 100.354 114.866 102.336 117.477L105.522 115.059ZM98.0593 121.914C100.602 120.866 102.978 119.498 105.137 117.861L102.72 114.674C100.832 116.106 98.7557 117.301 96.5354 118.215L98.0593 121.914ZM89.9193 106.095C89.9193 111.985 92.1521 117.358 95.8142 121.406L98.7806 118.723C95.7578 115.381 93.9193 110.955 93.9193 106.095H89.9193ZM112.75 83.2646C100.141 83.2646 89.9193 93.4863 89.9193 106.095H93.9193C93.9193 95.6954 102.35 87.2646 112.75 87.2646V83.2646ZM114.86 83.361C114.165 83.2972 113.461 83.2646 112.75 83.2646V87.2646C113.339 87.2646 113.921 87.2916 114.495 87.3443L114.86 83.361ZM115.515 87.1687C115.401 87.2216 115.246 87.2646 115.064 87.2646V83.2646C114.619 83.2646 114.205 83.3683 113.84 83.5366L115.515 87.1687ZM115.064 87.2646C114.662 87.2646 114.446 87.0659 114.432 87.0519C114.426 87.0464 114.513 87.1377 114.629 87.4083C114.858 87.9424 115.048 88.8198 115.048 89.8937H119.048C119.048 88.411 118.795 86.9739 118.306 85.8326C118.063 85.2656 117.722 84.6789 117.242 84.2049C116.753 83.7225 116.015 83.2646 115.064 83.2646V87.2646ZM115.048 89.8937C115.048 90.7485 114.927 91.4927 114.754 92.0395C114.559 92.6557 114.38 92.7709 114.471 92.7023L116.878 95.8971C117.766 95.2279 118.275 94.1701 118.567 93.2484C118.881 92.2573 119.048 91.0987 119.048 89.8937H115.048Z" fill="#767676" mask="url(#path-22-inside-2)"/>
<path d="M113.86 85.7114C114.185 85.1153 114.443 85.0105 114.488 85.0014C114.494 85.0003 114.509 84.9944 114.559 85.0187C114.621 85.0488 114.734 85.1272 114.879 85.3096C115.176 85.6839 115.48 86.3388 115.698 87.255C115.912 88.1565 116.019 89.2057 115.997 90.2733C115.975 91.3418 115.827 92.3542 115.58 93.1883C115.327 94.0429 115.01 94.5822 114.743 94.8431C114.617 94.9652 114.538 94.9923 114.516 94.9977C114.505 95.0003 114.5 95.0002 114.496 94.9998C114.491 94.9994 114.477 94.9975 114.451 94.9861C114.318 94.9271 114.018 94.6747 113.708 93.9802" stroke="#767676" stroke-width="2" stroke-linecap="round"/>
<path d="M106.805 117.198C107.29 119.006 107.105 120.02 106.623 120.688C106.101 121.412 105.048 122.004 103.154 122.512C101.233 123.027 99.5685 123.277 98.3078 123.022C97.7019 122.899 97.2185 122.665 96.8381 122.306C96.4571 121.947 96.1214 121.408 95.9001 120.582C95.0394 117.37 97.0361 114.544 100.518 113.611C102.298 113.134 103.623 113.272 104.585 113.819C105.543 114.364 106.33 115.425 106.805 117.198Z" fill="white" stroke="#767676" stroke-width="2" stroke-linecap="round"/>
<path d="M163 106C163 107.559 162.705 108.828 162.124 109.679C161.586 110.469 160.736 111 159.312 111C157.872 111 156.831 110.451 156.133 109.606C155.416 108.738 155 107.48 155 106C155 104.52 155.416 103.262 156.133 102.394C156.831 101.549 157.872 101 159.312 101C160.736 101 161.586 101.531 162.124 102.321C162.705 103.172 163 104.441 163 106Z" fill="white" stroke="#767676" stroke-width="2" stroke-linecap="round"/>
<rect x="197" y="-274" width="199" height="438" rx="10" stroke="white" stroke-width="4"/>
<path fill-rule="evenodd" clip-rule="evenodd" d="M226 135H216V140V142V150H218V146C218 145.448 218.448 145 219 145H223C223.552 145 224 145.448 224 146V150H226V135ZM224 152H228H229C229.552 152 230 151.552 230 151C230 150.448 229.552 150 229 150H228V134.909C228 133.855 227.105 133 226 133H216C214.895 133 214 133.855 214 134.909V140V142V150H213H212V142H213V140H212C210.895 140 210 140.895 210 142V150H209C208.448 150 208 150.448 208 151C208 151.552 208.448 152 209 152H210H212H213H214H218H220H222H224ZM222 150V147H220V150H222ZM218 137.5C218 137.224 218.224 137 218.5 137H219.5C219.776 137 220 137.224 220 137.5V138.5C220 138.776 219.776 139 219.5 139H218.5C218.224 139 218 138.776 218 138.5V137.5ZM222.5 137C222.224 137 222 137.224 222 137.5V138.5C222 138.776 222.224 139 222.5 139H223.5C223.776 139 224 138.776 224 138.5V137.5C224 137.224 223.776 137 223.5 137H222.5ZM218 141.5C218 141.224 218.224 141 218.5 141H219.5C219.776 141 220 141.224 220 141.5V142.5C220 142.776 219.776 143 219.5 143H218.5C218.224 143 218 142.776 218 142.5V141.5ZM222.5 141C222.224 141 222 141.224 222 141.5V142.5C222 142.776 222.224 143 222.5 143H223.5C223.776 143 224 142.776 224 142.5V141.5C224 141.224 223.776 141 223.5 141H222.5Z" fill="white"/>
<path fill-rule="evenodd" clip-rule="evenodd" d="M261 139C261 140.664 260.325 142.167 259.229 143.256C258.533 143.948 257.802 144.874 257.374 146H252.626C252.198 144.874 251.467 143.948 250.771 143.256C249.675 142.167 249 140.664 249 139C249 135.686 251.686 133 255 133C258.314 133 261 135.686 261 139ZM249.361 144.674C250.27 145.578 251 146.719 251 148H253H257H259C259 146.719 259.73 145.578 260.639 144.674C262.097 143.225 263 141.218 263 139C263 134.582 259.418 131 255 131C250.582 131 247 134.582 247 139C247 141.218 247.903 143.225 249.361 144.674ZM259 150V149H251V150C251 150.552 251.448 151 252 151H258C258.552 151 259 150.552 259 150ZM254 152C254 152.552 254.448 153 255 153C255.552 153 256 152.552 256 152H254ZM253 135.536C253.239 135.398 253.321 135.092 253.183 134.853C253.045 134.614 252.739 134.532 252.5 134.67C251.74 135.109 251.109 135.74 250.67 136.5C250.532 136.739 250.614 137.045 250.853 137.183C251.092 137.321 251.398 137.239 251.536 137C251.887 136.392 252.392 135.887 253 135.536Z" fill="white"/>
<rect x="208" y="104" width="48" height="14" rx="4" fill="white"/>
<rect x="208" y="82" width="104" height="14" rx="4" fill="white"/>
<rect x="208" y="24" width="104" height="50" rx="4" fill="white"/>
<line x1="-6" y1="161" x2="49" y2="161" stroke="white" stroke-width="8" stroke-linecap="round"/>
<line x1="-6" y1="150" x2="49" y2="150" stroke="white" stroke-width="8" stroke-linecap="round"/>
<line x1="-6" y1="139" x2="49" y2="139" stroke="white" stroke-width="8" stroke-linecap="round"/>
<line x1="-6" y1="128" x2="49" y2="128" stroke="white" stroke-width="8" stroke-linecap="round"/>
<line x1="-6" y1="117" x2="49" y2="117" stroke="white" stroke-width="8" stroke-linecap="round"/>
<line x1="-6" y1="106" x2="49" y2="106" stroke="white" stroke-width="8" stroke-linecap="round"/>
<line x1="-6" y1="95" x2="49" y2="95" stroke="white" stroke-width="8" stroke-linecap="round"/>
<line x1="-6" y1="84" x2="49" y2="84" stroke="white" stroke-width="8" stroke-linecap="round"/>
</g>
<defs>
<clipPath id="clip0">
<rect width="256" height="179" fill="white"/>
</clipPath>
</defs>
</svg>
