<svg width="24" height="24" viewBox="0 0 24 24" fill="none" xmlns="http://www.w3.org/2000/svg">
<path fill-rule="evenodd" clip-rule="evenodd" d="M5.00034 5H19.0003C20.0889 5 20.9743 5.86967 20.9998 6.95213L13.4369 11.0773C12.5415 11.5658 11.4592 11.5658 10.5638 11.0773L3.0009 6.95213C3.02632 5.86967 3.91177 5 5.00034 5ZM1 7.00062L1.00034 7C1.00034 4.79086 2.7912 3 5.00034 3H19.0003C21.2095 3 23.0003 4.79086 23.0003 7H23V10H23.0003V18C23.0003 20.2091 21.2095 22 19.0003 22H5.00034C2.7912 22 1.00034 20.2091 1.00034 18V8.13909L1 8.1389V7.00062ZM21.0003 9.23V18C21.0003 19.1046 20.1049 20 19.0003 20H5.00034C3.89577 20 3.00034 19.1046 3.00034 18V9.23L9.60608 12.8331C11.0985 13.6472 12.9022 13.6472 14.3946 12.8331L21.0003 9.23Z" fill="#767676"/>
</svg>
