<svg width="48" height="48" viewBox="0 0 48 48" fill="none" xmlns="http://www.w3.org/2000/svg">
<circle cx="24" cy="24" r="23.5" stroke="#F0F0F0"/>
<path fill-rule="evenodd" clip-rule="evenodd" d="M17.0003 17H31.0003C32.0889 17 32.9743 17.8697 32.9998 18.9521L25.4369 23.0773C24.5415 23.5658 23.4592 23.5658 22.5638 23.0773L15.0009 18.9521C15.0263 17.8697 15.9118 17 17.0003 17ZM13 19.0006L13.0003 19C13.0003 16.7909 14.7912 15 17.0003 15H31.0003C33.2095 15 35.0003 16.7909 35.0003 19H35V22H35.0003V30C35.0003 32.2091 33.2095 34 31.0003 34H17.0003C14.7912 34 13.0003 32.2091 13.0003 30V20.1391L13 20.1389V19.0006ZM33.0003 21.23V30C33.0003 31.1046 32.1049 32 31.0003 32H17.0003C15.8958 32 15.0003 31.1046 15.0003 30V21.23L21.6061 24.8331C23.0985 25.6472 24.9022 25.6472 26.3946 24.8331L33.0003 21.23Z" fill="black"/>
</svg>
