<svg width="48" height="48" viewBox="0 0 48 48" fill="none" xmlns="http://www.w3.org/2000/svg">
<circle cx="24" cy="24" r="23.5" stroke="#F0F0F0"/>
<path fill-rule="evenodd" clip-rule="evenodd" d="M19.3137 20.8548V33H15.2408V20.8548H19.3137ZM19.5815 17.0985C19.5815 18.264 18.6975 19.1966 17.2772 19.1966H17.2771H17.2507C15.8838 19.1966 15 18.264 15 17.0985C15 15.9067 15.9109 15 17.3041 15C18.6975 15 19.5551 15.9067 19.5815 17.0985ZM25.6403 33H21.5676C21.5676 33 21.621 21.9944 21.5676 20.8548H25.6405V22.5743C25.6313 22.5884 25.6222 22.6023 25.6133 22.6162H25.6405V22.5743C26.1817 21.7468 27.1504 20.5698 29.311 20.5698C31.9906 20.5698 34 22.3057 34 26.0361V33H29.9274V26.5026C29.9274 24.8699 29.3379 23.7562 27.8641 23.7562C26.739 23.7562 26.0688 24.5073 25.7744 25.2325C25.6668 25.492 25.6403 25.8546 25.6403 26.2176V33Z" fill="black"/>
</svg>
