<svg width="24" height="24" viewBox="0 0 24 24" fill="none" xmlns="http://www.w3.org/2000/svg">
<path fill-rule="evenodd" clip-rule="evenodd" d="M7.31368 8.85481V21H3.24077V8.85481H7.31368ZM7.58154 5.09847C7.58154 6.26397 6.69751 7.19659 5.2772 7.19659H5.27713H5.25066C3.88383 7.19659 3 6.26397 3 5.09847C3 3.90674 3.91093 3 5.30415 3C6.69751 3 7.55507 3.90674 7.58154 5.09847ZM13.6403 21H9.56758C9.56758 21 9.62103 9.99443 9.56758 8.85481H13.6405V10.5743C13.6313 10.5884 13.6222 10.6023 13.6133 10.6162H13.6405V10.5743C14.1817 9.74677 15.1504 8.56981 17.311 8.56981C19.9906 8.56981 22 10.3057 22 14.0361V21H17.9274V14.5026C17.9274 12.8699 17.3379 11.7562 15.8641 11.7562C14.739 11.7562 14.0688 12.5073 13.7744 13.2325C13.6668 13.492 13.6403 13.8546 13.6403 14.2176V21Z" fill="#454545"/>
</svg>
