<svg width="24" height="24" viewBox="0 0 24 24" fill="none" xmlns="http://www.w3.org/2000/svg">
<path fill-rule="evenodd" clip-rule="evenodd" d="M14.0721 12.2274C14.0938 12.1944 14.1053 12.156 14.1053 12.1168V6.0976C14.1053 5.89234 13.8306 5.81407 13.7173 5.98703L9.92785 11.7727C9.90623 11.8057 9.89474 11.8441 9.89474 11.8832L9.89474 17.9025C9.89474 18.1077 10.1694 18.186 10.2827 18.013L14.0721 12.2274ZM16.0721 9.17383C15.9589 9.3468 15.6842 9.26853 15.6842 9.06327V2.77663C15.6842 2.00204 14.6476 1.70611 14.2198 2.35927L10.2827 8.37027C10.1694 8.54324 9.89474 8.46496 9.89474 8.25971V6.55812C9.89474 6.44471 9.80048 6.35277 9.68421 6.35277H8.52632C8.41005 6.35277 8.31579 6.44471 8.31579 6.55812V11.3132C8.31579 11.3524 8.3043 11.3908 8.28267 11.4238L3.96688 18.013C3.85359 18.186 3.57895 18.1077 3.57895 17.9025L3.57895 6.55812C3.57895 6.44471 3.48469 6.35277 3.36842 6.35277H2.21053C2.09426 6.35277 2 6.44471 2 6.55812V21.2234C2 21.9985 3.03692 22.2935 3.46446 21.6408L7.92785 14.8262C8.04114 14.6532 8.31579 14.7315 8.31579 14.9368V21.2234C8.31579 21.9985 9.35271 22.2935 9.78025 21.6408L13.7173 15.6298C13.8306 15.4568 14.1053 15.5351 14.1053 15.7403V17.4419C14.1053 17.5553 14.1995 17.6473 14.3158 17.6473H15.4737C15.59 17.6473 15.6842 17.5553 15.6842 17.4419V12.6868C15.6842 12.6476 15.6957 12.6093 15.7173 12.5762L20.0331 5.98703C20.1464 5.81407 20.4211 5.89234 20.4211 6.0976V17.4419C20.4211 17.5553 20.5153 17.6473 20.6316 17.6473H21.7895C21.9057 17.6473 22 17.5553 22 17.4419V2.77663C22 2.00204 20.9633 1.70611 20.5355 2.35927L16.0721 9.17383Z" fill="#454545"/>
</svg>
