<svg width="24" height="24" viewBox="0 0 24 24" fill="none" xmlns="http://www.w3.org/2000/svg">
<g clip-path="url(#clip0)">
<path d="M20.6973 15.301C20.6992 17.4045 19.201 19.2165 17.1638 19.5728C16.9073 19.6173 16.6483 19.6437 16.388 19.6412C16.3002 19.6402 16.2657 19.6757 16.2379 19.757C15.8312 20.9377 15.0195 21.6415 13.7934 21.819C12.9823 21.9363 12.2463 21.7164 11.6011 21.2037C11.5112 21.1322 11.4562 21.131 11.3625 21.1987C10.6079 21.7445 9.76174 21.9861 8.83776 21.9297C7.03474 21.8197 5.51767 20.4263 5.23387 18.6295C5.21435 18.5053 5.1936 18.3802 5.19173 18.255C5.18985 18.1509 5.15077 18.1108 5.05243 18.0913C4.50656 17.9837 4.0112 17.7564 3.57417 17.4105C2.76987 16.7738 2.28731 15.9425 2.17499 14.9141C2.0469 13.7371 2.40645 12.7194 3.22528 11.8714C3.29129 11.8033 3.29541 11.756 3.25038 11.676C2.93559 11.1203 2.78638 10.5184 2.81061 9.88017C2.87104 8.28731 3.96727 6.97132 5.49207 6.6455C5.66848 6.60759 5.76096 6.53766 5.83849 6.36862C6.59058 4.73028 7.85339 3.73386 9.60576 3.40522C10.8359 3.17439 11.9963 3.42154 13.0732 4.06195C13.1637 4.11594 13.2395 4.12028 13.3375 4.09144C15.0478 3.5897 16.5632 3.95471 17.8498 5.19167C18.6107 5.923 19.0276 6.84855 19.151 7.90445C19.178 8.13528 19.1903 8.36829 19.1729 8.60037C19.1664 8.68815 19.1931 8.72485 19.2753 8.75559C20.0463 9.04415 20.578 9.58227 20.8106 10.3782C21.1002 11.3683 20.8569 12.2365 20.1252 12.9584C20.0618 13.0211 20.0752 13.0594 20.1111 13.1221C20.4978 13.7957 20.6981 14.5207 20.6973 15.301ZM13.0658 14.9632C13.0664 15.8582 13.6347 16.6493 14.4405 16.9181C14.8443 17.0529 15.2608 17.1169 15.6837 17.1357C15.9855 17.1489 16.2869 17.1275 16.5658 16.987C16.7851 16.8763 16.8884 16.6934 16.8784 16.4498C16.8685 16.2045 16.7599 16.0211 16.5279 15.9235C16.4473 15.8896 16.3654 15.862 16.2798 15.847C16.0239 15.8008 15.7667 15.762 15.5121 15.7109C15.0918 15.6263 14.9156 15.4014 14.91 14.9717C14.9051 14.5916 15.0071 14.2331 15.1228 13.8784C15.3344 13.2293 15.6196 12.6105 15.893 11.9867C16.1569 11.3843 16.4336 10.7868 16.62 10.1523C16.7227 9.80391 16.7717 9.45456 16.6783 9.09421C16.5362 8.54726 16.2121 8.18067 15.6531 8.07524C15.1414 7.97896 14.632 7.96801 14.1693 8.27659C14.0154 8.37883 13.8674 8.35438 13.7339 8.23517C13.6318 8.14453 13.5347 8.04857 13.4348 7.95543C12.9628 7.5148 12.3387 7.49316 11.8319 7.89558C11.6274 8.058 11.4554 8.25939 11.2332 8.40051C11.0347 8.52656 10.8346 8.56229 10.6148 8.44377C10.4054 8.33085 10.1887 8.23147 9.97243 8.13237C9.75342 8.03235 9.54126 7.90879 9.29472 7.88776C8.51493 7.82065 7.69888 8.2892 7.35488 9.00144C7.20224 9.31663 7.07762 9.64407 6.95945 9.97363C6.41381 11.4972 5.96937 13.0534 5.50939 14.6042C5.30341 15.2983 5.54651 15.9812 6.12777 16.3561C6.58126 16.6483 7.07781 16.7206 7.59186 16.5644C8.00832 16.4376 8.23639 16.0987 8.39579 15.7179C8.92553 14.4547 9.4026 13.17 9.90756 11.8968C10.0465 11.5464 10.1811 11.1946 10.3285 10.848C10.4773 10.4981 10.9051 10.3789 11.1588 10.6109C11.3136 10.7526 11.3545 10.9412 11.3393 11.1428C11.3226 11.3583 11.24 11.5571 11.1625 11.755C10.834 12.5949 10.4993 13.4323 10.1693 14.2715C10.1026 14.4412 10.0304 14.6095 10.0009 14.7917C9.95035 15.1045 10.0728 15.3817 10.3259 15.4921C10.584 15.6047 10.852 15.6235 11.1196 15.5253C11.431 15.4112 11.6171 15.1647 11.7605 14.8798C12.253 13.9018 12.7418 12.9213 13.2341 11.9432C13.4614 11.4913 13.6928 11.0416 13.9251 10.5924C14.0114 10.4259 14.1125 10.2682 14.2737 10.1647C14.4193 10.0715 14.5761 10.0646 14.7253 10.1493C14.8709 10.2318 14.8807 10.3824 14.8746 10.531C14.8712 10.6109 14.8491 10.6891 14.8187 10.7634C14.7549 10.918 14.6953 11.0748 14.6245 11.2263C14.2151 12.0972 13.7995 12.9647 13.3937 13.8375C13.2227 14.2058 13.0447 14.5759 13.0658 14.9632ZM18.8086 21.3814C18.8096 20.8037 18.3306 20.3207 17.7546 20.3191C17.1643 20.317 16.6855 20.7946 16.6829 21.3871C16.6805 21.9662 17.1675 22.4577 17.7434 22.4584C18.3275 22.459 18.8077 21.9736 18.8086 21.3814ZM1.00256 12.5289C1.55808 12.5301 2.02551 12.0607 2.02331 11.504C2.0208 10.9464 1.56334 10.4841 1.01248 10.4825C0.447909 10.481 -0.000319829 10.9339 1.71234e-07 11.5056C0.000457314 12.0713 0.44736 12.5276 1.00256 12.5289ZM13.4417 1.079C12.8834 1.07585 12.4284 1.52717 12.4252 2.08664C12.4219 2.64552 12.8753 3.10469 13.4308 3.10529C13.9841 3.10561 14.4286 2.65744 14.4296 2.0976C14.4309 1.53503 13.9914 1.08182 13.4417 1.079ZM21.6619 7.41255C21.6594 6.94867 21.2683 6.55416 20.8077 6.55102C20.3375 6.5476 19.9392 6.94936 19.9423 7.42383C19.9456 7.8971 20.3253 8.27654 20.7962 8.27719C21.2813 8.27816 21.6646 7.89493 21.6619 7.41255ZM4.05033 4.93555C4.05033 5.37119 4.38565 5.71301 4.81367 5.71365C5.24722 5.71426 5.58354 5.37059 5.58199 4.92866C5.58043 4.5 5.24453 4.1647 4.81801 4.166C4.37938 4.16687 4.05056 4.49648 4.05033 4.93555ZM12.0689 22.9031C12.0726 22.5403 11.7773 22.2414 11.4144 22.2401C11.0419 22.239 10.7493 22.5309 10.7503 22.9025C10.7512 23.2691 11.0423 23.5595 11.4083 23.5595C11.7739 23.5598 12.0657 23.27 12.0689 22.9031ZM22.3077 12.5936C21.959 12.591 21.6566 12.8968 21.6594 13.249C21.6624 13.5971 21.9498 13.8828 22.2977 13.8835C22.6625 13.8842 22.9361 13.6126 22.937 13.2481C22.938 12.8874 22.6579 12.5961 22.3077 12.5936ZM6.99415 0.437017C6.68676 0.435769 6.44951 0.673166 6.44951 0.982439C6.44951 1.28977 6.68923 1.52874 6.99634 1.52717C7.2944 1.5256 7.52795 1.28533 7.52795 0.980174C7.528 0.672195 7.2981 0.438588 6.99415 0.437017ZM23.5242 9.66432C23.2736 9.66145 23.0465 9.88822 23.0434 10.1451C23.04 10.4107 23.2586 10.6318 23.5254 10.6324C23.7903 10.6334 23.9981 10.4251 24 10.1561C24.0025 9.88544 23.7915 9.66774 23.5242 9.66432ZM4.55031 19.2322C4.5515 18.975 4.33221 18.7536 4.07387 18.7512C3.81202 18.7489 3.59675 18.9717 3.59863 19.2426C3.60078 19.5073 3.81326 19.7165 4.0779 19.7146C4.33755 19.713 4.54944 19.4969 4.55031 19.2322Z" fill="#454545"/>
<path d="M13.0661 14.965C13.0668 15.86 13.635 16.651 14.4408 16.9198C14.8447 17.0546 15.2612 17.1186 15.684 17.1374C15.9859 17.1506 16.2872 17.1293 16.5661 16.9887C16.7854 16.878 16.8887 16.6951 16.8788 16.4515C16.8689 16.2063 16.7603 16.0228 16.5283 15.9252C16.4476 15.8913 16.3658 15.8637 16.2801 15.8487C16.0242 15.8025 15.7671 15.7637 15.5125 15.7126C15.0922 15.628 14.916 15.4031 14.9104 14.9734C14.9055 14.5933 15.0075 14.2348 15.1232 13.8802C15.3347 13.231 15.62 12.6122 15.8934 11.9884C16.1573 11.386 16.4339 10.7885 16.6203 10.1541C16.723 9.80563 16.772 9.45629 16.6787 9.09594C16.5366 8.54899 16.2124 8.1824 15.6535 8.07697C15.1418 7.98069 14.6324 7.96973 14.1696 8.27831C14.0158 8.38056 13.8678 8.35611 13.7342 8.2369C13.6322 8.14626 13.5351 8.0503 13.4352 7.95716C12.9632 7.51653 12.3391 7.49489 11.8323 7.8973C11.6278 8.05973 11.4557 8.26112 11.2336 8.40223C11.0351 8.52828 10.835 8.56401 10.6152 8.4455C10.4058 8.33258 10.189 8.2332 9.9728 8.1341C9.75378 8.03408 9.54162 7.91052 9.29509 7.88949C8.51529 7.82238 7.69925 8.29093 7.35525 9.00317C7.20261 9.31836 7.07799 9.6458 6.95982 9.97536C6.41417 11.4989 5.96974 13.0551 5.50976 14.6059C5.30377 15.3 5.54688 15.983 6.12814 16.3578C6.58162 16.65 7.07817 16.7223 7.59223 16.5661C8.00869 16.4394 8.23675 16.1004 8.39616 15.7196C8.9259 14.4564 9.40297 13.1718 9.90793 11.8985C10.0469 11.5482 10.1814 11.1963 10.3289 10.8497C10.4777 10.4998 10.9054 10.3806 11.1591 10.6127C11.314 10.7543 11.3548 10.9429 11.3397 11.1446C11.323 11.36 11.2404 11.5588 11.1629 11.7567C10.8343 12.5966 10.4997 13.434 10.1697 14.2732C10.103 14.4429 10.0307 14.6113 10.0012 14.7934C9.95072 15.1062 10.0732 15.3835 10.3262 15.4938C10.5844 15.6064 10.8523 15.6252 11.12 15.527C11.4314 15.4129 11.6175 15.1664 11.7608 14.8816C12.2534 13.9035 12.7422 12.923 13.2344 11.9449C13.4618 11.4931 13.6932 11.0433 13.9254 10.5941C14.0118 10.4276 14.1129 10.2699 14.2741 10.1664C14.4197 10.0733 14.5765 10.0663 14.7257 10.1511C14.8713 10.2335 14.8811 10.3841 14.8749 10.5328C14.8716 10.6127 14.8495 10.6908 14.8191 10.7651C14.7552 10.9197 14.6956 11.0766 14.6249 11.2281C14.2155 12.0989 13.7998 12.9664 13.3941 13.8392C13.223 14.2076 13.045 14.5777 13.0661 14.965Z" fill="white"/>
</g>
<defs>
<clipPath id="clip0">
<rect width="24" height="23.1111" fill="white" transform="translate(0 0.444336)"/>
</clipPath>
</defs>
</svg>
