<svg width="24" height="24" viewBox="0 0 24 24" fill="none" xmlns="http://www.w3.org/2000/svg">
<g clip-path="url(#clip0)">
<path d="M20.6973 15.4281C20.6992 17.6114 19.201 19.4922 17.1638 19.862C16.9073 19.9082 16.6483 19.9356 16.388 19.933C16.3002 19.932 16.2657 19.9688 16.2379 20.0532C15.8312 21.2787 15.0195 22.0092 13.7934 22.1934C12.9823 22.3152 12.2463 22.087 11.6011 21.5548C11.5112 21.4806 11.4562 21.4793 11.3625 21.5496C10.6079 22.1161 9.76173 22.3669 8.83775 22.3084C7.03473 22.1942 5.51766 20.7479 5.23387 18.8829C5.21435 18.754 5.1936 18.6241 5.19173 18.4942C5.18985 18.3861 5.15077 18.3445 5.05243 18.3243C4.50656 18.2126 4.0112 17.9767 3.57417 17.6176C2.76987 16.9568 2.28731 16.0939 2.17499 15.0265C2.0469 13.8048 2.40645 12.7485 3.22528 11.8683C3.29129 11.7976 3.29541 11.7486 3.25038 11.6655C2.93559 11.0887 2.78638 10.464 2.81061 9.80153C2.87104 8.14822 3.96727 6.78229 5.49206 6.4441C5.66847 6.40476 5.76095 6.33217 5.83848 6.15672C6.59057 4.4562 7.85338 3.42197 9.60575 3.08085C10.8359 2.84126 11.9963 3.09779 13.0732 3.76251C13.1637 3.81855 13.2395 3.82305 13.3375 3.79312C15.0478 3.27233 16.5632 3.6512 17.8498 4.9351C18.6107 5.69418 19.0276 6.65486 19.151 7.75083C19.178 7.99042 19.1903 8.23228 19.1729 8.47316C19.1664 8.56427 19.1931 8.60237 19.2753 8.63427C20.0463 8.93379 20.578 9.49233 20.8106 10.3185C21.1002 11.3461 20.8569 12.2473 20.1252 12.9966C20.0618 13.0617 20.0752 13.1014 20.1111 13.1665C20.4978 13.8657 20.6981 14.6182 20.6973 15.4281ZM13.0658 15.0775C13.0664 16.0064 13.6347 16.8276 14.4405 17.1066C14.8443 17.2465 15.2608 17.3129 15.6837 17.3324C15.9855 17.3461 16.2869 17.3239 16.5658 17.1781C16.7851 17.0632 16.8884 16.8733 16.8784 16.6205C16.8685 16.3659 16.7599 16.1755 16.5279 16.0742C16.4473 16.039 16.3654 16.0104 16.2798 15.9948C16.0239 15.9469 15.7667 15.9066 15.5121 15.8535C15.0918 15.7657 14.9156 15.5323 14.91 15.0863C14.9051 14.6918 15.0071 14.3197 15.1228 13.9515C15.3344 13.2778 15.6196 12.6355 15.893 11.988C16.1569 11.3627 16.4336 10.7426 16.62 10.084C16.7227 9.72238 16.7717 9.35977 16.6783 8.98574C16.5362 8.41804 16.2121 8.03753 15.6531 7.9281C15.1414 7.82817 14.632 7.8168 14.1693 8.1371C14.0154 8.24322 13.8674 8.21784 13.7339 8.0941C13.6318 8.00002 13.5347 7.90042 13.4348 7.80375C12.9628 7.34639 12.3387 7.32393 11.8319 7.74162C11.6274 7.91021 11.4554 8.11924 11.2332 8.26572C11.0347 8.39655 10.8346 8.43364 10.6148 8.31062C10.4054 8.19341 10.1887 8.09026 9.97242 7.9874C9.75341 7.88359 9.54125 7.75534 9.29471 7.73351C8.51492 7.66385 7.69887 8.15018 7.35487 8.88945C7.20223 9.21661 7.07761 9.55647 6.95944 9.89854C6.4138 11.4799 5.96936 13.0952 5.50938 14.7048C5.3034 15.4253 5.5465 16.1341 6.12776 16.5232C6.58125 16.8265 7.0778 16.9016 7.59185 16.7394C8.00831 16.6078 8.23638 16.2561 8.39578 15.8608C8.92552 14.5497 9.40259 13.2162 9.90755 11.8947C10.0465 11.531 10.1811 11.1658 10.3285 10.8061C10.4773 10.4429 10.9051 10.3192 11.1588 10.56C11.3136 10.7071 11.3545 10.9028 11.3393 11.1121C11.3226 11.3358 11.24 11.5421 11.1625 11.7475C10.834 12.6193 10.4993 13.4885 10.1693 14.3595C10.1026 14.5357 10.0304 14.7103 10.0009 14.8995C9.95034 15.2241 10.0728 15.5118 10.3259 15.6264C10.584 15.7433 10.852 15.7628 11.1196 15.6609C11.431 15.5425 11.6171 15.2866 11.7605 14.9909C12.253 13.9758 12.7418 12.9581 13.2341 11.9429C13.4614 11.4738 13.6928 11.007 13.9251 10.5408C14.0114 10.368 14.1125 10.2043 14.2737 10.0969C14.4193 10.0001 14.5761 9.99296 14.7253 10.0809C14.8709 10.1665 14.8807 10.3228 14.8746 10.4771C14.8712 10.56 14.8491 10.6412 14.8187 10.7183C14.7549 10.8787 14.6953 11.0415 14.6245 11.1987C14.2151 12.1027 13.7995 13.0031 13.3937 13.909C13.2227 14.2913 13.0447 14.6755 13.0658 15.0775ZM18.8086 21.7392C18.8096 21.1396 18.3306 20.6383 17.7546 20.6366C17.1643 20.6344 16.6855 21.1302 16.6829 21.7452C16.6805 22.3462 17.1675 22.8564 17.7434 22.8571C18.3275 22.8577 18.8077 22.3539 18.8086 21.7392ZM1.00256 12.5508C1.55808 12.552 2.02551 12.0648 2.02331 11.487C2.0208 10.9082 1.56334 10.4284 1.01248 10.4267C0.447909 10.4252 -0.000319829 10.8953 1.71234e-07 11.4886C0.000457314 12.0758 0.44736 12.5494 1.00256 12.5508ZM13.4417 0.666352C12.8834 0.663082 12.4284 1.13153 12.4252 1.71223C12.4219 2.29232 12.8753 2.76892 13.4308 2.76954C13.9841 2.76987 14.4286 2.30469 14.4296 1.72361C14.4309 1.13969 13.9914 0.669279 13.4417 0.666352ZM21.6619 7.24026C21.6594 6.75878 21.2683 6.3493 20.8077 6.34604C20.3375 6.34249 19.9392 6.7595 19.9423 7.25197C19.9456 7.7432 20.3253 8.13704 20.7962 8.13772C21.2813 8.13872 21.6646 7.74095 21.6619 7.24026ZM4.05033 4.66926C4.05033 5.12143 4.38565 5.47623 4.81367 5.47689C5.24722 5.47752 5.58353 5.12081 5.58198 4.66211C5.58042 4.21718 5.24452 3.86916 4.81801 3.87051C4.37938 3.87141 4.05056 4.21353 4.05033 4.66926ZM12.0689 23.3187C12.0726 22.9421 11.7773 22.6319 11.4144 22.6305C11.0419 22.6294 10.7493 22.9324 10.7503 23.3181C10.7512 23.6986 11.0423 24 11.4083 24C11.7739 24.0003 12.0657 23.6995 12.0689 23.3187ZM22.3077 12.6179C21.959 12.6152 21.6566 12.9326 21.6594 13.2982C21.6624 13.6595 21.9498 13.9561 22.2977 13.9568C22.6625 13.9575 22.9361 13.6756 22.937 13.2973C22.938 12.9229 22.6579 12.6205 22.3077 12.6179ZM6.99414 5.0837e-06C6.68675 -0.00129028 6.4495 0.245116 6.4495 0.566126C6.4495 0.885121 6.68922 1.13316 6.99633 1.13153C7.29439 1.1299 7.52794 0.880512 7.52794 0.563775C7.52799 0.244108 7.29809 0.0016357 6.99414 5.0837e-06ZM23.5242 9.57749C23.2736 9.57451 23.0465 9.80989 23.0434 10.0765C23.04 10.3522 23.2586 10.5817 23.5254 10.5823C23.7903 10.5833 23.9981 10.3671 24 10.0879C24.0025 9.807 23.7915 9.58104 23.5242 9.57749ZM4.55031 19.5085C4.5515 19.2415 4.33221 19.0117 4.07387 19.0092C3.81202 19.0068 3.59675 19.2381 3.59863 19.5193C3.60078 19.794 3.81326 20.0112 4.0779 20.0092C4.33755 20.0075 4.54944 19.7832 4.55031 19.5085Z" fill="#454545"/>
<path d="M13.0661 14.965C13.0668 15.86 13.635 16.651 14.4408 16.9198C14.8447 17.0546 15.2612 17.1186 15.684 17.1374C15.9859 17.1506 16.2872 17.1293 16.5661 16.9887C16.7854 16.878 16.8887 16.6951 16.8788 16.4515C16.8689 16.2063 16.7603 16.0228 16.5283 15.9252C16.4476 15.8913 16.3658 15.8637 16.2801 15.8487C16.0242 15.8025 15.7671 15.7637 15.5125 15.7126C15.0922 15.628 14.916 15.4031 14.9104 14.9734C14.9055 14.5933 15.0075 14.2348 15.1232 13.8802C15.3347 13.231 15.62 12.6122 15.8934 11.9884C16.1573 11.386 16.4339 10.7885 16.6203 10.1541C16.723 9.80563 16.772 9.45629 16.6787 9.09594C16.5366 8.54899 16.2124 8.1824 15.6535 8.07697C15.1418 7.98069 14.6324 7.96973 14.1696 8.27831C14.0158 8.38056 13.8678 8.35611 13.7342 8.2369C13.6322 8.14626 13.5351 8.0503 13.4352 7.95716C12.9632 7.51653 12.3391 7.49489 11.8323 7.8973C11.6278 8.05973 11.4557 8.26112 11.2336 8.40223C11.0351 8.52828 10.835 8.56401 10.6152 8.4455C10.4058 8.33258 10.189 8.2332 9.9728 8.1341C9.75378 8.03408 9.54162 7.91052 9.29509 7.88949C8.51529 7.82238 7.69925 8.29093 7.35525 9.00317C7.20261 9.31836 7.07799 9.6458 6.95982 9.97536C6.41417 11.4989 5.96974 13.0551 5.50976 14.6059C5.30377 15.3 5.54688 15.983 6.12814 16.3578C6.58162 16.65 7.07817 16.7223 7.59223 16.5661C8.00869 16.4394 8.23675 16.1004 8.39616 15.7196C8.9259 14.4564 9.40297 13.1718 9.90793 11.8985C10.0469 11.5482 10.1814 11.1963 10.3289 10.8497C10.4777 10.4998 10.9054 10.3806 11.1591 10.6127C11.314 10.7543 11.3548 10.9429 11.3397 11.1446C11.323 11.36 11.2404 11.5588 11.1629 11.7567C10.8343 12.5966 10.4997 13.434 10.1697 14.2732C10.103 14.4429 10.0307 14.6113 10.0012 14.7934C9.95072 15.1062 10.0732 15.3835 10.3262 15.4938C10.5844 15.6064 10.8523 15.6252 11.12 15.527C11.4314 15.4129 11.6175 15.1664 11.7608 14.8816C12.2534 13.9035 12.7422 12.923 13.2344 11.9449C13.4618 11.4931 13.6932 11.0433 13.9254 10.5941C14.0118 10.4276 14.1129 10.2699 14.2741 10.1664C14.4197 10.0733 14.5765 10.0663 14.7257 10.1511C14.8713 10.2335 14.8811 10.3841 14.8749 10.5328C14.8716 10.6127 14.8495 10.6908 14.8191 10.7651C14.7552 10.9197 14.6956 11.0766 14.6249 11.2281C14.2155 12.0989 13.7998 12.9664 13.3941 13.8392C13.223 14.2076 13.045 14.5777 13.0661 14.965Z" fill="white"/>
</g>
<defs>
<clipPath id="clip0">
<rect width="24" height="24" fill="white"/>
</clipPath>
</defs>
</svg>
