<svg width="56" height="24" viewBox="0 0 56 24" fill="none" xmlns="http://www.w3.org/2000/svg">
<path fill-rule="evenodd" clip-rule="evenodd" d="M8.59441 0.990234C9.1897 1.56141 9.4885 2.09916 9.12275 2.89615C9.0325 3.09282 3.41017 21.5079 3.03713 21.9251C2.82224 22.1655 2.17345 22.7634 1.71387 22.9857H9.7423C9.13098 22.7934 8.78384 21.8138 8.9521 21.3045C9.12704 20.7751 10.2401 17.7478 11.0609 14.7137C22.084 15.668 25.2337 7.98136 24.4829 4.76269C23.8154 1.90045 20.328 0.990234 19.3676 0.990234H8.59441ZM15.5638 2.65067C17.1778 2.65389 19.0024 3.18092 18.6919 5.65427C18.5334 7.16159 17.8956 9.94449 16.1553 11.5735C15.5146 12.1731 14.7251 12.7467 13.5298 13.0093C12.8712 13.1133 12.2774 13.1088 11.6758 13.0093L14.8905 2.67615C15.1056 2.6594 15.3332 2.65021 15.5638 2.65067Z" fill="#454545"/>
<path fill-rule="evenodd" clip-rule="evenodd" d="M29.6155 5.96683C29.5794 5.96661 29.5442 5.96757 29.5104 5.96914C27.5587 6.05963 24.772 7.30585 24.423 11.0524C24.3444 11.8957 24.3014 12.4371 24.3014 13.1157C22.9714 13.7165 18.0732 14.6782 18.0732 18.977C18.0732 20.0673 18.9026 23.2613 22.6999 23.2613C24.8303 23.2613 26.0509 22.6426 28.325 21.3415L30.2328 22.9649L35.7222 22.9371C33.8081 22.2439 32.0551 21.1312 30.4619 19.6115C32.0321 18.0222 32.4842 16.6188 32.4842 15.2486H29.6436C30.95 16.2948 29.8111 17.9435 29.4894 18.2406C28.8247 17.3745 27.5582 15.2333 27.4787 13.6043C29.0044 12.8061 32.6184 11.6959 32.8255 8.66472C32.95 6.84377 30.7387 5.97377 29.6155 5.96683ZM29.5361 7.16873C30.189 7.16873 30.3777 7.67593 30.3777 8.03716C30.3777 10.0372 27.2379 12.1084 27.2379 12.1084C27.1529 11.6478 27.1363 10.9829 27.1701 10.5915C27.3658 8.31497 28.7286 7.16873 29.5361 7.16873ZM24.5796 14.8433C25.2005 16.5875 25.8639 18.3246 27.1187 20.1002C27.1187 20.1002 25.5235 21.0659 24.0022 21.0659C22.6603 21.0659 21.4141 20.28 21.4141 18.5741C21.4141 16.8184 23.0603 15.642 24.5796 14.8433Z" fill="#454545"/>
<path fill-rule="evenodd" clip-rule="evenodd" d="M54.0002 1.70841L53.1699 4.59295C53.1699 4.59295 50.8636 2.59046 48.2001 2.59046C42.3067 2.59046 38.6826 11.9768 38.6826 17.1906C38.6826 19.523 39.5801 21.5397 42.1713 21.5397C42.5191 21.5397 43.3285 21.4722 43.3285 21.4722C43.3285 21.4722 45.8812 13.6584 45.8812 13.0944C45.8812 12.5593 45.4387 11.9481 44.809 11.6615H53.4202C52.5828 12.0225 51.828 12.5201 51.6085 13.3317C51.0834 15.2727 49.9113 18.6493 48.9955 21.6071C46.8041 22.7726 44.3699 23.0739 41.9331 23.2591C38.3878 23.2591 33.4922 22.085 33.4922 15.0666C33.4922 8.47855 38.4766 0.738281 47.9234 0.738281C50.223 0.738281 52.2899 1.02462 54.0002 1.70841Z" fill="#454545"/>
</svg>
