<svg width="14" height="26" viewBox="0 0 14 26" fill="none" xmlns="http://www.w3.org/2000/svg">
<path fill-rule="evenodd" clip-rule="evenodd" d="M13.1779 7.15472C13.0285 7.10073 12.8541 7.12773 12.6797 7.18172L12.0071 7.42471V0.64798C12.0071 0.29699 11.7331 0 11.4093 0H2.56584C2.24199 0 1.96797 0.29699 1.96797 0.64798V7.45171L1.29537 7.20872C1.121 7.15472 0.94662 7.12773 0.79715 7.18172C0.54804 7.23572 0 7.50571 0 8.55867V14.2285C0.07473 14.7144 0.37367 15.2814 1.04626 15.2814H3.28826C3.51246 15.5784 4.0605 16.0644 5.10676 16.1454C5.13167 16.9823 5.58007 17.6843 6.25267 17.9813V19.5742C6.25267 19.6012 6.22776 19.6282 6.20285 19.6282C3.06406 19.7362 1.07117 20.8162 0.49822 21.1672C0.14947 21.3832 0.07473 21.8422 0.07473 22.1391V23.3811C0.09964 23.8131 0.42349 24.1641 0.84698 24.1641C1.22064 24.1641 1.54448 23.8131 1.5694 23.4081C1.59431 23.0031 1.3452 22.6791 0.99644 22.5711C0.97153 22.5711 0.94662 22.5441 0.94662 22.5171V22.0582C0.94662 21.9502 0.99644 21.8422 1.09609 21.7882C1.94306 21.2752 4.11032 21.0322 5.75445 20.9242H6.22776C6.25267 20.9242 6.27758 20.9512 6.27758 20.9782C6.35231 22.4091 6.50178 23.6241 6.5516 24.3801H6.50178C6.22776 24.3801 5.97865 24.731 5.97865 25.19C5.97865 25.649 6.22776 26 6.50178 26H7.49822C7.77224 26 8.02135 25.649 8.02135 25.19C8.02135 24.731 7.77224 24.3801 7.49822 24.3801H7.4484C7.4484 24.3801 7.62278 22.4091 7.72242 20.9782C7.72242 20.9512 7.74733 20.9242 7.77224 20.9242H8.24555C9.8897 21.0052 12.0569 21.2752 12.9039 21.7882C13.0036 21.8422 13.0534 21.9502 13.0534 22.0582V22.5171C13.0534 22.5441 13.0285 22.5711 13.0036 22.5711C12.6548 22.6521 12.4057 23.0031 12.4306 23.4081C12.4555 23.8131 12.7794 24.1641 13.153 24.1641C13.5516 24.1641 13.9004 23.8401 13.9253 23.3811V22.1391C13.9253 21.8422 13.8505 21.4102 13.5018 21.1672C12.9288 20.8162 10.911 19.7362 7.79715 19.6012C7.77224 19.6012 7.74733 19.5742 7.74733 19.5472V17.9543C8.41993 17.6573 8.86833 16.9553 8.89324 16.1184C9.9146 16.0374 10.4626 15.5244 10.7117 15.2544H12.9537C13.6263 15.2544 13.9253 14.6874 14 14.2015V8.53167C13.9751 7.47871 13.427 7.23572 13.1779 7.15472ZM1.96797 13.0405L0.94662 13.8775C0.92171 13.9045 0.8968 13.8775 0.8968 13.8505V8.53167C0.8968 8.31568 0.92171 8.04569 1.02135 8.07269L1.91815 8.39668C1.94306 8.39668 1.96797 8.45067 1.96797 8.47767V13.0405ZM13.0534 13.8775L12.032 13.0405V8.50467C12.032 8.47767 12.0569 8.45067 12.0819 8.42368L12.9786 8.09969C13.1032 8.07269 13.1032 8.34268 13.1032 8.55867V13.8775C13.1032 13.8775 13.0783 13.9045 13.0534 13.8775Z" fill="#454545"/>
</svg>
